<svg width="100" height="100" viewBox="0 0 100 100" fill="none" xmlns="http://www.w3.org/2000/svg">
<path d="M24.036 99.3412C23.0701 99.6 22.1789 99.4937 21.3624 99.0223C20.5459 98.5509 19.9996 97.8001 19.7236 96.7697L16.3071 84.0195C16.0311 82.9892 16.1287 82.0658 16.6001 81.2493C17.0715 80.4328 17.7902 79.8951 18.7561 79.6363L22.3301 78.6787L11.5632 38.4962L7.98926 39.4538C7.02334 39.7126 6.13213 39.6063 5.31563 39.1349C4.49913 38.6635 3.95285 37.9127 3.67677 36.8823L0.23448 24.0355C-0.024339 23.0696 0.0819537 22.1784 0.553358 21.3619C1.02476 20.5454 1.74343 20.0077 2.70935 19.7489L15.5562 16.3066C16.5865 16.0306 17.5099 16.1282 18.3264 16.5996C19.1429 17.071 19.6806 17.7897 19.9394 18.7556L20.897 22.3295L61.0795 11.5627L60.1219 7.98874C59.8631 7.02282 59.9694 6.13161 60.4408 5.31511C60.9122 4.49861 61.663 3.95233 62.6934 3.67625L75.5402 0.233962C76.5061 -0.0248568 77.3973 0.0814353 78.2138 0.552841C79.0303 1.02424 79.5679 1.74291 79.8268 2.70884L83.2691 15.5557C83.5451 16.586 83.4475 17.5094 82.9761 18.3259C82.5047 19.1424 81.786 19.68 80.8201 19.9389L77.2461 20.8965L88.013 61.079L91.5869 60.1214C92.5529 59.8626 93.4441 59.9688 94.2606 60.4403C95.0771 60.9117 95.6234 61.6625 95.8994 62.6928L99.3158 75.4431C99.5919 76.4734 99.4943 77.3968 99.0228 78.2133C98.5514 79.0298 97.8328 79.5674 96.8669 79.8263L84.02 83.2685C82.9897 83.5446 82.0663 83.447 81.2498 82.9755C80.4333 82.5041 79.887 81.7533 79.611 80.723L78.6792 77.2456L38.4967 88.0125L39.4284 91.4898C39.7045 92.5202 39.6069 93.4436 39.1354 94.2601C38.664 95.0766 37.9132 95.6228 36.8829 95.8989L24.036 99.3412ZM36.9438 82.2169L77.1263 71.4501L76.1946 67.9727C75.9185 66.9424 76.0161 66.019 76.4876 65.2025C76.959 64.386 77.7098 63.8397 78.7401 63.5637L82.2175 62.6319L71.4506 22.4494L67.9733 23.3811C66.9429 23.6572 66.0195 23.5596 65.203 23.0881C64.3865 22.6167 63.8403 21.8659 63.5642 20.8356L62.6324 17.3582L22.4499 28.1251L23.3817 31.6024C23.6577 32.6328 23.5601 33.5562 23.0887 34.3727C22.6173 35.1892 21.8664 35.7354 20.8361 36.0115L17.3587 36.9433L28.1256 77.1258L31.603 76.194C32.6333 75.918 33.5567 76.0156 34.3732 76.487C35.1897 76.9584 35.736 77.7093 36.012 78.7396L36.9438 82.2169ZM41.662 68.5294C40.8248 68.7537 40.12 68.632 39.5474 68.1643C38.9722 67.6972 38.7249 66.9698 38.8053 65.982L42.0592 34.4659C42.1615 33.8173 42.4697 33.1646 42.9839 32.5078C43.4988 31.8536 44.1104 31.4316 44.8188 31.2418C45.5271 31.052 46.2678 31.1117 47.0408 31.4208C47.8145 31.7325 48.4078 32.1436 48.8207 32.6542L67.5192 58.3916C68.0655 59.1425 68.2076 59.8636 67.9456 60.555C67.681 61.247 67.098 61.7138 66.1965 61.9554C65.8101 62.0589 65.3693 62.0211 64.874 61.8418C64.3769 61.6658 63.9799 61.4105 63.6832 61.0759L58.5406 53.8611L44.3415 57.6657L43.4695 66.3886C43.3971 66.8912 43.1909 67.3426 42.8509 67.7429C42.509 68.1465 42.1127 68.4086 41.662 68.5294ZM44.7034 53.2206L55.9081 50.2183L46.4614 36.5992L46.075 36.7028L44.7034 53.2206ZM8.85116 33.0112L16.9649 30.8371L14.7909 22.7233L6.67708 24.8974L8.85116 33.0112ZM68.7386 16.9644L76.8523 14.7903L74.6783 6.67657L66.5645 8.85064L68.7386 16.9644ZM84.7854 76.8518L92.8991 74.6777L90.725 66.564L82.6113 68.7381L84.7854 76.8518ZM24.8979 92.8986L33.0117 90.7245L30.8376 82.6108L22.7239 84.7848L24.8979 92.8986Z" fill="#5B185E"/>
</svg>
