<svg width="66" height="81" viewBox="0 0 66 81" fill="none" xmlns="http://www.w3.org/2000/svg">
<path d="M40.8626 79.9146C39.2527 80.3459 37.7342 80.1496 36.3069 79.3256C34.8764 78.4997 33.9455 77.2818 33.5141 75.6719L28.6483 57.5125L16.5743 60.7478C14.6424 61.2654 12.8192 61.0293 11.1045 60.0393C9.38989 59.0494 8.27374 57.5885 7.75611 55.6566L0.6127 28.997C-0.319048 25.5197 0.134318 22.1889 1.9728 19.0045C3.81127 15.8202 6.46918 13.7622 9.94651 12.8304L54.5723 0.872976L65.1321 40.2828C65.6497 42.2146 65.4136 44.0378 64.4236 45.7525C63.4337 47.4671 61.9728 48.5833 60.0409 49.1009L47.9669 52.3361L52.8327 70.4956C53.264 72.1054 53.0668 73.6256 52.2409 75.0561C51.4168 76.4834 50.1999 77.4127 48.59 77.844L40.8626 79.9146ZM10.0317 40.9671L55.8166 28.6991L50.3296 8.22144L45.3068 9.5673L49.3444 24.6357L43.5489 26.1887L39.5113 11.1202L34.1987 12.5437L36.2692 20.2711L30.4737 21.824L28.4031 14.0966L11.4994 18.626C9.56757 19.1436 8.10667 20.2597 7.11672 21.9744C6.12677 23.689 5.89062 25.5123 6.40826 27.4441L10.0317 40.9671ZM15.0214 54.9522L58.488 43.3054C58.81 43.2191 59.0527 43.0326 59.216 42.7459C59.3826 42.461 59.4228 42.1576 59.3365 41.8357L57.3695 34.4946L11.5846 46.7626L13.5517 54.1037C13.6379 54.4257 13.8231 54.6687 14.1073 54.8327C14.3947 54.9987 14.6994 55.0385 15.0214 54.9522ZM11.5846 46.7626L13.8622 55.2628L13.5517 54.1037L11.5846 46.7626Z" fill="#FCB814"/>
</svg>
