<svg width="54" height="54" viewBox="0 0 54 54" fill="none" xmlns="http://www.w3.org/2000/svg">
<circle cx="27" cy="27" r="27" fill="#ADEBFF"/>
<mask id="mask0_263_1521" style="mask-type:alpha" maskUnits="userSpaceOnUse" x="11" y="11" width="32" height="32">
<rect x="11" y="11" width="32" height="32" fill="#D9D9D9"/>
</mask>
<g mask="url(#mask0_263_1521)">
<path d="M27 29.6666L24.3333 26.9999L27 24.3333L29.6667 26.9999L27 29.6666ZM24.1667 21.8333L20.8333 18.4999L27 12.3333L33.1667 18.4999L29.8333 21.8333L27 18.9999L24.1667 21.8333ZM18.5 33.1666L12.3333 26.9999L18.5 20.8333L21.8333 24.1666L19 26.9999L21.8333 29.8333L18.5 33.1666ZM35.5 33.1666L32.1667 29.8333L35 26.9999L32.1667 24.1666L35.5 20.8333L41.6667 26.9999L35.5 33.1666ZM27 41.6666L20.8333 35.4999L24.1667 32.1666L27 34.9999L29.8333 32.1666L33.1667 35.4999L27 41.6666Z" fill="#0071AF"/>
</g>
</svg>
