<svg width="54" height="54" viewBox="0 0 54 54" fill="none" xmlns="http://www.w3.org/2000/svg">
<circle cx="27" cy="27" r="27" fill="#ADEBFF"/>
<mask id="mask0_126_1185" style="mask-type:alpha" maskUnits="userSpaceOnUse" x="12" y="12" width="30" height="30">
<rect x="12" y="12" width="30" height="30" fill="#D9D9D9"/>
</mask>
<g mask="url(#mask0_126_1185)">
<path d="M12 34.5V32.5312C12 31.6146 12.4638 30.88 13.3913 30.3275C14.3179 29.7758 15.5208 29.5 17 29.5C17.2708 29.5 17.5312 29.505 17.7812 29.515C18.0312 29.5258 18.2708 29.5521 18.5 29.5938C18.2083 30.0104 17.9896 30.4583 17.8438 30.9375C17.6979 31.4167 17.625 31.9271 17.625 32.4688V34.5H12ZM19.5 34.5V32.4688C19.5 31.1146 20.1929 30.0208 21.5788 29.1875C22.9637 28.3542 24.7708 27.9375 27 27.9375C29.25 27.9375 31.0625 28.3542 32.4375 29.1875C33.8125 30.0208 34.5 31.1146 34.5 32.4688V34.5H19.5ZM36.375 34.5V32.4688C36.375 31.9271 36.3071 31.4167 36.1712 30.9375C36.0362 30.4583 35.8333 30.0104 35.5625 29.5938C35.7917 29.5521 36.0263 29.5258 36.2663 29.515C36.5054 29.505 36.75 29.5 37 29.5C38.5 29.5 39.7083 29.7758 40.625 30.3275C41.5417 30.88 42 31.6146 42 32.5312V34.5H36.375ZM27 30.4375C25.8125 30.4375 24.75 30.5938 23.8125 30.9062C22.875 31.2188 22.3229 31.5833 22.1562 32H31.875C31.6875 31.5833 31.13 31.2188 30.2025 30.9062C29.2758 30.5938 28.2083 30.4375 27 30.4375ZM17 28.25C16.3125 28.25 15.7242 28.005 15.235 27.515C14.745 27.0258 14.5 26.4375 14.5 25.75C14.5 25.0417 14.745 24.4479 15.235 23.9688C15.7242 23.4896 16.3125 23.25 17 23.25C17.7083 23.25 18.3021 23.4896 18.7812 23.9688C19.2604 24.4479 19.5 25.0417 19.5 25.75C19.5 26.4375 19.2604 27.0258 18.7812 27.515C18.3021 28.005 17.7083 28.25 17 28.25ZM37 28.25C36.3125 28.25 35.7237 28.005 35.2337 27.515C34.7446 27.0258 34.5 26.4375 34.5 25.75C34.5 25.0417 34.7446 24.4479 35.2337 23.9688C35.7237 23.4896 36.3125 23.25 37 23.25C37.7083 23.25 38.3021 23.4896 38.7812 23.9688C39.2604 24.4479 39.5 25.0417 39.5 25.75C39.5 26.4375 39.2604 27.0258 38.7812 27.515C38.3021 28.005 37.7083 28.25 37 28.25ZM27 27C25.9583 27 25.0729 26.6354 24.3438 25.9062C23.6146 25.1771 23.25 24.2917 23.25 23.25C23.25 22.1875 23.6146 21.2967 24.3438 20.5775C25.0729 19.8592 25.9583 19.5 27 19.5C28.0625 19.5 28.9529 19.8592 29.6712 20.5775C30.3904 21.2967 30.75 22.1875 30.75 23.25C30.75 24.2917 30.3904 25.1771 29.6712 25.9062C28.9529 26.6354 28.0625 27 27 27ZM27 22C26.6458 22 26.3492 22.1196 26.11 22.3587C25.87 22.5987 25.75 22.8958 25.75 23.25C25.75 23.6042 25.87 23.9008 26.11 24.14C26.3492 24.38 26.6458 24.5 27 24.5C27.3542 24.5 27.6513 24.38 27.8913 24.14C28.1304 23.9008 28.25 23.6042 28.25 23.25C28.25 22.8958 28.1304 22.5987 27.8913 22.3587C27.6513 22.1196 27.3542 22 27 22Z" fill="#0071AF"/>
</g>
</svg>
