<svg fill="none" height="54" width="54" xmlns="http://www.w3.org/2000/svg"><circle cx="27" cy="27" fill="#adebff" r="27"/><path d="m27.75 19.35c2.67 0 3.66 1.275 3.75 3.15h3.315c-.105-2.58-1.68-4.95-4.815-5.715v-3.285h-4.5v3.24a8.503 8.503 0 0 0 -1.65.54l2.265 2.265a6.786 6.786 0 0 1 1.635-.195zm-10.545-4.47-2.115 2.115 5.16 5.16c0 3.12 2.34 4.83 5.865 5.865l5.265 5.265c-.51.735-1.575 1.365-3.63 1.365-3.09 0-4.305-1.38-4.47-3.15h-3.3c.18 3.285 2.64 5.13 5.52 5.745v3.255h4.5v-3.225c1.44-.27 2.745-.825 3.69-1.68l3.33 3.33 2.115-2.115z" fill="#0071af"/></svg>