<svg width="54" height="54" viewBox="0 0 54 54" fill="none" xmlns="http://www.w3.org/2000/svg">
<circle cx="27" cy="27" r="27" fill="#ADEBFF"/>
<mask id="mask0_263_1532" style="mask-type:alpha" maskUnits="userSpaceOnUse" x="11" y="11" width="32" height="32">
<rect x="11" y="11" width="32" height="32" fill="#D9D9D9"/>
</mask>
<g mask="url(#mask0_263_1532)">
<path d="M25.3333 36.3334H28.6667V30.3334H30.6667V24.2001C30.6667 23.6001 30.3502 23.1392 29.7173 22.8174C29.0836 22.4947 28.1778 22.3334 27 22.3334C25.8222 22.3334 24.9169 22.4947 24.284 22.8174C23.6502 23.1392 23.3333 23.6001 23.3333 24.2001V30.3334H25.3333V36.3334ZM27 40.3334C25.1778 40.3334 23.4556 39.9832 21.8333 39.2827C20.2111 38.5832 18.7947 37.6276 17.584 36.4161C16.3724 35.2054 15.4169 33.789 14.7173 32.1667C14.0169 30.5445 13.6667 28.8223 13.6667 27.0001C13.6667 25.1556 14.0169 23.4281 14.7173 21.8174C15.4169 20.2059 16.3724 18.7947 17.584 17.5841C18.7947 16.3725 20.2111 15.4165 21.8333 14.7161C23.4556 14.0165 25.1778 13.6667 27 13.6667C28.8444 13.6667 30.572 14.0165 32.1827 14.7161C33.7942 15.4165 35.2053 16.3725 36.416 17.5841C37.6276 18.7947 38.5831 20.2059 39.2827 21.8174C39.9831 23.4281 40.3333 25.1556 40.3333 27.0001C40.3333 28.8223 39.9831 30.5445 39.2827 32.1667C38.5831 33.789 37.6276 35.2054 36.416 36.4161C35.2053 37.6276 33.7942 38.5832 32.1827 39.2827C30.572 39.9832 28.8444 40.3334 27 40.3334ZM27 37.6667C29.9556 37.6667 32.4724 36.6281 34.5507 34.5507C36.628 32.4725 37.6667 29.9556 37.6667 27.0001C37.6667 24.0445 36.628 21.5276 34.5507 19.4494C32.4724 17.3721 29.9556 16.3334 27 16.3334C24.0444 16.3334 21.528 17.3721 19.4507 19.4494C17.3724 21.5276 16.3333 24.0445 16.3333 27.0001C16.3333 29.9556 17.3724 32.4725 19.4507 34.5507C21.528 36.6281 24.0444 37.6667 27 37.6667ZM27 21.6667C27.5778 21.6667 28.0556 21.4779 28.4333 21.1001C28.8111 20.7223 29 20.2445 29 19.6667C29 19.089 28.8111 18.6112 28.4333 18.2334C28.0556 17.8556 27.5778 17.6667 27 17.6667C26.4222 17.6667 25.9444 17.8556 25.5667 18.2334C25.1889 18.6112 25 19.089 25 19.6667C25 20.2445 25.1889 20.7223 25.5667 21.1001C25.9444 21.4779 26.4222 21.6667 27 21.6667Z" fill="#0071AF"/>
</g>
</svg>
