<svg width="32" height="32" viewBox="0 0 32 32" fill="none" xmlns="http://www.w3.org/2000/svg">
<circle cx="16" cy="16" r="16" fill="#ADEBFF"/>
<mask id="mask0_139_1900" style="mask-type:alpha" maskUnits="userSpaceOnUse" x="6" y="6" width="20" height="20">
<rect x="6.4" y="6.40002" width="19.2" height="19.2" fill="#D9D9D9"/>
</mask>
<g mask="url(#mask0_139_1900)">
<path d="M10.4 15.2C9.96 15.2 9.5832 15.0432 9.2696 14.7296C8.95654 14.4166 8.8 14.04 8.8 13.6V10.4C8.8 9.96005 8.95654 9.58325 9.2696 9.26965C9.5832 8.95658 9.96 8.80005 10.4 8.80005H21.6C22.04 8.80005 22.4168 8.95658 22.7304 9.26965C23.0435 9.58325 23.2 9.96005 23.2 10.4V13.6C23.2 14.04 23.0435 14.4166 22.7304 14.7296C22.4168 15.0432 22.04 15.2 21.6 15.2H10.4ZM10.4 13.6H21.6V10.4H10.4V13.6ZM10.4 23.2C9.96 23.2 9.5832 23.0435 9.2696 22.7304C8.95654 22.4168 8.8 22.04 8.8 21.6V18.4C8.8 17.96 8.95654 17.5832 9.2696 17.2696C9.5832 16.9566 9.96 16.8 10.4 16.8H21.6C22.04 16.8 22.4168 16.9566 22.7304 17.2696C23.0435 17.5832 23.2 17.96 23.2 18.4V21.6C23.2 22.04 23.0435 22.4168 22.7304 22.7304C22.4168 23.0435 22.04 23.2 21.6 23.2H10.4ZM10.4 21.6H21.6V18.4H10.4V21.6Z" fill="#0071AF"/>
</g>
</svg>
