<svg width="32" height="32" viewBox="0 0 32 32" fill="none" xmlns="http://www.w3.org/2000/svg">
<circle cx="16" cy="16" r="16" fill="#ADEBFF"/>
<mask id="mask0_139_1857" style="mask-type:alpha" maskUnits="userSpaceOnUse" x="6" y="6" width="20" height="20">
<rect x="6.39999" y="6.40002" width="19.2" height="19.2" fill="#D9D9D9"/>
</mask>
<g mask="url(#mask0_139_1857)">
<path d="M9.6 24C9.16 24 8.78347 23.8435 8.4704 23.5304C8.1568 23.2168 8 22.84 8 22.4V9.6C8 9.16 8.1568 8.7832 8.4704 8.4696C8.78347 8.15653 9.16 8 9.6 8H22.4C22.84 8 23.2168 8.15653 23.5304 8.4696C23.8435 8.7832 24 9.16 24 9.6V22.4C24 22.84 23.8435 23.2168 23.5304 23.5304C23.2168 23.8435 22.84 24 22.4 24H9.6ZM9.6 19.2V22.4H12.8V19.2H9.6ZM14.4 19.2V22.4H17.6V19.2H14.4ZM19.2 22.4H22.4V19.2H19.2V22.4ZM9.6 17.6H12.8V14.4H9.6V17.6ZM14.4 17.6H17.6V14.4H14.4V17.6ZM19.2 17.6H22.4V14.4H19.2V17.6ZM12.8 9.6H9.6V12.8H12.8V9.6ZM14.4 12.8H17.6V9.6H14.4V12.8ZM19.2 12.8H22.4V9.6H19.2V12.8Z" fill="#0071AF"/>
</g>
</svg>
