<svg width="54" height="54" viewBox="0 0 54 54" fill="none" xmlns="http://www.w3.org/2000/svg">
<circle cx="27" cy="27" r="27" fill="#ADEBFF"/>
<mask id="mask0_20_132" style="mask-type:alpha" maskUnits="userSpaceOnUse" x="12" y="12" width="30" height="30">
<rect x="12" y="12" width="30" height="30" fill="#D9D9D9"/>
</mask>
<g mask="url(#mask0_20_132)">
<path d="M22 38.25V35.75H17C16.3125 35.75 15.7242 35.5054 15.235 35.0163C14.745 34.5263 14.5 33.9375 14.5 33.25V18.25C14.5 17.5625 14.745 16.9737 15.235 16.4837C15.7242 15.9946 16.3125 15.75 17 15.75H27V18.25H17V33.25H37V29.5H39.5V33.25C39.5 33.9375 39.2554 34.5263 38.7663 35.0163C38.2763 35.5054 37.6875 35.75 37 35.75H32V38.25H22ZM33.25 29.5L27 23.25L28.75 21.5L32 24.7188V15.75H34.5V24.7188L37.75 21.5L39.5 23.25L33.25 29.5Z" fill="#0071AF"/>
</g>
</svg>
