<svg width="54" height="54" viewBox="0 0 54 54" fill="none" xmlns="http://www.w3.org/2000/svg">
<circle cx="27" cy="27" r="27" fill="#ADEBFF"/>
<path d="M32.64 20.3332H36.1066C36.0266 19.7065 35.6266 19.0798 35.0533 18.7732L25 13.6665L14.7333 18.7732C14.0933 19.1198 13.6666 19.8532 13.6666 20.5598V30.9998C13.6666 32.4665 14.8666 33.6665 16.3333 33.6665V20.8665L25 16.3332L32.64 20.3332Z" fill="#0071AF"/>
<path d="M37.6666 21.6665H20.3333C18.8666 21.6665 17.6666 22.8665 17.6666 24.3332V36.3332C17.6666 37.7998 18.8666 38.9998 20.3333 38.9998H37.6666C39.1333 38.9998 40.3333 37.7998 40.3333 36.3332V24.3332C40.3333 22.8665 39.1333 21.6665 37.6666 21.6665ZM37.6666 36.3332H20.3333V26.9998L29 31.4398L37.6666 26.9998V36.3332ZM29 28.7732L20.3333 24.3332H37.6666L29 28.7732Z" fill="#0071AF"/>
</svg>
