<svg width="32" height="32" viewBox="0 0 32 32" fill="none" xmlns="http://www.w3.org/2000/svg">
<circle cx="16" cy="16" r="16" fill="#ADEBFF"/>
<mask id="mask0_139_1865" style="mask-type:alpha" maskUnits="userSpaceOnUse" x="6" y="6" width="20" height="20">
<rect x="6.39999" y="6.40002" width="19.2" height="19.2" fill="#D9D9D9"/>
</mask>
<g mask="url(#mask0_139_1865)">
<path d="M21.82 19.56L16 13.74V10.24L14.22 11.98L13.1 10.86L16 8L20.52 12.46C21.16 13.1 21.6333 13.7899 21.94 14.5296C22.2467 15.2699 22.4 16.0533 22.4 16.88C22.4 17.3867 22.3467 17.8699 22.24 18.3296C22.1333 18.7899 21.9933 19.2 21.82 19.56ZM22.24 24.48L19.76 22C19.2 22.4133 18.5901 22.7165 17.9304 22.9096C17.2701 23.1032 16.6267 23.2 16 23.2C14.2267 23.2 12.7168 22.5899 11.4704 21.3696C10.2235 20.1499 9.59999 18.6533 9.59999 16.88C9.59999 16.2 9.70666 15.5467 9.91999 14.92C10.1333 14.2933 10.4533 13.6933 10.88 13.12L7.51999 9.76L8.63999 8.64L23.36 23.36L22.24 24.48ZM16 21.6V18.26L12 14.26C11.72 14.6867 11.5168 15.1168 11.3904 15.5504C11.2635 15.9835 11.2 16.4267 11.2 16.88C11.2 18.2133 11.6667 19.3333 12.6 20.24C13.5333 21.1467 14.6667 21.6 16 21.6Z" fill="#0071AF"/>
</g>
</svg>
