<svg fill="none" height="54" width="54" xmlns="http://www.w3.org/2000/svg"><circle cx="27" cy="27" fill="#adebff" r="27"/><path d="m40.5 20.25h-9.45v-6.75h-8.1v6.75h-9.45v20.25h27zm-17.55 6.75c1.12 0 2.025.904 2.025 2.025 0 1.12-.905 2.025-2.025 2.025a2.022 2.022 0 0 1 -2.025-2.025c0-1.12.904-2.025 2.025-2.025zm4.05 8.1h-8.1v-.58c0-.81.486-1.553 1.242-1.877a6.968 6.968 0 0 1 2.808-.58c.999 0 1.944.202 2.808.58a2.054 2.054 0 0 1 1.242 1.877zm1.35-12.15h-2.7v-6.75h2.7zm6.75 10.125h-5.4v-2.025h5.4zm0-4.05h-5.4v-2.025h5.4z" fill="#0071af"/></svg>