<svg width="54" height="54" fill="none" xmlns="http://www.w3.org/2000/svg"><circle cx="27" cy="27" r="27" fill="#ADEBFF"/><path d="M23.25 26.688a1.563 1.563 0 1 0 .001 3.126 1.563 1.563 0 0 0-.001-3.127zm7.5 0a1.563 1.563 0 1 0 .001 3.126 1.563 1.563 0 0 0-.001-3.127zM27 14.5c-6.9 0-12.5 5.6-12.5 12.5S20.1 39.5 27 39.5 39.5 33.9 39.5 27 33.9 14.5 27 14.5zM27 37c-5.512 0-10-4.487-10-10 0-.363.025-.725.063-1.075a12.577 12.577 0 0 0 6.512-6.713 12.467 12.467 0 0 0 13.012 4.963c.263.887.413 1.837.413 2.825 0 5.513-4.487 10-10 10z" fill="#0071AF"/></svg>