<svg width="32" height="32" viewBox="0 0 32 32" fill="none" xmlns="http://www.w3.org/2000/svg">
<circle cx="16" cy="16" r="16" fill="#ADEBFF"/>
<mask id="mask0_139_1829" style="mask-type:alpha" maskUnits="userSpaceOnUse" x="6" y="6" width="20" height="20">
<rect x="6.39999" y="6.40002" width="19.2" height="19.2" fill="#D9D9D9"/>
</mask>
<g mask="url(#mask0_139_1829)">
<path d="M7.19998 24.8001V20.0001H8.79998V12.0001H7.19998V7.20007H12V8.80007H20V7.20007H24.8V12.0001H23.2V20.0001H24.8V24.8001H20V23.2001H12V24.8001H7.19998ZM12 21.6001H20V20.0001H21.6V12.0001H20V10.4001H12V12.0001H10.4V20.0001H12V21.6001ZM12.64 19.2001L15.36 12.0001H16.64L19.36 19.2001H18.12L17.48 17.3601H14.56L13.92 19.2001H12.64ZM14.92 16.3201H17.08L16.04 13.3201H15.96L14.92 16.3201ZM8.79998 10.4001H10.4V8.80007H8.79998V10.4001ZM21.6 10.4001H23.2V8.80007H21.6V10.4001ZM21.6 23.2001H23.2V21.6001H21.6V23.2001ZM8.79998 23.2001H10.4V21.6001H8.79998V23.2001Z" fill="#0071AF"/>
</g>
</svg>
