<svg width="32" height="32" viewBox="0 0 32 32" fill="none" xmlns="http://www.w3.org/2000/svg">
<circle cx="16" cy="16" r="16" fill="#ADEBFF"/>
<mask id="mask0_139_2312" style="mask-type:alpha" maskUnits="userSpaceOnUse" x="6" y="6" width="20" height="20">
<rect x="6.4" y="6.40002" width="19.2" height="19.2" fill="#D9D9D9"/>
</mask>
<g mask="url(#mask0_139_2312)">
<path d="M12.4 20.4H20.8V19.2H12.4C11.52 19.2 10.7667 18.8866 10.14 18.26C9.51333 17.6333 9.2 16.88 9.2 16C9.2 15.12 9.51333 14.3666 10.14 13.74C10.7667 13.1133 11.52 12.8 12.4 12.8H20.8C21.36 12.8 21.8333 12.9933 22.22 13.38C22.6067 13.7666 22.8 14.24 22.8 14.8C22.8 15.36 22.6067 15.8333 22.22 16.22C21.8333 16.6066 21.36 16.8 20.8 16.8H13.2C12.9733 16.8 12.7835 16.7232 12.6304 16.5696C12.4768 16.4165 12.4 16.2266 12.4 16C12.4 15.7733 12.4768 15.5832 12.6304 15.4296C12.7835 15.2765 12.9733 15.2 13.2 15.2H20.8V14H13.2C12.64 14 12.1667 14.1933 11.78 14.58C11.3933 14.9666 11.2 15.44 11.2 16C11.2 16.56 11.3933 17.0333 11.78 17.42C12.1667 17.8066 12.64 18 13.2 18H20.8C21.68 18 22.4333 17.6866 23.06 17.06C23.6867 16.4333 24 15.68 24 14.8C24 13.92 23.6867 13.1666 23.06 12.54C22.4333 11.9133 21.68 11.6 20.8 11.6H12.4C11.1733 11.6 10.1333 12.0266 9.28 12.88C8.42667 13.7333 8 14.7733 8 16C8 17.2266 8.42667 18.2666 9.28 19.12C10.1333 19.9733 11.1733 20.4 12.4 20.4Z" fill="#0071AF"/>
</g>
</svg>
