<svg width="32" height="32" viewBox="0 0 32 32" fill="none" xmlns="http://www.w3.org/2000/svg">
<circle cx="16" cy="16" r="16" fill="#ADEBFF"/>
<mask id="mask0_139_2261" style="mask-type:alpha" maskUnits="userSpaceOnUse" x="6" y="6" width="20" height="20">
<rect x="6" y="6" width="20" height="20" fill="#D9D9D9"/>
</mask>
<g mask="url(#mask0_139_2261)">
<path d="M12.1111 19.8889H17.5556V18.3333H12.1111V19.8889ZM12.1111 16.7778H19.8889V15.2222H12.1111V16.7778ZM12.1111 13.6667H19.8889V12.1111H12.1111V13.6667ZM10.5556 23C10.1278 23 9.76144 22.8478 9.45656 22.5434C9.15219 22.2386 9 21.8722 9 21.4444V10.5556C9 10.1278 9.15219 9.76144 9.45656 9.45656C9.76144 9.15219 10.1278 9 10.5556 9H21.4444C21.8722 9 22.2386 9.15219 22.5434 9.45656C22.8478 9.76144 23 10.1278 23 10.5556V21.4444C23 21.8722 22.8478 22.2386 22.5434 22.5434C22.2386 22.8478 21.8722 23 21.4444 23H10.5556ZM10.5556 21.4444H21.4444V10.5556H10.5556V21.4444Z" fill="#0071AF"/>
</g>
</svg>
