<svg width="32" height="32" viewBox="0 0 32 32" fill="none" xmlns="http://www.w3.org/2000/svg">
<circle cx="16" cy="16" r="16" fill="#ADEBFF"/>
<mask id="mask0_139_2326" style="mask-type:alpha" maskUnits="userSpaceOnUse" x="6" y="6" width="20" height="20">
<rect x="6.4" y="6.40002" width="19.2" height="19.2" fill="#D9D9D9"/>
</mask>
<g mask="url(#mask0_139_2326)">
<path d="M11.2 22.4C10.76 22.4 10.3835 22.2434 10.0704 21.9304C9.7568 21.6168 9.6 21.24 9.6 20.8C9.6 20.36 9.7568 19.9832 10.0704 19.6696C10.3835 19.3565 10.76 19.2 11.2 19.2C11.64 19.2 12.0165 19.3565 12.3296 19.6696C12.6432 19.9832 12.8 20.36 12.8 20.8C12.8 21.24 12.6432 21.6168 12.3296 21.9304C12.0165 22.2434 11.64 22.4 11.2 22.4ZM11.2 17.6C10.76 17.6 10.3835 17.4432 10.0704 17.1296C9.7568 16.8165 9.6 16.44 9.6 16C9.6 15.56 9.7568 15.1832 10.0704 14.8696C10.3835 14.5565 10.76 14.4 11.2 14.4C11.64 14.4 12.0165 14.5565 12.3296 14.8696C12.6432 15.1832 12.8 15.56 12.8 16C12.8 16.44 12.6432 16.8165 12.3296 17.1296C12.0165 17.4432 11.64 17.6 11.2 17.6ZM11.2 12.8C10.76 12.8 10.3835 12.6432 10.0704 12.3296C9.7568 12.0165 9.6 11.64 9.6 11.2C9.6 10.76 9.7568 10.3834 10.0704 10.0704C10.3835 9.75678 10.76 9.59998 11.2 9.59998C11.64 9.59998 12.0165 9.75678 12.3296 10.0704C12.6432 10.3834 12.8 10.76 12.8 11.2C12.8 11.64 12.6432 12.0165 12.3296 12.3296C12.0165 12.6432 11.64 12.8 11.2 12.8ZM16 17.6C15.56 17.6 15.1835 17.4432 14.8704 17.1296C14.5568 16.8165 14.4 16.44 14.4 16C14.4 15.56 14.5568 15.1832 14.8704 14.8696C15.1835 14.5565 15.56 14.4 16 14.4C16.44 14.4 16.8168 14.5565 17.1304 14.8696C17.4435 15.1832 17.6 15.56 17.6 16L16 17.6ZM16 12.8C15.56 12.8 15.1835 12.6432 14.8704 12.3296C14.5568 12.0165 14.4 11.64 14.4 11.2C14.4 10.76 14.5568 10.3834 14.8704 10.0704C15.1835 9.75678 15.56 9.59998 16 9.59998C16.44 9.59998 16.8168 9.75678 17.1304 10.0704C17.4435 10.3834 17.6 10.76 17.6 11.2C17.6 11.64 17.4435 12.0165 17.1304 12.3296C16.8168 12.6432 16.44 12.8 16 12.8ZM15.2 22.4V20.7L19.44 16.46L21.14 18.16L16.9 22.4H15.2ZM20.8 12.8C20.36 12.8 19.9832 12.6432 19.6696 12.3296C19.3565 12.0165 19.2 11.64 19.2 11.2C19.2 10.76 19.3565 10.3834 19.6696 10.0704C19.9832 9.75678 20.36 9.59998 20.8 9.59998C21.24 9.59998 21.6168 9.75678 21.9304 10.0704C22.2435 10.3834 22.4 10.76 22.4 11.2C22.4 11.64 22.2435 12.0165 21.9304 12.3296C21.6168 12.6432 21.24 12.8 20.8 12.8ZM21.7 17.6L20 15.9L20.58 15.32C20.74 15.16 20.9301 15.08 21.1504 15.08C21.3701 15.08 21.5533 15.16 21.7 15.32L22.28 15.9C22.44 16.0466 22.52 16.2298 22.52 16.4496C22.52 16.6698 22.44 16.86 22.28 17.02L21.7 17.6Z" fill="#0071AF"/>
</g>
</svg>
