<svg width="32" height="32" viewBox="0 0 32 32" fill="none" xmlns="http://www.w3.org/2000/svg">
<circle cx="16" cy="16" r="16" fill="#ADEBFF"/>
<mask id="mask0_139_1843" style="mask-type:alpha" maskUnits="userSpaceOnUse" x="6" y="6" width="20" height="20">
<rect x="6.39999" y="6.40002" width="19.2" height="19.2" fill="#D9D9D9"/>
</mask>
<g mask="url(#mask0_139_1843)">
<path d="M11.34 7.52002L12.48 6.40002L19.34 13.26C19.6467 13.5667 19.8 13.9467 19.8 14.4C19.8 14.8534 19.6467 15.2334 19.34 15.54L15.54 19.34C15.2333 19.6467 14.8533 19.8 14.4 19.8C13.9467 19.8 13.5667 19.6467 13.26 19.34L9.46 15.54C9.15333 15.2334 9 14.8534 9 14.4C9 13.9467 9.15333 13.5667 9.46 13.26L13.26 9.44002L11.34 7.52002ZM14.4 10.58L10.58 14.4H18.22L14.4 10.58ZM21.6 20C21.16 20 20.7832 19.8435 20.4696 19.5304C20.1565 19.2168 20 18.84 20 18.4C20 18.12 20.0832 17.82 20.2496 17.5C20.4165 17.18 20.6 16.88 20.8 16.6C20.92 16.44 21.0467 16.2734 21.18 16.1C21.3133 15.9267 21.4533 15.76 21.6 15.6C21.7467 15.76 21.8867 15.9267 22.02 16.1C22.1533 16.2734 22.28 16.44 22.4 16.6C22.6 16.88 22.7835 17.18 22.9504 17.5C23.1168 17.82 23.2 18.12 23.2 18.4C23.2 18.84 23.0435 19.2168 22.7304 19.5304C22.4168 19.8435 22.04 20 21.6 20ZM8 25.6V22.4H24V25.6H8Z" fill="#0071AF"/>
</g>
</svg>
