<svg width="32" height="32" viewBox="0 0 32 32" fill="none" xmlns="http://www.w3.org/2000/svg">
<circle cx="16" cy="16" r="16" fill="#ADEBFF"/>
<mask id="mask0_139_2171" style="mask-type:alpha" maskUnits="userSpaceOnUse" x="6" y="6" width="20" height="20">
<rect x="6.4" y="6.3999" width="19.2" height="19.2" fill="#D9D9D9"/>
</mask>
<g mask="url(#mask0_139_2171)">
<path d="M11.2 22.3999C10.76 22.3999 10.3835 22.2433 10.0704 21.9303C9.7568 21.6167 9.6 21.2399 9.6 20.7999V18.3999H11.2V20.7999H20.8V18.3999H22.4V20.7999C22.4 21.2399 22.2435 21.6167 21.9304 21.9303C21.6168 22.2433 21.24 22.3999 20.8 22.3999H11.2ZM16 19.1999L12 15.1999L13.12 14.0399L15.2 16.1199V9.59985H16.8V16.1199L18.88 14.0399L20 15.1999L16 19.1999Z" fill="#0071AF"/>
</g>
</svg>
