<svg width="32" height="32" viewBox="0 0 32 32" fill="none" xmlns="http://www.w3.org/2000/svg">
<circle cx="16" cy="16" r="16" fill="#ADEBFF"/>
<mask id="mask0_139_2069" style="mask-type:alpha" maskUnits="userSpaceOnUse" x="6" y="6" width="20" height="20">
<rect x="6.3999" y="6.40002" width="19.2" height="19.2" fill="#D9D9D9"/>
</mask>
<g mask="url(#mask0_139_2069)">
<path d="M16 24C14.9067 24 13.8733 23.7899 12.9 23.3696C11.9267 22.9499 11.0768 22.3765 10.3504 21.6496C9.62347 20.9232 9.05013 20.0733 8.6304 19.1C8.21013 18.1267 8 17.0933 8 16C8 14.8933 8.21013 13.8568 8.6304 12.8904C9.05013 11.9235 9.62347 11.0768 10.3504 10.3504C11.0768 9.62347 11.9267 9.04987 12.9 8.6296C13.8733 8.20987 14.9067 8 16 8C16.2533 8 16.5 8.01333 16.74 8.04C16.98 8.06667 17.22 8.1 17.46 8.14V12.6C17.3 12.0533 17.0965 11.5365 16.8496 11.0496C16.6032 10.5632 16.32 10.0933 16 9.64C15.6533 10.12 15.3533 10.62 15.1 11.14C14.8467 11.66 14.64 12.2133 14.48 12.8H17.46V14.4H14.12C14.08 14.6667 14.0501 14.9301 14.0304 15.1904C14.0101 15.4501 14 15.72 14 16C14 16.28 14.0101 16.5499 14.0304 16.8096C14.0501 17.0699 14.08 17.3333 14.12 17.6H17.88C17.92 17.3333 17.9501 17.0699 17.9704 16.8096C17.9901 16.5499 18 16.28 18 16C18 15.72 17.9901 15.4501 17.9704 15.1904C17.9501 14.9301 17.92 14.6667 17.88 14.4H19.48C19.52 14.6667 19.5499 14.9301 19.5696 15.1904C19.5899 15.4501 19.6 15.72 19.6 16C19.6 16.28 19.5899 16.5499 19.5696 16.8096C19.5499 17.0699 19.52 17.3333 19.48 17.6H22.2C22.2667 17.3333 22.3168 17.0699 22.3504 16.8096C22.3835 16.5499 22.4 16.28 22.4 16C22.4 15.72 22.3835 15.4501 22.3504 15.1904C22.3168 14.9301 22.2667 14.6667 22.2 14.4H23.84C23.8933 14.6667 23.9333 14.9333 23.96 15.2C23.9867 15.4667 24 15.7333 24 16C24 17.0933 23.7899 18.1267 23.3696 19.1C22.9499 20.0733 22.3765 20.9232 21.6496 21.6496C20.9232 22.3765 20.0765 22.9499 19.1096 23.3696C18.1432 23.7899 17.1067 24 16 24ZM9.8 17.6H12.52C12.48 17.3333 12.4499 17.0699 12.4296 16.8096C12.4099 16.5499 12.4 16.28 12.4 16C12.4 15.72 12.4099 15.4501 12.4296 15.1904C12.4499 14.9301 12.48 14.6667 12.52 14.4H9.8C9.73333 14.6667 9.6832 14.9301 9.6496 15.1904C9.61653 15.4501 9.6 15.72 9.6 16C9.6 16.28 9.61653 16.5499 9.6496 16.8096C9.6832 17.0699 9.73333 17.3333 9.8 17.6ZM13.92 22.04C13.68 21.6 13.4701 21.1432 13.2904 20.6696C13.1101 20.1965 12.96 19.7067 12.84 19.2H10.48C10.8667 19.8667 11.3499 20.4467 11.9296 20.94C12.5099 21.4333 13.1733 21.8 13.92 22.04ZM10.48 12.8H12.84C12.96 12.2933 13.1101 11.8032 13.2904 11.3296C13.4701 10.8565 13.68 10.4 13.92 9.96C13.1733 10.2 12.5099 10.5667 11.9296 11.06C11.3499 11.5533 10.8667 12.1333 10.48 12.8ZM16 22.36C16.3467 21.88 16.6467 21.38 16.9 20.86C17.1533 20.34 17.36 19.7867 17.52 19.2H14.48C14.64 19.7867 14.8467 20.34 15.1 20.86C15.3533 21.38 15.6533 21.88 16 22.36ZM18.08 22.04C18.8267 21.8 19.4899 21.4333 20.0696 20.94C20.6499 20.4467 21.1333 19.8667 21.52 19.2H19.16C19.04 19.7067 18.8901 20.1965 18.7104 20.6696C18.5301 21.1432 18.32 21.6 18.08 22.04ZM19.2 12.8V8H24V12.8H19.2ZM21.6 10.4H23.2V8.8H21.6V10.4Z" fill="#0071AF"/>
</g>
</svg>
