<svg width="32" height="32" viewBox="0 0 32 32" fill="none" xmlns="http://www.w3.org/2000/svg">
<circle cx="16" cy="16" r="16" fill="#ADEBFF"/>
<mask id="mask0_139_2253" style="mask-type:alpha" maskUnits="userSpaceOnUse" x="8" y="8" width="24" height="24">
<rect x="8" y="8" width="24" height="24" fill="#D9D9D9"/>
</mask>
<g mask="url(#mask0_139_2253)">
<path d="M11.6 20.4L17.6 17.6L20.4 11.6L14.4 14.4L11.6 20.4ZM16 16.8C15.7733 16.8 15.5835 16.7232 15.4304 16.5696C15.2768 16.4165 15.2 16.2267 15.2 16C15.2 15.7733 15.2768 15.5832 15.4304 15.4296C15.5835 15.2765 15.7733 15.2 16 15.2C16.2267 15.2 16.4168 15.2765 16.5704 15.4296C16.7235 15.5832 16.8 15.7733 16.8 16C16.8 16.2267 16.7235 16.4165 16.5704 16.5696C16.4168 16.7232 16.2267 16.8 16 16.8ZM16 24C14.8933 24 13.8533 23.7899 12.88 23.3696C11.9067 22.9499 11.06 22.38 10.34 21.66C9.62 20.94 9.05013 20.0933 8.6304 19.12C8.21013 18.1467 8 17.1067 8 16C8 14.8933 8.21013 13.8533 8.6304 12.88C9.05013 11.9067 9.62 11.06 10.34 10.34C11.06 9.62 11.9067 9.04987 12.88 8.6296C13.8533 8.20987 14.8933 8 16 8C17.1067 8 18.1467 8.20987 19.12 8.6296C20.0933 9.04987 20.94 9.62 21.66 10.34C22.38 11.06 22.9499 11.9067 23.3696 12.88C23.7899 13.8533 24 14.8933 24 16C24 17.1067 23.7899 18.1467 23.3696 19.12C22.9499 20.0933 22.38 20.94 21.66 21.66C20.94 22.38 20.0933 22.9499 19.12 23.3696C18.1467 23.7899 17.1067 24 16 24ZM16 22.4C17.7867 22.4 19.3 21.78 20.54 20.54C21.78 19.3 22.4 17.7867 22.4 16C22.4 14.2133 21.78 12.7 20.54 11.46C19.3 10.22 17.7867 9.6 16 9.6C14.2133 9.6 12.7 10.22 11.46 11.46C10.22 12.7 9.6 14.2133 9.6 16C9.6 17.7867 10.22 19.3 11.46 20.54C12.7 21.78 14.2133 22.4 16 22.4Z" fill="#0071AF"/>
</g>
</svg>
