<svg width="32" height="32" viewBox="0 0 32 32" fill="none" xmlns="http://www.w3.org/2000/svg">
<circle cx="16" cy="16" r="16" fill="#ADEBFF"/>
<mask id="mask0_139_1879" style="mask-type:alpha" maskUnits="userSpaceOnUse" x="6" y="6" width="20" height="20">
<rect x="6.4" y="6.40002" width="19.2" height="19.2" fill="#D9D9D9"/>
</mask>
<g mask="url(#mask0_139_1879)">
<path d="M8.8 20V18.4H20V20H8.8ZM8.8 16.8V15.2H20V16.8H8.8ZM8.8 13.6V12H20V13.6H8.8ZM22.4 20C22.1733 20 21.9835 19.9232 21.8304 19.7696C21.6768 19.6165 21.6 19.4267 21.6 19.2C21.6 18.9733 21.6768 18.7832 21.8304 18.6296C21.9835 18.4765 22.1733 18.4 22.4 18.4C22.6267 18.4 22.8165 18.4765 22.9696 18.6296C23.1232 18.7832 23.2 18.9733 23.2 19.2C23.2 19.4267 23.1232 19.6165 22.9696 19.7696C22.8165 19.9232 22.6267 20 22.4 20ZM22.4 16.8C22.1733 16.8 21.9835 16.7232 21.8304 16.5696C21.6768 16.4165 21.6 16.2267 21.6 16C21.6 15.7733 21.6768 15.5832 21.8304 15.4296C21.9835 15.2765 22.1733 15.2 22.4 15.2C22.6267 15.2 22.8165 15.2765 22.9696 15.4296C23.1232 15.5832 23.2 15.7733 23.2 16C23.2 16.2267 23.1232 16.4165 22.9696 16.5696C22.8165 16.7232 22.6267 16.8 22.4 16.8ZM22.4 13.6C22.1733 13.6 21.9835 13.5232 21.8304 13.3696C21.6768 13.2165 21.6 13.0267 21.6 12.8C21.6 12.5733 21.6768 12.3832 21.8304 12.2296C21.9835 12.0765 22.1733 12 22.4 12C22.6267 12 22.8165 12.0765 22.9696 12.2296C23.1232 12.3832 23.2 12.5733 23.2 12.8C23.2 13.0267 23.1232 13.2165 22.9696 13.3696C22.8165 13.5232 22.6267 13.6 22.4 13.6Z" fill="#0071AF"/>
</g>
</svg>
