<svg width="54" height="54" viewBox="0 0 54 54" fill="none" xmlns="http://www.w3.org/2000/svg">
<circle cx="27" cy="27" r="27" fill="#ADEBFF"/>
<mask id="mask0_263_1543" style="mask-type:alpha" maskUnits="userSpaceOnUse" x="11" y="11" width="32" height="32">
<rect x="11" y="11" width="32" height="32" fill="#D9D9D9"/>
</mask>
<g mask="url(#mask0_263_1543)">
<path d="M20.3333 35C18.8667 35 17.6111 34.4778 16.5667 33.4333C15.5222 32.3889 15 31.1333 15 29.6667C15 28.2 15.5222 26.9444 16.5667 25.9C17.6111 24.8556 18.8667 24.3333 20.3333 24.3333C21.8 24.3333 23.0556 24.8556 24.1 25.9C25.1444 26.9444 25.6667 28.2 25.6667 29.6667C25.6667 31.1333 25.1444 32.3889 24.1 33.4333C23.0556 34.4778 21.8 35 20.3333 35ZM20.3333 32.3333C21.0667 32.3333 21.6942 32.072 22.216 31.5493C22.7387 31.0276 23 30.4 23 29.6667C23 28.9333 22.7387 28.3053 22.216 27.7827C21.6942 27.2609 21.0667 27 20.3333 27C19.6 27 18.9724 27.2609 18.4507 27.7827C17.928 28.3053 17.6667 28.9333 17.6667 29.6667C17.6667 30.4 17.928 31.0276 18.4507 31.5493C18.9724 32.072 19.6 32.3333 20.3333 32.3333ZM33 29.6667C30.9556 29.6667 29.2222 28.9556 27.8 27.5333C26.3778 26.1111 25.6667 24.3778 25.6667 22.3333C25.6667 20.2889 26.3778 18.5556 27.8 17.1333C29.2222 15.7111 30.9556 15 33 15C35.0444 15 36.7778 15.7111 38.2 17.1333C39.6222 18.5556 40.3333 20.2889 40.3333 22.3333C40.3333 24.3778 39.6222 26.1111 38.2 27.5333C36.7778 28.9556 35.0444 29.6667 33 29.6667ZM30.3333 39C29.2222 39 28.2778 38.6111 27.5 37.8333C26.7222 37.0556 26.3333 36.1111 26.3333 35C26.3333 33.8889 26.7222 32.9444 27.5 32.1667C28.2778 31.3889 29.2222 31 30.3333 31C31.4444 31 32.3889 31.3889 33.1667 32.1667C33.9444 32.9444 34.3333 33.8889 34.3333 35C34.3333 36.1111 33.9444 37.0556 33.1667 37.8333C32.3889 38.6111 31.4444 39 30.3333 39ZM33 27C34.3111 27 35.4169 26.5502 36.3173 25.6507C37.2169 24.7502 37.6667 23.6444 37.6667 22.3333C37.6667 21.0222 37.2169 19.9164 36.3173 19.016C35.4169 18.1164 34.3111 17.6667 33 17.6667C31.6889 17.6667 30.5831 18.1164 29.6827 19.016C28.7831 19.9164 28.3333 21.0222 28.3333 22.3333C28.3333 23.6444 28.7831 24.7502 29.6827 25.6507C30.5831 26.5502 31.6889 27 33 27ZM30.3333 36.3333C30.7111 36.3333 31.028 36.2053 31.284 35.9493C31.5391 35.6942 31.6667 35.3778 31.6667 35C31.6667 34.6222 31.5391 34.3058 31.284 34.0507C31.028 33.7947 30.7111 33.6667 30.3333 33.6667C29.9556 33.6667 29.6391 33.7947 29.384 34.0507C29.128 34.3058 29 34.6222 29 35C29 35.3778 29.128 35.6942 29.384 35.9493C29.6391 36.2053 29.9556 36.3333 30.3333 36.3333Z" fill="#0071AF"/>
</g>
</svg>
