<svg width="32" height="32" viewBox="0 0 32 32" fill="none" xmlns="http://www.w3.org/2000/svg">
<circle cx="16" cy="16" r="16" fill="#ADEBFF"/>
<mask id="mask0_139_1872" style="mask-type:alpha" maskUnits="userSpaceOnUse" x="6" y="6" width="20" height="20">
<rect x="6.4" y="6.40002" width="19.2" height="19.2" fill="#D9D9D9"/>
</mask>
<g mask="url(#mask0_139_1872)">
<path d="M13.6 18.0001V16.8001H18.4V18.0001H13.6ZM12.8 15.6001V14.4001H19.2V15.6001H12.8ZM12 24.8001C11.56 24.8001 11.1835 24.6435 10.8704 24.3305C10.5568 24.0169 10.4 23.6401 10.4 23.2001V8.80007C10.4 8.36007 10.5568 7.98327 10.8704 7.66967C11.1835 7.35661 11.56 7.20007 12 7.20007H20C20.44 7.20007 20.8168 7.35661 21.1304 7.66967C21.4435 7.98327 21.6 8.36007 21.6 8.80007V23.2001C21.6 23.6401 21.4435 24.0169 21.1304 24.3305C20.8168 24.6435 20.44 24.8001 20 24.8001H12ZM12 22.4001V23.2001H20V22.4001H12ZM12 20.8001H20V11.2001H12V20.8001ZM12 9.60007H20V8.80007H12V9.60007Z" fill="#0071AF"/>
</g>
</svg>
