<svg width="32" height="32" viewBox="0 0 32 32" fill="none" xmlns="http://www.w3.org/2000/svg">
<circle cx="16" cy="16" r="16" fill="#ADEBFF"/>
<mask id="mask0_139_2135" style="mask-type:alpha" maskUnits="userSpaceOnUse" x="6" y="6" width="20" height="20">
<rect x="6.39999" y="6.3999" width="19.2" height="19.2" fill="#D9D9D9"/>
</mask>
<g mask="url(#mask0_139_2135)">
<path d="M11.2 22.3999C10.76 22.3999 10.3835 22.2433 10.0704 21.9303C9.75681 21.6167 9.60001 21.2399 9.60001 20.7999C9.60001 20.3599 9.75681 19.9831 10.0704 19.6695C10.3835 19.3564 10.76 19.1999 11.2 19.1999C11.64 19.1999 12.0165 19.3564 12.3296 19.6695C12.6432 19.9831 12.8 20.3599 12.8 20.7999C12.8 21.2399 12.6432 21.6167 12.3296 21.9303C12.0165 22.2433 11.64 22.3999 11.2 22.3999ZM17.6 22.3999C17.16 22.3999 16.7835 22.2433 16.4704 21.9303C16.1568 21.6167 16 21.2399 16 20.7999C16 20.3599 16.1568 19.9831 16.4704 19.6695C16.7835 19.3564 17.16 19.1999 17.6 19.1999C18.04 19.1999 18.4168 19.3564 18.7304 19.6695C19.0435 19.9831 19.2 20.3599 19.2 20.7999C19.2 21.2399 19.0435 21.6167 18.7304 21.9303C18.4168 22.2433 18.04 22.3999 17.6 22.3999ZM14.4 19.1999C13.96 19.1999 13.5835 19.0431 13.2704 18.7295C12.9568 18.4164 12.8 18.0399 12.8 17.5999C12.8 17.1599 12.9568 16.7831 13.2704 16.4695C13.5835 16.1564 13.96 15.9999 14.4 15.9999C14.84 15.9999 15.2168 16.1564 15.5304 16.4695C15.8435 16.7831 16 17.1599 16 17.5999C16 18.0399 15.8435 18.4164 15.5304 18.7295C15.2168 19.0431 14.84 19.1999 14.4 19.1999ZM20.8 19.1999C20.36 19.1999 19.9832 19.0431 19.6696 18.7295C19.3565 18.4164 19.2 18.0399 19.2 17.5999C19.2 17.1599 19.3565 16.7831 19.6696 16.4695C19.9832 16.1564 20.36 15.9999 20.8 15.9999C21.24 15.9999 21.6168 16.1564 21.9304 16.4695C22.2435 16.7831 22.4 17.1599 22.4 17.5999C22.4 18.0399 22.2435 18.4164 21.9304 18.7295C21.6168 19.0431 21.24 19.1999 20.8 19.1999ZM11.2 15.9999C10.76 15.9999 10.3835 15.8431 10.0704 15.5295C9.75681 15.2164 9.60001 14.8399 9.60001 14.3999C9.60001 13.9599 9.75681 13.5831 10.0704 13.2695C10.3835 12.9564 10.76 12.7999 11.2 12.7999C11.64 12.7999 12.0165 12.9564 12.3296 13.2695C12.6432 13.5831 12.8 13.9599 12.8 14.3999C12.8 14.8399 12.6432 15.2164 12.3296 15.5295C12.0165 15.8431 11.64 15.9999 11.2 15.9999ZM17.6 15.9999C17.16 15.9999 16.7835 15.8431 16.4704 15.5295C16.1568 15.2164 16 14.8399 16 14.3999C16 13.9599 16.1568 13.5831 16.4704 13.2695C16.7835 12.9564 17.16 12.7999 17.6 12.7999C18.04 12.7999 18.4168 12.9564 18.7304 13.2695C19.0435 13.5831 19.2 13.9599 19.2 14.3999C19.2 14.8399 19.0435 15.2164 18.7304 15.5295C18.4168 15.8431 18.04 15.9999 17.6 15.9999ZM14.4 12.7999C13.96 12.7999 13.5835 12.6431 13.2704 12.3295C12.9568 12.0164 12.8 11.6399 12.8 11.1999C12.8 10.7599 12.9568 10.3833 13.2704 10.0703C13.5835 9.75665 13.96 9.59985 14.4 9.59985C14.84 9.59985 15.2168 9.75665 15.5304 10.0703C15.8435 10.3833 16 10.7599 16 11.1999C16 11.6399 15.8435 12.0164 15.5304 12.3295C15.2168 12.6431 14.84 12.7999 14.4 12.7999ZM20.8 12.7999C20.36 12.7999 19.9832 12.6431 19.6696 12.3295C19.3565 12.0164 19.2 11.6399 19.2 11.1999C19.2 10.7599 19.3565 10.3833 19.6696 10.0703C19.9832 9.75665 20.36 9.59985 20.8 9.59985C21.24 9.59985 21.6168 9.75665 21.9304 10.0703C22.2435 10.3833 22.4 10.7599 22.4 11.1999C22.4 11.6399 22.2435 12.0164 21.9304 12.3295C21.6168 12.6431 21.24 12.7999 20.8 12.7999Z" fill="#0071AF"/>
</g>
</svg>
