<svg width="32" height="32" viewBox="0 0 32 32" fill="none" xmlns="http://www.w3.org/2000/svg">
<circle cx="16" cy="16" r="16" fill="#ADEBFF"/>
<mask id="mask0_139_2277" style="mask-type:alpha" maskUnits="userSpaceOnUse" x="6" y="6" width="20" height="20">
<rect x="6.39999" y="6.40002" width="19.2" height="19.2" fill="#D9D9D9"/>
</mask>
<g mask="url(#mask0_139_2277)">
<path d="M8 25.6V22.4H24V25.6H8ZM9.6 20.8V17.8L16.84 10.56L19.84 13.56L12.6 20.8H9.6ZM11.2 19.2H11.92L17.6 13.56L16.84 12.8L11.2 18.48V19.2ZM20.74 12.68L17.74 9.68005L19.18 8.24005C19.3267 8.08005 19.5133 8.00325 19.74 8.00965C19.9667 8.01658 20.1533 8.09338 20.3 8.24005L22.18 10.12C22.3267 10.2667 22.4 10.4502 22.4 10.6704C22.4 10.8902 22.3267 11.08 22.18 11.24L20.74 12.68Z" fill="#0071AF"/>
</g>
</svg>
