<svg width="54" height="54" viewBox="0 0 54 54" fill="none" xmlns="http://www.w3.org/2000/svg">
<circle cx="27" cy="27" r="27" fill="#ADEBFF"/>
<path d="M36.3333 12.3335H17.6667C16.2 12.3335 15.0133 13.5335 15.0133 15.0002L15 32.2402C15 33.1602 15.4667 33.9735 16.1733 34.4535L27 41.6668L37.8133 34.4535C38.52 33.9735 38.9867 33.1602 38.9867 32.2402L39 15.0002C39 13.5335 37.8 12.3335 36.3333 12.3335ZM27 38.4668L17.6667 32.2535V15.0002H36.3333V32.2402L27 38.4668ZM24.32 28.5735L20.88 25.1202L19 27.0002L24.3333 32.3335L35 21.6668L33.1067 19.7735L24.32 28.5735Z" fill="#0071AF"/>
</svg>
