<svg width="54" height="54" viewBox="0 0 54 54" fill="none" xmlns="http://www.w3.org/2000/svg">
<circle cx="27" cy="27" r="27" fill="#ADEBFF"/>
<path d="M12.88 13.2533L11 15.1333L13.6667 17.8V39H34.8667L38.8667 43L40.7467 41.12L12.88 13.2533ZM19 36.3333H16.3333V33.6667H19V36.3333ZM19 31H16.3333V28.3333H19V31ZM16.3333 25.6667V23H19V25.6667H16.3333ZM24.3333 36.3333H21.6667V33.6667H24.3333V36.3333ZM21.6667 31V28.3333H24.3333V31H21.6667ZM27 36.3333V33.6667H29.5333L32.2 36.3333H27ZM21.6667 17.6667H24.3333V20.3333H23.7333L27 23.6V23H37.6667V34.2667L40.3333 36.9333V20.3333H27V15H18.4L21.6667 18.2667V17.6667ZM32.3333 25.6667H35V28.3333H32.3333V25.6667Z" fill="#0068AF"/>
</svg>
