<svg width="32" height="32" viewBox="0 0 32 32" fill="none" xmlns="http://www.w3.org/2000/svg">
<circle cx="16" cy="16" r="16" fill="#ADEBFF"/>
<mask id="mask0_139_2018" style="mask-type:alpha" maskUnits="userSpaceOnUse" x="6" y="6" width="20" height="20">
<rect x="6.40002" y="6.40002" width="19.2" height="19.2" fill="#D9D9D9"/>
</mask>
<g mask="url(#mask0_139_2018)">
<path d="M14.08 18.8801L15.2 17.7201L13.48 16.0001L15.2 14.2801L14.08 13.1201L11.2 16.0001L14.08 18.8801ZM17.92 18.8801L20.8 16.0001L17.92 13.1201L16.8 14.2801L18.52 16.0001L16.8 17.7201L17.92 18.8801ZM10.4 23.2001C9.96005 23.2001 9.58325 23.0435 9.26965 22.7305C8.95658 22.4169 8.80005 22.0401 8.80005 21.6001V10.4001C8.80005 9.96007 8.95658 9.58327 9.26965 9.26967C9.58325 8.95661 9.96005 8.80007 10.4 8.80007H13.76C13.9334 8.32007 14.2235 7.93341 14.6304 7.64007C15.0368 7.34674 15.4934 7.20007 16 7.20007C16.5067 7.20007 16.9635 7.34674 17.3704 7.64007C17.7768 7.93341 18.0667 8.32007 18.24 8.80007H21.6C22.04 8.80007 22.4168 8.95661 22.7304 9.26967C23.0435 9.58327 23.2 9.96007 23.2 10.4001V21.6001C23.2 22.0401 23.0435 22.4169 22.7304 22.7305C22.4168 23.0435 22.04 23.2001 21.6 23.2001H10.4ZM10.4 21.6001H21.6V10.4001H10.4V21.6001ZM16 9.80007C16.1734 9.80007 16.3168 9.74327 16.4304 9.62967C16.5435 9.51661 16.6 9.37341 16.6 9.20007C16.6 9.02674 16.5435 8.88327 16.4304 8.76967C16.3168 8.65661 16.1734 8.60007 16 8.60007C15.8267 8.60007 15.6835 8.65661 15.5704 8.76967C15.4568 8.88327 15.4 9.02674 15.4 9.20007C15.4 9.37341 15.4568 9.51661 15.5704 9.62967C15.6835 9.74327 15.8267 9.80007 16 9.80007Z" fill="#0071AF"/>
</g>
</svg>
