<svg width="32" height="32" viewBox="0 0 32 32" fill="none" xmlns="http://www.w3.org/2000/svg">
<circle cx="16" cy="16" r="16" fill="#ADEBFF"/>
<mask id="mask0_139_2107" style="mask-type:alpha" maskUnits="userSpaceOnUse" x="6" y="6" width="20" height="20">
<rect x="6.39999" y="6.3999" width="19.2" height="19.2" fill="#D9D9D9"/>
</mask>
<g mask="url(#mask0_139_2107)">
<path d="M16 23.1998C14.16 23.1998 12.5568 22.5897 11.1904 21.3694C9.82345 20.1497 9.03999 18.6265 8.83999 16.7998H10.48C10.6667 18.1865 11.2832 19.3331 12.3296 20.2398C13.3765 21.1465 14.6 21.5998 16 21.5998C17.56 21.5998 18.8832 21.0563 19.9696 19.9694C21.0565 18.883 21.6 17.5598 21.6 15.9998C21.6 14.4398 21.0565 13.1163 19.9696 12.0294C18.8832 10.943 17.56 10.3998 16 10.3998C15.08 10.3998 14.22 10.6131 13.42 11.0398C12.62 11.4665 11.9467 12.0531 11.4 12.7998H13.6V14.3998H8.79999V9.5998H10.4V11.4798C11.08 10.6265 11.9101 9.96647 12.8904 9.4998C13.8701 9.03314 14.9067 8.7998 16 8.7998C17 8.7998 17.9368 8.98967 18.8104 9.3694C19.6835 9.74967 20.4435 10.263 21.0904 10.9094C21.7368 11.5563 22.2501 12.3163 22.6304 13.1894C23.0101 14.063 23.2 14.9998 23.2 15.9998C23.2 16.9998 23.0101 17.9363 22.6304 18.8094C22.2501 19.683 21.7368 20.443 21.0904 21.0894C20.4435 21.7363 19.6835 22.2499 18.8104 22.6302C17.9368 23.0099 17 23.1998 16 23.1998ZM18.24 19.3598L15.2 16.3198V11.9998H16.8V15.6798L19.36 18.2398L18.24 19.3598Z" fill="#0071AF"/>
</g>
</svg>
