<svg width="24" height="24" viewBox="0 0 24 24" fill="none" xmlns="http://www.w3.org/2000/svg">
<circle opacity="0.4" cx="12.0001" cy="12" r="12" fill="#33CCFF"/>
<path d="M11.5001 4C7.36006 4 4.00006 7.36 4.00006 11.5C4.00006 15.64 7.36006 19 11.5001 19H17.5001C18.3251 19 19.0001 18.325 19.0001 17.5V11.5C19.0001 7.36 15.6401 4 11.5001 4ZM11.5001 17.5C9.33256 17.5 7.42756 16.345 6.37756 14.62L8.59006 12.4075L11.0576 14.5L14.5001 11.065V12.25H16.0001V8.5H12.2501V10H13.4351L10.9751 12.46L8.50006 10.375L5.73256 13.15C5.58256 12.625 5.50006 12.07 5.50006 11.5C5.50006 8.1925 8.19256 5.5 11.5001 5.5C14.8076 5.5 17.5001 8.1925 17.5001 11.5C17.5001 14.8075 14.8076 17.5 11.5001 17.5ZM17.1251 17.875C16.7126 17.875 16.3751 17.5375 16.3751 17.125C16.3751 16.7125 16.7126 16.375 17.1251 16.375C17.5376 16.375 17.8751 16.7125 17.8751 17.125C17.8751 17.5375 17.5376 17.875 17.1251 17.875Z" fill="#0071AF"/>
</svg>
