<svg width="32" height="32" viewBox="0 0 32 32" fill="none" xmlns="http://www.w3.org/2000/svg">
<circle cx="16" cy="16" r="16" fill="#ADEBFF"/>
<mask id="mask0_139_2038" style="mask-type:alpha" maskUnits="userSpaceOnUse" x="6" y="6" width="20" height="20">
<rect x="6.40002" y="6.40002" width="19.2" height="19.2" fill="#D9D9D9"/>
</mask>
<g mask="url(#mask0_139_2038)">
<path d="M8.00007 21.6V20H24.0001V21.6H8.00007ZM8.92007 16.76L7.88007 16.16L8.56007 14.96H7.20007V13.76H8.56007L7.88007 12.6L8.92007 12L9.60007 13.16L10.2801 12L11.3201 12.6L10.6401 13.76H12.0001V14.96H10.6401L11.3201 16.16L10.2801 16.76L9.60007 15.56L8.92007 16.76ZM15.3201 16.76L14.2801 16.16L14.9601 14.96H13.6001V13.76H14.9601L14.2801 12.6L15.3201 12L16.0001 13.16L16.6801 12L17.7201 12.6L17.0401 13.76H18.4001V14.96H17.0401L17.7201 16.16L16.6801 16.76L16.0001 15.56L15.3201 16.76ZM21.7201 16.76L20.6801 16.16L21.3601 14.96H20.0001V13.76H21.3601L20.6801 12.6L21.7201 12L22.4001 13.16L23.0801 12L24.1201 12.6L23.4401 13.76H24.8001V14.96H23.4401L24.1201 16.16L23.0801 16.76L22.4001 15.56L21.7201 16.76Z" fill="#0071AF"/>
</g>
</svg>
