<svg width="32" height="32" viewBox="0 0 32 32" fill="none" xmlns="http://www.w3.org/2000/svg">
<circle cx="16" cy="16" r="16" fill="#ADEBFF"/>
<mask id="mask0_139_1893" style="mask-type:alpha" maskUnits="userSpaceOnUse" x="6" y="6" width="20" height="20">
<rect x="6.4" y="6.40002" width="19.2" height="19.2" fill="#D9D9D9"/>
</mask>
<g mask="url(#mask0_139_1893)">
<path d="M22.08 23.2L17.04 18.16C16.64 18.48 16.18 18.7334 15.66 18.92C15.14 19.1067 14.5867 19.2 14 19.2C12.5467 19.2 11.3168 18.6968 10.3104 17.6904C9.30347 16.6835 8.8 15.4534 8.8 14C8.8 12.5467 9.30347 11.3166 10.3104 10.3096C11.3168 9.30325 12.5467 8.80005 14 8.80005C15.4533 8.80005 16.6835 9.30325 17.6904 10.3096C18.6968 11.3166 19.2 12.5467 19.2 14C19.2 14.5867 19.1067 15.14 18.92 15.66C18.7333 16.18 18.48 16.64 18.16 17.04L23.2 22.08L22.08 23.2ZM14 17.6C15 17.6 15.8501 17.2502 16.5504 16.5504C17.2501 15.8502 17.6 15 17.6 14C17.6 13 17.2501 12.1499 16.5504 11.4496C15.8501 10.7499 15 10.4 14 10.4C13 10.4 12.1499 10.7499 11.4496 11.4496C10.7499 12.1499 10.4 13 10.4 14C10.4 15 10.7499 15.8502 11.4496 16.5504C12.1499 17.2502 13 17.6 14 17.6Z" fill="#0071AF"/>
</g>
</svg>
