<svg width="32" height="32" viewBox="0 0 32 32" fill="none" xmlns="http://www.w3.org/2000/svg">
<circle cx="16" cy="16" r="16" fill="#ADEBFF"/>
<mask id="mask0_139_2028" style="mask-type:alpha" maskUnits="userSpaceOnUse" x="6" y="6" width="20" height="20">
<rect x="6.40002" y="6.40002" width="19.2" height="19.2" fill="#D9D9D9"/>
</mask>
<g mask="url(#mask0_139_2028)">
<path d="M20 20C20.3333 20 20.6165 19.8832 20.8496 19.6496C21.0832 19.4165 21.2 19.1333 21.2 18.8C21.2 18.4667 21.0832 18.1835 20.8496 17.9504C20.6165 17.7168 20.3333 17.6 20 17.6C19.6666 17.6 19.3834 17.7168 19.1504 17.9504C18.9168 18.1835 18.8 18.4667 18.8 18.8C18.8 19.1333 18.9168 19.4165 19.1504 19.6496C19.3834 19.8832 19.6666 20 20 20ZM20 22.4C20.4133 22.4 20.7933 22.3032 21.14 22.1096C21.4866 21.9165 21.7666 21.66 21.98 21.34C21.6866 21.1667 21.3733 21.0333 21.04 20.94C20.7066 20.8467 20.36 20.8 20 20.8C19.64 20.8 19.2933 20.8467 18.96 20.94C18.6266 21.0333 18.3133 21.1667 18.02 21.34C18.2333 21.66 18.5133 21.9165 18.86 22.1096C19.2066 22.3032 19.5866 22.4 20 22.4ZM16 24C14.1466 23.5333 12.6168 22.4699 11.4104 20.8096C10.2034 19.1499 9.59998 17.3067 9.59998 15.28V10.4L16 8L22.4 10.4V14.94C22.1466 14.8333 21.8866 14.7365 21.62 14.6496C21.3533 14.5632 21.08 14.5 20.8 14.46V11.52L16 9.72L11.2 11.52V15.28C11.2 15.9067 11.2832 16.5333 11.4496 17.16C11.6165 17.7867 11.8501 18.3835 12.1504 18.9504C12.4501 19.5168 12.8133 20.04 13.24 20.52C13.6666 21 14.14 21.4 14.66 21.72C14.8066 22.1467 15 22.5533 15.24 22.94C15.48 23.3267 15.7533 23.6733 16.06 23.98C16.0466 23.98 16.0368 23.9835 16.0304 23.9904C16.0234 23.9968 16.0133 24 16 24ZM20 24C18.8933 24 17.9501 23.6101 17.1704 22.8304C16.3901 22.0501 16 21.1067 16 20C16 18.8933 16.3901 17.9499 17.1704 17.1696C17.9501 16.3899 18.8933 16 20 16C21.1066 16 22.0501 16.3899 22.8304 17.1696C23.6101 17.9499 24 18.8933 24 20C24 21.1067 23.6101 22.0501 22.8304 22.8304C22.0501 23.6101 21.1066 24 20 24Z" fill="#0071AF"/>
</g>
</svg>
