<svg width="24" height="24" viewBox="0 0 24 24" fill="none" xmlns="http://www.w3.org/2000/svg">
<circle opacity="0.4" cx="12.0001" cy="12" r="12" fill="#33CCFF"/>
<path d="M12.0001 4.5C7.86006 4.5 4.50006 7.86 4.50006 12C4.50006 16.14 7.86006 19.5 12.0001 19.5C16.1401 19.5 19.5001 16.14 19.5001 12C19.5001 7.86 16.1401 4.5 12.0001 4.5ZM17.5951 9.84L15.5101 10.7025C15.1276 9.6825 14.3251 8.8725 13.2976 8.4975L14.1601 6.4125C15.7351 7.0125 16.9876 8.265 17.5951 9.84ZM12.0001 14.25C10.7551 14.25 9.75006 13.245 9.75006 12C9.75006 10.755 10.7551 9.75 12.0001 9.75C13.2451 9.75 14.2501 10.755 14.2501 12C14.2501 13.245 13.2451 14.25 12.0001 14.25ZM9.84756 6.405L10.7251 8.49C9.69006 8.865 8.87256 9.6825 8.49006 10.7175L6.40506 9.8475C7.01256 8.265 8.26506 7.0125 9.84756 6.405ZM6.40506 14.1525L8.49006 13.29C8.87256 14.325 9.68256 15.135 10.7176 15.51L9.84006 17.595C8.26506 16.9875 7.01256 15.735 6.40506 14.1525ZM14.1601 17.595L13.2976 15.51C14.3251 15.1275 15.1351 14.3175 15.5101 13.2825L17.5951 14.16C16.9876 15.735 15.7351 16.9875 14.1601 17.595Z" fill="#0071AF"/>
</svg>
