<svg width="28" height="28" viewBox="0 0 28 28" fill="none" xmlns="http://www.w3.org/2000/svg">
<path d="M16.5198 9.60002L13.9998 12.12L11.4798 9.60002C10.9598 9.08002 10.1198 9.08002 9.59984 9.60002C9.07984 10.12 9.07984 10.96 9.59984 11.48L12.1198 14L9.59984 16.52C9.07984 17.04 9.07984 17.88 9.59984 18.4C10.1198 18.92 10.9598 18.92 11.4798 18.4L13.9998 15.88L16.5198 18.4C17.0398 18.92 17.8798 18.92 18.3998 18.4C18.9198 17.88 18.9198 17.04 18.3998 16.52L15.8798 14L18.3998 11.48C18.9198 10.96 18.9198 10.12 18.3998 9.60002C17.8798 9.09335 17.0265 9.09335 16.5198 9.60002ZM13.9998 0.666687C6.6265 0.666687 0.666504 6.62669 0.666504 14C0.666504 21.3734 6.6265 27.3334 13.9998 27.3334C21.3732 27.3334 27.3332 21.3734 27.3332 14C27.3332 6.62669 21.3732 0.666687 13.9998 0.666687ZM13.9998 24.6667C8.11984 24.6667 3.33317 19.88 3.33317 14C3.33317 8.12002 8.11984 3.33335 13.9998 3.33335C19.8798 3.33335 24.6665 8.12002 24.6665 14C24.6665 19.88 19.8798 24.6667 13.9998 24.6667Z" fill="#EF5B5B"/>
</svg>
