<svg width="32" height="32" viewBox="0 0 32 32" fill="none" xmlns="http://www.w3.org/2000/svg">
<circle cx="16" cy="16" r="16" fill="#ADEBFF"/>
<mask id="mask0_139_2043" style="mask-type:alpha" maskUnits="userSpaceOnUse" x="6" y="6" width="20" height="20">
<rect x="6.40002" y="6.40002" width="19.2" height="19.2" fill="#D9D9D9"/>
</mask>
<g mask="url(#mask0_139_2043)">
<path d="M13.6 12.8001H18.4V11.2001C18.4 10.5334 18.1666 9.96674 17.7 9.50007C17.2333 9.03341 16.6666 8.80007 16 8.80007C15.3333 8.80007 14.7666 9.03341 14.3 9.50007C13.8333 9.96674 13.6 10.5334 13.6 11.2001V12.8001ZM16.2 24.0001H11.2C10.76 24.0001 10.3834 23.8435 10.0704 23.5305C9.75678 23.2169 9.59998 22.8401 9.59998 22.4001V14.4001C9.59998 13.9601 9.75678 13.5833 10.0704 13.2697C10.3834 12.9566 10.76 12.8001 11.2 12.8001H12V11.2001C12 10.0934 12.3901 9.14994 13.1704 8.36967C13.9501 7.58994 14.8933 7.20007 16 7.20007C17.1066 7.20007 18.0501 7.58994 18.8304 8.36967C19.6101 9.14994 20 10.0934 20 11.2001V12.8001H20.8C21.24 12.8001 21.6168 12.9566 21.9304 13.2697C22.2434 13.5833 22.4 13.9601 22.4 14.4001V15.4401C22.16 15.3601 21.9098 15.3001 21.6496 15.2601C21.3898 15.2201 21.1066 15.2001 20.8 15.2001V14.4001H11.2V22.4001H15.44C15.5466 22.7201 15.6533 22.9969 15.76 23.2305C15.8666 23.4635 16.0133 23.7201 16.2 24.0001ZM20.8 24.8001C19.6933 24.8001 18.7501 24.4102 17.9704 23.6305C17.1901 22.8502 16.8 21.9067 16.8 20.8001C16.8 19.6934 17.1901 18.7499 17.9704 17.9697C18.7501 17.1899 19.6933 16.8001 20.8 16.8001C21.9066 16.8001 22.8501 17.1899 23.6304 17.9697C24.4101 18.7499 24.8 19.6934 24.8 20.8001C24.8 21.9067 24.4101 22.8502 23.6304 23.6305C22.8501 24.4102 21.9066 24.8001 20.8 24.8001ZM22.12 22.6801L22.68 22.1201L21.2 20.6401V18.4001H20.4V20.9601L22.12 22.6801Z" fill="#0071AF"/>
</g>
</svg>
