<svg width="32" height="32" viewBox="0 0 32 32" fill="none" xmlns="http://www.w3.org/2000/svg">
<circle cx="16" cy="16" r="16" fill="#ADEBFF"/>
<mask id="mask0_139_2079" style="mask-type:alpha" maskUnits="userSpaceOnUse" x="6" y="6" width="20" height="20">
<rect x="6.3999" y="6.40002" width="19.2" height="19.2" fill="#D9D9D9"/>
</mask>
<g mask="url(#mask0_139_2079)">
<path d="M10.5198 21.4801C9.97314 20.8401 9.54967 20.1233 9.2494 19.3297C8.94967 18.5366 8.7998 17.6934 8.7998 16.8001C8.7998 14.8001 9.4998 13.1001 10.8998 11.7001C12.2998 10.3001 13.9998 9.60007 15.9998 9.60007H16.1598L14.8798 8.32007L15.9998 7.20007L19.1998 10.4001L15.9998 13.6001L14.8598 12.4601L16.1198 11.2001H15.9998C14.4531 11.2001 13.1331 11.7467 12.0398 12.8401C10.9465 13.9334 10.3998 15.2534 10.3998 16.8001C10.3998 17.4801 10.5097 18.1201 10.7294 18.7201C10.9497 19.3201 11.2598 19.8601 11.6598 20.3401L10.5198 21.4801ZM15.1998 21.2001C15.1998 20.8934 15.0966 20.5902 14.8902 20.2905C14.6833 19.9902 14.4531 19.6769 14.1998 19.3505C13.9465 19.0235 13.7163 18.6833 13.5094 18.3297C13.303 17.9766 13.1998 17.6001 13.1998 17.2001C13.1998 16.4267 13.4731 15.7667 14.0198 15.2201C14.5665 14.6734 15.2265 14.4001 15.9998 14.4001C16.7731 14.4001 17.4331 14.6734 17.9798 15.2201C18.5265 15.7667 18.7998 16.4267 18.7998 17.2001C18.7998 17.6001 18.6966 17.9766 18.4902 18.3297C18.2833 18.6833 18.0531 19.0235 17.7998 19.3505C17.5465 19.6769 17.3163 19.9902 17.1094 20.2905C16.903 20.5902 16.7998 20.8934 16.7998 21.2001H15.1998ZM15.1998 23.2001V22.0001H16.7998V23.2001H15.1998ZM21.4798 21.4801L20.3398 20.3401C20.7398 19.8601 21.0497 19.3201 21.2694 18.7201C21.4897 18.1201 21.5998 17.4801 21.5998 16.8001C21.5998 15.9201 21.4163 15.1035 21.0494 14.3505C20.683 13.5969 20.1798 12.9667 19.5398 12.4601L20.6798 11.3201C21.4531 11.9867 22.0665 12.7899 22.5198 13.7297C22.9731 14.6699 23.1998 15.6934 23.1998 16.8001C23.1998 17.6934 23.0499 18.5366 22.7502 19.3297C22.4499 20.1233 22.0265 20.8401 21.4798 21.4801Z" fill="#0071AF"/>
</g>
</svg>
