<svg width="54" height="54" viewBox="0 0 54 54" fill="none" xmlns="http://www.w3.org/2000/svg">
<circle cx="27" cy="27" r="27" fill="#ADEBFF"/>
<mask id="mask0_263_1484" style="mask-type:alpha" maskUnits="userSpaceOnUse" x="11" y="11" width="32" height="32">
<rect x="11" y="11" width="32" height="32" fill="#D9D9D9"/>
</mask>
<g mask="url(#mask0_263_1484)">
<path d="M16.3333 16.3333L19 21.6666H23L20.3333 16.3333H23L25.6667 21.6666H29.6667L27 16.3333H29.6667L32.3333 21.6666H36.3333L33.6667 16.3333H37.6667C38.4 16.3333 39.028 16.5946 39.5507 17.1173C40.0724 17.639 40.3333 18.2666 40.3333 18.9999V34.9999C40.3333 35.7333 40.0724 36.3613 39.5507 36.8839C39.028 37.4057 38.4 37.6666 37.6667 37.6666H16.3333C15.6 37.6666 14.9724 37.4057 14.4507 36.8839C13.928 36.3613 13.6667 35.7333 13.6667 34.9999V18.9999C13.6667 18.2666 13.928 17.639 14.4507 17.1173C14.9724 16.5946 15.6 16.3333 16.3333 16.3333ZM16.3333 24.3333V34.9999H37.6667V24.3333H16.3333Z" fill="#0071AF"/>
</g>
</svg>
