<svg width="32" height="32" viewBox="0 0 32 32" fill="none" xmlns="http://www.w3.org/2000/svg">
<circle cx="16" cy="16" r="16" fill="#ADEBFF"/>
<mask id="mask0_139_1837" style="mask-type:alpha" maskUnits="userSpaceOnUse" x="6" y="6" width="20" height="20">
<rect x="6.39999" y="6.40002" width="19.2" height="19.2" fill="#D9D9D9"/>
</mask>
<g mask="url(#mask0_139_1837)">
<path d="M15.2 24C14.76 24 14.3835 23.8435 14.0704 23.5304C13.7568 23.2168 13.6 22.84 13.6 22.4V19.2H11.2C10.76 19.2 10.3835 19.0432 10.0704 18.7296C9.75681 18.4166 9.60001 18.04 9.60001 17.6V12C9.60001 11.12 9.91334 10.3667 10.54 9.74005C11.1667 9.11338 11.92 8.80005 12.8 8.80005H22.4V17.6C22.4 18.04 22.2435 18.4166 21.9304 18.7296C21.6168 19.0432 21.24 19.2 20.8 19.2H18.4V22.4C18.4 22.84 18.2435 23.2168 17.9304 23.5304C17.6168 23.8435 17.24 24 16.8 24H15.2ZM11.2 14.4H20.8V10.4H20V13.6H18.4V10.4H17.6V12H16V10.4H12.8C12.36 10.4 11.9835 10.5568 11.6704 10.8704C11.3568 11.1835 11.2 11.56 11.2 12V14.4ZM11.2 17.6H20.8V16H11.2V17.6Z" fill="#0071AF"/>
</g>
</svg>
