<svg width="54" height="54" viewBox="0 0 54 54" fill="none" xmlns="http://www.w3.org/2000/svg">
<circle cx="27" cy="27" r="27" fill="#ADEBFF"/>
<mask id="mask0_263_1388" style="mask-type:alpha" maskUnits="userSpaceOnUse" x="11" y="11" width="32" height="32">
<rect x="11" y="11" width="32" height="32" fill="#D9D9D9"/>
</mask>
<g mask="url(#mask0_263_1388)">
<path d="M16.3333 36.3334V33.6667H19V24.3334C19 22.489 19.5556 20.8499 20.6667 19.4161C21.7778 17.9832 23.2222 17.0445 25 16.6001V15.6667C25 15.1112 25.1947 14.6392 25.584 14.2507C25.9725 13.8614 26.4445 13.6667 27 13.6667C27.5556 13.6667 28.0276 13.8614 28.416 14.2507C28.8053 14.6392 29 15.1112 29 15.6667V16.6001C30.7778 17.0445 32.2222 17.9832 33.3333 19.4161C34.4445 20.8499 35 22.489 35 24.3334V33.6667H37.6667V36.3334H16.3333ZM27 40.3334C26.2667 40.3334 25.6391 40.0725 25.1173 39.5507C24.5947 39.0281 24.3333 38.4001 24.3333 37.6667H29.6667C29.6667 38.4001 29.4058 39.0281 28.884 39.5507C28.3613 40.0725 27.7333 40.3334 27 40.3334ZM21.6667 33.6667H32.3333V24.3334C32.3333 22.8667 31.8111 21.6112 30.7667 20.5667C29.7222 19.5223 28.4667 19.0001 27 19.0001C25.5333 19.0001 24.2778 19.5223 23.2333 20.5667C22.1889 21.6112 21.6667 22.8667 21.6667 24.3334V33.6667Z" fill="#0071AF"/>
</g>
</svg>
