<svg fill="none" height="54" width="54" xmlns="http://www.w3.org/2000/svg"><circle cx="27" cy="27" fill="#adebff" r="27"/><path d="m26.662 25.144c-3.83-.996-5.062-2.025-5.062-3.628 0-1.84 1.704-3.122 4.556-3.122 3.004 0 4.117 1.434 4.219 3.544h3.73c-.119-2.903-1.89-5.57-5.418-6.43v-3.695h-5.062v3.644c-3.274.71-5.907 2.835-5.907 6.092 0 3.899 3.224 5.84 7.932 6.97 4.219 1.012 5.062 2.497 5.062 4.067 0 1.164-.827 3.02-4.556 3.02-3.476 0-4.843-1.552-5.029-3.544h-3.712c.202 3.696 2.97 5.772 6.21 6.464v3.661h5.062v-3.627c3.29-.624 5.906-2.53 5.906-5.99 0-4.793-4.1-6.43-7.93-7.425z" fill="#0071af"/></svg>