<svg width="32" height="32" viewBox="0 0 32 32" fill="none" xmlns="http://www.w3.org/2000/svg">
<circle cx="16" cy="16" r="16" fill="#ADEBFF"/>
<mask id="mask0_139_2056" style="mask-type:alpha" maskUnits="userSpaceOnUse" x="6" y="6" width="20" height="20">
<rect x="6.3999" y="6.40002" width="19.2" height="19.2" fill="#D9D9D9"/>
</mask>
<g mask="url(#mask0_139_2056)">
<path d="M15.9999 20.8C16.9199 20.5734 17.6833 20.0432 18.2903 19.2096C18.8967 18.3766 19.1999 17.4534 19.1999 16.44V14.4L15.9999 12.8L12.7999 14.4V16.44C12.7999 17.4534 13.1031 18.3766 13.7095 19.2096C14.3164 20.0432 15.0799 20.5734 15.9999 20.8ZM9.59985 23.2V13.6L15.9999 8.80005L22.3999 13.6V23.2H9.59985ZM11.1999 21.6H20.7999V14.4L15.9999 10.8L11.1999 14.4V21.6Z" fill="#0071AF"/>
</g>
</svg>
