<svg width="54" height="54" viewBox="0 0 54 54" fill="none" xmlns="http://www.w3.org/2000/svg">
<circle cx="27" cy="27" r="27" fill="#ADEBFF"/>
<mask id="mask0_263_1430" style="mask-type:alpha" maskUnits="userSpaceOnUse" x="11" y="11" width="32" height="32">
<rect x="11" y="11" width="32" height="32" fill="#D9D9D9"/>
</mask>
<g mask="url(#mask0_263_1430)">
<path d="M15 39.0002V33.3335L21 27.3335L15.8333 22.1335C15.5667 21.8669 15.3724 21.5669 15.2507 21.2335C15.128 20.9002 15.0667 20.5669 15.0667 20.2335C15.0667 19.9002 15.128 19.5727 15.2507 19.2509C15.3724 18.9282 15.5667 18.6335 15.8333 18.3669L18.3667 15.8335C18.6333 15.5669 18.9333 15.3722 19.2667 15.2495C19.6 15.1278 19.9333 15.0669 20.2667 15.0669C20.6 15.0669 20.928 15.1278 21.2507 15.2495C21.5724 15.3722 21.8667 15.5669 22.1333 15.8335L27.3333 21.0335L33.3 15.0335C33.4333 14.9002 33.5778 14.8002 33.7333 14.7335C33.8889 14.6669 34.0556 14.6335 34.2333 14.6335C34.4111 14.6335 34.5831 14.6669 34.7493 14.7335C34.9164 14.8002 35.0667 14.9002 35.2 15.0335L38.9667 18.8002C39.1 18.9335 39.2 19.078 39.2667 19.2335C39.3333 19.3891 39.3667 19.5558 39.3667 19.7335C39.3667 19.9113 39.3333 20.0838 39.2667 20.2509C39.2 20.4171 39.1 20.5669 38.9667 20.7002L33 26.6669L38.1667 31.8669C38.4333 32.1335 38.6276 32.4335 38.7493 32.7669C38.872 33.1002 38.9333 33.4335 38.9333 33.7669C38.9333 34.1002 38.872 34.4278 38.7493 34.7495C38.6276 35.0722 38.4333 35.3669 38.1667 35.6335L35.6333 38.1669C35.3667 38.4335 35.072 38.6278 34.7493 38.7495C34.4276 38.8722 34.1 38.9335 33.7667 38.9335C33.4333 38.9335 33.1 38.8722 32.7667 38.7495C32.4333 38.6278 32.1333 38.4335 31.8667 38.1669L26.6667 32.9669L20.6667 39.0002H15ZM22.9 25.4335L25.4333 22.9002L23.8333 21.3002L22.2333 22.8669L20.3667 21.0002L21.9333 19.4002L20.2333 17.7335L17.7333 20.2669L22.9 25.4335ZM33.7333 36.2669L36.2667 33.7335L34.5667 32.0669L33 33.6335L31.1 31.7669L32.7 30.1669L31.0667 28.5669L28.5333 31.1002L33.7333 36.2669ZM17.6667 36.3335H19.5333L32.3667 23.5335L30.4667 21.6335L17.6667 34.4669V36.3335ZM34.2333 21.6335L36.1333 19.7335L34.2333 17.8669L32.3667 19.7335L34.2333 21.6335Z" fill="#0071AF"/>
</g>
</svg>
