<svg width="54" height="54" fill="none" xmlns="http://www.w3.org/2000/svg"><circle cx="27" cy="27" r="27" fill="#ADEBFF"/><path d="M34.263 17.587a.58.58 0 0 1-.288-.075c-2.4-1.237-4.475-1.762-6.963-1.762-2.474 0-4.825.587-6.962 1.762a.636.636 0 0 1-.85-.25.633.633 0 0 1 .25-.85 15.696 15.696 0 0 1 7.563-1.912c2.662 0 4.987.588 7.537 1.9a.612.612 0 0 1 .263.838.613.613 0 0 1-.55.35zM16.375 24.15a.623.623 0 0 1-.512-.987 12.924 12.924 0 0 1 4.687-4.088c3.925-2.025 8.95-2.037 12.887-.012a12.973 12.973 0 0 1 4.688 4.062c.2.275.138.675-.15.875a.623.623 0 0 1-.875-.15 11.735 11.735 0 0 0-4.238-3.675c-3.587-1.838-8.175-1.838-11.75.012a11.858 11.858 0 0 0-4.25 3.7.545.545 0 0 1-.487.263zm7.813 15.087a.586.586 0 0 1-.438-.187c-1.087-1.087-1.675-1.787-2.512-3.3-.863-1.538-1.313-3.413-1.313-5.425 0-3.712 3.175-6.738 7.075-6.738 3.9 0 7.075 3.026 7.075 6.738 0 .35-.275.625-.625.625a.619.619 0 0 1-.625-.625c0-3.025-2.613-5.488-5.825-5.488s-5.825 2.463-5.825 5.488c0 1.8.4 3.463 1.162 4.813.8 1.437 1.35 2.05 2.313 3.025a.642.642 0 0 1 0 .887.686.686 0 0 1-.462.188zm8.962-2.312c-1.487 0-2.8-.375-3.875-1.112C27.413 34.55 26.3 32.5 26.3 30.325c0-.35.275-.625.625-.625s.625.275.625.625c0 1.762.9 3.425 2.425 4.45.887.6 1.925.888 3.175.888.3 0 .8-.038 1.3-.125a.623.623 0 0 1 .725.512.623.623 0 0 1-.512.725 8.536 8.536 0 0 1-1.513.15zM30.638 39.5a.732.732 0 0 1-.163-.025c-1.988-.55-3.288-1.288-4.65-2.625a9.12 9.12 0 0 1-2.712-6.525c0-2.025 1.724-3.675 3.85-3.675 2.124 0 3.85 1.65 3.85 3.675 0 1.338 1.162 2.425 2.6 2.425 1.437 0 2.6-1.087 2.6-2.425 0-4.712-4.063-8.537-9.063-8.537-3.55 0-6.8 1.974-8.262 5.037-.488 1.012-.738 2.2-.738 3.5 0 .975.088 2.512.838 4.512a.61.61 0 0 1-.363.8.62.62 0 0 1-.8-.362 13.926 13.926 0 0 1-.913-4.95c0-1.5.288-2.863.85-4.05 1.663-3.487 5.35-5.75 9.388-5.75 5.688 0 10.313 4.388 10.313 9.788 0 2.024-1.725 3.674-3.85 3.674s-3.85-1.65-3.85-3.675c0-1.337-1.163-2.425-2.6-2.425-1.438 0-2.6 1.088-2.6 2.425 0 2.138.825 4.138 2.337 5.638 1.188 1.175 2.325 1.825 4.088 2.313a.62.62 0 0 1 .437.762.61.61 0 0 1-.588.475z" fill="#0071AF"/></svg>