<svg width="32" height="32" viewBox="0 0 32 32" fill="none" xmlns="http://www.w3.org/2000/svg">
<circle cx="16" cy="16" r="16" fill="#ADEBFF"/>
<mask id="mask0_139_2061" style="mask-type:alpha" maskUnits="userSpaceOnUse" x="6" y="6" width="20" height="20">
<rect x="6.3999" y="6.40002" width="19.2" height="19.2" fill="#D9D9D9"/>
</mask>
<g mask="url(#mask0_139_2061)">
<path d="M10.7999 20.4C9.57324 20.4 8.53324 19.9733 7.6799 19.12C6.82657 18.2666 6.3999 17.2266 6.3999 16C6.3999 14.7733 6.82657 13.7333 7.6799 12.88C8.53324 12.0266 9.57324 11.6 10.7999 11.6C11.2932 11.6 11.7666 11.6866 12.2199 11.86C12.6732 12.0333 13.0799 12.28 13.4399 12.6L14.7999 13.84L13.5999 14.92L12.3599 13.8C12.1466 13.6133 11.9066 13.4666 11.6399 13.36C11.3732 13.2533 11.0932 13.2 10.7999 13.2C10.0266 13.2 9.36657 13.4733 8.8199 14.02C8.27324 14.5666 7.9999 15.2266 7.9999 16C7.9999 16.7733 8.27324 17.4333 8.8199 17.98C9.36657 18.5266 10.0266 18.8 10.7999 18.8C11.0932 18.8 11.3732 18.7466 11.6399 18.64C11.9066 18.5333 12.1466 18.3866 12.3599 18.2L18.5599 12.6C18.9199 12.28 19.3266 12.0333 19.7799 11.86C20.2332 11.6866 20.7066 11.6 21.1999 11.6C22.4266 11.6 23.4666 12.0266 24.3199 12.88C25.1732 13.7333 25.5999 14.7733 25.5999 16C25.5999 17.2266 25.1732 18.2666 24.3199 19.12C23.4666 19.9733 22.4266 20.4 21.1999 20.4C20.7066 20.4 20.2332 20.3133 19.7799 20.14C19.3266 19.9666 18.9199 19.72 18.5599 19.4L17.1999 18.16L18.3999 17.08L19.6399 18.2C19.8532 18.3866 20.0932 18.5333 20.3599 18.64C20.6266 18.7466 20.9066 18.8 21.1999 18.8C21.9732 18.8 22.6332 18.5266 23.1799 17.98C23.7266 17.4333 23.9999 16.7733 23.9999 16C23.9999 15.2266 23.7266 14.5666 23.1799 14.02C22.6332 13.4733 21.9732 13.2 21.1999 13.2C20.9066 13.2 20.6266 13.2533 20.3599 13.36C20.0932 13.4666 19.8532 13.6133 19.6399 13.8L13.4399 19.4C13.0799 19.72 12.6732 19.9666 12.2199 20.14C11.7666 20.3133 11.2932 20.4 10.7999 20.4Z" fill="#0071AF"/>
</g>
</svg>
