<svg id="Layer_1" data-name="Layer 1" xmlns="http://www.w3.org/2000/svg" width="54" height="54" viewBox="0 0 54 54"><title>icon-no-office</title><circle cx="27" cy="27" r="27" style="fill:#adebff"/><path d="M12.9,13.3,11,15.1l2.7,2.7V39H34.9l4,4,1.9-1.9Zm6.1,23H16.3V33.6H19ZM19,31H16.3V28.3H19Zm-2.7-5.3V23H19v2.7Zm8,10.6H21.6V33.6h2.7ZM21.7,31V28.3h2.7V31ZM27,36.3V33.6h2.5l2.7,2.7ZM21.7,17.7h2.7v2.7h-.6l3.3,3.3V23H37.8V34.3L40.5,37V20.3H27V15H18.4l3.3,3.3Zm10.6,8H35v2.7H32.3Z" style="fill:#0068af"/></svg>