<svg width="54" height="54" viewBox="0 0 54 54" fill="none" xmlns="http://www.w3.org/2000/svg">
<circle cx="27" cy="27" r="27" fill="#ADEBFF"/>
<path d="M26.6665 39C26.3776 39 26.1387 38.9056 25.9498 38.7167C25.7609 38.5278 25.6665 38.2889 25.6665 38C25.6665 37.7111 25.7609 37.4722 25.9498 37.2833C26.1387 37.0944 26.3776 37 26.6665 37H36.9998V26.8667C36.9998 25.5778 36.7221 24.3389 36.1665 23.15C35.6109 21.9611 34.8665 20.9111 33.9332 20C32.9998 19.0889 31.9332 18.3611 30.7332 17.8167C29.5332 17.2722 28.2887 17 26.9998 17C25.7109 17 24.4665 17.2722 23.2665 17.8167C22.0665 18.3611 20.9998 19.0889 20.0665 20C19.1332 20.9111 18.3887 21.9611 17.8332 23.15C17.2776 24.3389 16.9998 25.5778 16.9998 26.8667V34.3333C16.9998 34.5111 16.9387 34.6667 16.8165 34.8C16.6943 34.9333 16.5332 35 16.3332 35C15.5998 35 14.9721 34.7389 14.4498 34.2167C13.9276 33.6944 13.6665 33.0667 13.6665 32.3333V29.6667C13.6665 29.1556 13.7887 28.7056 14.0332 28.3167C14.2776 27.9278 14.5998 27.6111 14.9998 27.3667L15.0998 25.6C15.2998 23.9778 15.7609 22.5111 16.4832 21.2C17.2054 19.8889 18.1054 18.7778 19.1832 17.8667C20.2609 16.9556 21.4721 16.25 22.8165 15.75C24.1609 15.25 25.5554 15 26.9998 15C28.4665 15 29.8721 15.25 31.2165 15.75C32.5609 16.25 33.7665 16.9611 34.8332 17.8833C35.8998 18.8056 36.7943 19.9167 37.5165 21.2167C38.2387 22.5167 38.6998 23.9667 38.8998 25.5667L38.9998 27.3C39.3998 27.5 39.7221 27.7944 39.9665 28.1833C40.2109 28.5722 40.3332 29 40.3332 29.4667V32.5333C40.3332 33.0222 40.2109 33.4556 39.9665 33.8333C39.7221 34.2111 39.3998 34.5 38.9998 34.7V37C38.9998 37.5556 38.8054 38.0278 38.4165 38.4167C38.0276 38.8056 37.5554 39 36.9998 39H26.6665ZM22.9998 29.3333C22.7332 29.3333 22.4998 29.2333 22.2998 29.0333C22.0998 28.8333 21.9998 28.5889 21.9998 28.3C21.9998 28.0333 22.0998 27.8056 22.2998 27.6167C22.4998 27.4278 22.7443 27.3333 23.0332 27.3333C23.2998 27.3333 23.5276 27.4278 23.7165 27.6167C23.9054 27.8056 23.9998 28.0444 23.9998 28.3333C23.9998 28.6 23.9054 28.8333 23.7165 29.0333C23.5276 29.2333 23.2887 29.3333 22.9998 29.3333ZM30.9998 29.3333C30.7332 29.3333 30.4998 29.2333 30.2998 29.0333C30.0998 28.8333 29.9998 28.5889 29.9998 28.3C29.9998 28.0333 30.0998 27.8056 30.2998 27.6167C30.4998 27.4278 30.7443 27.3333 31.0332 27.3333C31.2998 27.3333 31.5276 27.4278 31.7165 27.6167C31.9054 27.8056 31.9998 28.0444 31.9998 28.3333C31.9998 28.6 31.9054 28.8333 31.7165 29.0333C31.5276 29.2333 31.2887 29.3333 30.9998 29.3333ZM19.0332 27.6C18.9443 26.2889 19.1276 25.1 19.5832 24.0333C20.0387 22.9667 20.6498 22.0611 21.4165 21.3167C22.1832 20.5722 23.0665 20 24.0665 19.6C25.0665 19.2 26.0665 19 27.0665 19C29.0887 19 30.7887 19.6389 32.1665 20.9167C33.5443 22.1944 34.3887 23.7889 34.6998 25.7C32.6109 25.6778 30.7721 25.1167 29.1832 24.0167C27.5943 22.9167 26.3665 21.4889 25.4998 19.7333C25.1443 21.5333 24.3943 23.1278 23.2498 24.5167C22.1054 25.9056 20.6998 26.9333 19.0332 27.6Z" fill="#0071AF"/>
</svg>
