<svg width="32" height="32" viewBox="0 0 32 32" fill="none" xmlns="http://www.w3.org/2000/svg">
<circle cx="16" cy="16" r="16" fill="#ADEBFF"/>
<mask id="mask0_139_2100" style="mask-type:alpha" maskUnits="userSpaceOnUse" x="6" y="6" width="20" height="20">
<rect x="6.39999" y="6.3999" width="19.2" height="19.2" fill="#D9D9D9"/>
</mask>
<g mask="url(#mask0_139_2100)">
<path d="M19.2 20.8C18.76 20.8 18.3832 20.6435 18.0696 20.3304C17.7565 20.0168 17.6 19.64 17.6 19.2C17.6 18.76 17.7565 18.3832 18.0696 18.0696C18.3832 17.7565 18.76 17.6 19.2 17.6C19.64 17.6 20.0168 17.7565 20.3304 18.0696C20.6435 18.3832 20.8 18.76 20.8 19.2C20.8 19.64 20.6435 20.0168 20.3304 20.3304C20.0168 20.6435 19.64 20.8 19.2 20.8ZM16 24V23.54C16 22.9533 16.2933 22.4835 16.88 22.1304C17.4667 21.7768 18.24 21.6 19.2 21.6C20.16 21.6 20.9333 21.7768 21.52 22.1304C22.1067 22.4835 22.4 22.9533 22.4 23.54V24H16ZM18.4 16H16.8V12C16.8 11.32 16.56 10.7499 16.08 10.2896C15.6 9.82987 15.04 9.6 14.4 9.6C13.76 9.6 13.2 9.82987 12.72 10.2896C12.24 10.7499 12 11.32 12 12V20C12 20.64 12.24 21.2 12.72 21.68C13.2 22.16 13.76 22.4 14.4 22.4V24C13.2667 24 12.3168 23.6165 11.5504 22.8496C10.7835 22.0832 10.4 21.1333 10.4 20V12C10.4 10.8667 10.7835 9.9168 11.5504 9.1504C12.3168 8.38347 13.2667 8 14.4 8C15.5333 8 16.4832 8.38347 17.2496 9.1504C18.0165 9.9168 18.4 10.8667 18.4 12V16ZM14.4 14.4C14.84 14.4 15.2168 14.2432 15.5304 13.9296C15.8435 13.6165 16 13.24 16 12.8C16 12.36 15.8435 11.9835 15.5304 11.6704C15.2168 11.3568 14.84 11.2 14.4 11.2C13.96 11.2 13.5835 11.3568 13.2704 11.6704C12.9568 11.9835 12.8 12.36 12.8 12.8C12.8 13.24 12.9568 13.6165 13.2704 13.9296C13.5835 14.2432 13.96 14.4 14.4 14.4ZM12.8 19.2C12.8 19.64 12.9568 20.0168 13.2704 20.3304C13.5835 20.6435 13.96 20.8 14.4 20.8C14.84 20.8 15.2168 20.6435 15.5304 20.3304C15.8435 20.0168 16 19.64 16 19.2C16 18.76 15.8435 18.3832 15.5304 18.0696C15.2168 17.7565 14.84 17.6 14.4 17.6C13.96 17.6 13.5835 17.7565 13.2704 18.0696C12.9568 18.3832 12.8 18.76 12.8 19.2ZM14.4 20C14.16 20 13.9667 19.9168 13.82 19.7504C13.6733 19.5835 13.6 19.4 13.6 19.2C13.6 19 13.6733 18.8165 13.82 18.6496C13.9667 18.4832 14.16 18.4 14.4 18.4C14.64 18.4 14.8333 18.4733 14.98 18.62C15.1267 18.7667 15.2 18.96 15.2 19.2C15.2 19.4 15.1267 19.5835 14.98 19.7504C14.8333 19.9168 14.64 20 14.4 20Z" fill="#0071AF"/>
</g>
</svg>
