<?xml version="1.0" encoding="utf-8"?>
<!-- Generator: Adobe Illustrator 21.0.0, SVG Export Plug-In . SVG Version: 6.00 Build 0)  -->
<svg version="1.1" id="Layer_1" xmlns="http://www.w3.org/2000/svg" xmlns:xlink="http://www.w3.org/1999/xlink" x="0px" y="0px"
	 viewBox="0 0 20 18" style="enable-background:new 0 0 20 18;" xml:space="preserve">
<style type="text/css">
	.st0{fill:#FFFFFF;}
</style>
<path class="st0" d="M5.1,0C1.6,2.5,0,6.1,0,12v5.5h8V9.4H5.5c-1,0-1.5,0.3-2.2,1l-0.2-0.2c0.2-0.2,0.4-0.7,0.4-1.2
	c0-2.8,1.2-4.9,3.7-6.9L5.1,0z M16.6,0c-3.4,2.5-5,6.1-5,12v5.5h8V9.4H17c-1,0-1.6,0.3-2.2,1l-0.2-0.2c0.2-0.2,0.4-0.7,0.4-1.2
	c0-2.8,1.2-4.9,3.6-6.9L16.6,0z"/>
</svg>
