<svg width="32" height="32" viewBox="0 0 32 32" fill="none" xmlns="http://www.w3.org/2000/svg">
<circle cx="16" cy="16" r="16" fill="#ADEBFF"/>
<mask id="mask0_139_2008" style="mask-type:alpha" maskUnits="userSpaceOnUse" x="6" y="6" width="20" height="20">
<rect x="6.40002" y="6.40002" width="19.2" height="19.2" fill="#D9D9D9"/>
</mask>
<g mask="url(#mask0_139_2008)">
<path d="M14.6801 20L19.2001 15.48L18.0401 14.32L14.6601 17.7L12.9801 16.02L11.8401 17.16L14.6801 20ZM11.6001 22.4C10.3867 22.4 9.35021 21.98 8.49047 21.14C7.63021 20.3 7.20007 19.2733 7.20007 18.06C7.20007 17.02 7.51341 16.0933 8.14007 15.28C8.76674 14.4666 9.58674 13.9466 10.6001 13.72C10.9334 12.4933 11.6001 11.5 12.6001 10.74C13.6001 9.97998 14.7334 9.59998 16.0001 9.59998C17.5601 9.59998 18.8833 10.1432 19.9697 11.2296C21.0566 12.3165 21.6001 13.64 21.6001 15.2C22.5201 15.3066 23.2835 15.7032 23.8905 16.3896C24.4969 17.0765 24.8001 17.88 24.8001 18.8C24.8001 19.8 24.4502 20.6501 23.7505 21.3504C23.0502 22.0501 22.2001 22.4 21.2001 22.4H11.6001ZM11.6001 20.8H21.2001C21.7601 20.8 22.2334 20.6066 22.6201 20.22C23.0067 19.8333 23.2001 19.36 23.2001 18.8C23.2001 18.24 23.0067 17.7666 22.6201 17.38C22.2334 16.9933 21.7601 16.8 21.2001 16.8H20.0001V15.2C20.0001 14.0933 19.6102 13.1498 18.8305 12.3696C18.0502 11.5898 17.1067 11.2 16.0001 11.2C14.8934 11.2 13.9502 11.5898 13.1705 12.3696C12.3902 13.1498 12.0001 14.0933 12.0001 15.2H11.6001C10.8267 15.2 10.1667 15.4733 9.62007 16.02C9.07341 16.5666 8.80007 17.2266 8.80007 18C8.80007 18.7733 9.07341 19.4333 9.62007 19.98C10.1667 20.5266 10.8267 20.8 11.6001 20.8Z" fill="#0071AF"/>
</g>
</svg>
