<svg width="32" height="32" viewBox="0 0 32 32" fill="none" xmlns="http://www.w3.org/2000/svg">
<circle cx="16" cy="16" r="16" fill="#ADEBFF"/>
<mask id="mask0_139_2033" style="mask-type:alpha" maskUnits="userSpaceOnUse" x="6" y="6" width="20" height="20">
<rect x="6.40002" y="6.40002" width="19.2" height="19.2" fill="#D9D9D9"/>
</mask>
<g mask="url(#mask0_139_2033)">
<path d="M16 18.4C16.6667 18.4 17.2333 18.1667 17.7 17.7C18.1667 17.2333 18.4 16.6667 18.4 16C18.4 15.3333 18.1667 14.7667 17.7 14.3C17.2333 13.8333 16.6667 13.6 16 13.6C15.3333 13.6 14.7667 13.8333 14.3 14.3C13.8333 14.7667 13.6 15.3333 13.6 16C13.6 16.6667 13.8333 17.2333 14.3 17.7C14.7667 18.1667 15.3333 18.4 16 18.4ZM16 24C14.8933 24 13.8533 23.7899 12.88 23.3696C11.9067 22.9499 11.06 22.38 10.34 21.66C9.62 20.94 9.05013 20.0933 8.6304 19.12C8.21013 18.1467 8 17.1067 8 16C8 14.8933 8.21013 13.8533 8.6304 12.88C9.05013 11.9067 9.62 11.06 10.34 10.34C11.06 9.62 11.9067 9.04987 12.88 8.6296C13.8533 8.20987 14.8933 8 16 8C17.1067 8 18.1467 8.20987 19.12 8.6296C20.0933 9.04987 20.94 9.62 21.66 10.34C22.38 11.06 22.9499 11.9067 23.3696 12.88C23.7899 13.8533 24 14.8933 24 16C24 17.1067 23.7899 18.1467 23.3696 19.12C22.9499 20.0933 22.38 20.94 21.66 21.66C20.94 22.38 20.0933 22.9499 19.12 23.3696C18.1467 23.7899 17.1067 24 16 24ZM16 22.4C17.7867 22.4 19.3 21.78 20.54 20.54C21.78 19.3 22.4 17.7867 22.4 16C22.4 14.2133 21.78 12.7 20.54 11.46C19.3 10.22 17.7867 9.6 16 9.6C14.2133 9.6 12.7 10.22 11.46 11.46C10.22 12.7 9.6 14.2133 9.6 16C9.6 17.7867 10.22 19.3 11.46 20.54C12.7 21.78 14.2133 22.4 16 22.4Z" fill="#0071AF"/>
</g>
</svg>
