<svg id="Layer_1" data-name="Layer 1" xmlns="http://www.w3.org/2000/svg" width="54" height="54" viewBox="0 0 54 54"><title>icon-savings</title><circle cx="27" cy="27" r="27" style="fill:#adebff"/><path d="M31,24.3a1.3,1.3,0,1,1,1.3,1.3A1.21,1.21,0,0,1,31,24.3ZM21.7,23h6.7V20.3H21.7Zm18.6-2v9.3l-3.8,1.3L34.3,39H27V36.3H24.3V39H17s-3.3-11.3-3.3-15.3A7.28,7.28,0,0,1,21,16.4h6.7A6.62,6.62,0,0,1,33,13.7a2,2,0,0,1,2,2,2.35,2.35,0,0,1-.2.8,8.33,8.33,0,0,0-.4,1.5l3,3Zm-2.6,2.7H36.4L31.7,19a10.07,10.07,0,0,1,.3-2.5A4.13,4.13,0,0,0,29.2,19H21a4.69,4.69,0,0,0-4.7,4.7c0,2.5,1.6,8.9,2.7,12.7h2.7V33.7h8v2.7h2.7l2.1-6.9,3.3-1.1V23.7Z" style="fill:#0068af"/></svg>