<svg width="32" height="32" viewBox="0 0 32 32" fill="none" xmlns="http://www.w3.org/2000/svg">
<circle cx="16" cy="16" r="16" fill="#ADEBFF"/>
<mask id="mask0_139_2128" style="mask-type:alpha" maskUnits="userSpaceOnUse" x="6" y="6" width="20" height="20">
<rect x="6.39999" y="6.3999" width="19.2" height="19.2" fill="#D9D9D9"/>
</mask>
<g mask="url(#mask0_139_2128)">
<path d="M16 23.2L14.84 22.16C13.4933 20.9467 12.38 19.9 11.5 19.02C10.62 18.14 9.92 17.3499 9.4 16.6496C8.88 15.9499 8.5168 15.3067 8.3104 14.72C8.10347 14.1334 8 13.5334 8 12.92C8 11.6667 8.42 10.62 9.26 9.78002C10.1 8.94002 11.1467 8.52002 12.4 8.52002C13.0933 8.52002 13.7533 8.66669 14.38 8.96002C15.0067 9.25335 15.5467 9.66669 16 10.2C16.4533 9.66669 16.9933 9.25335 17.62 8.96002C18.2467 8.66669 18.9067 8.52002 19.6 8.52002C20.8533 8.52002 21.9 8.94002 22.74 9.78002C23.58 10.62 24 11.6667 24 12.92C24 13.5334 23.8968 14.1334 23.6904 14.72C23.4835 15.3067 23.12 15.9499 22.6 16.6496C22.08 17.3499 21.38 18.14 20.5 19.02C19.62 19.9 18.5067 20.9467 17.16 22.16L16 23.2ZM16 21.04C17.28 19.8934 18.3333 18.9099 19.16 18.0896C19.9867 17.2699 20.64 16.5568 21.12 15.9504C21.6 15.3435 21.9333 14.8032 22.12 14.3296C22.3067 13.8566 22.4 13.3867 22.4 12.92C22.4 12.12 22.1333 11.4534 21.6 10.92C21.0667 10.3867 20.4 10.12 19.6 10.12C18.9733 10.12 18.3933 10.2966 17.86 10.6496C17.3267 11.0032 16.96 11.4534 16.76 12H15.24C15.04 11.4534 14.6733 11.0032 14.14 10.6496C13.6067 10.2966 13.0267 10.12 12.4 10.12C11.6 10.12 10.9333 10.3867 10.4 10.92C9.86667 11.4534 9.6 12.12 9.6 12.92C9.6 13.3867 9.69333 13.8566 9.88 14.3296C10.0667 14.8032 10.4 15.3435 10.88 15.9504C11.36 16.5568 12.0133 17.2699 12.84 18.0896C13.6667 18.9099 14.72 19.8934 16 21.04Z" fill="#0071AF"/>
</g>
</svg>
