<svg width="32" height="32" viewBox="0 0 32 32" fill="none" xmlns="http://www.w3.org/2000/svg">
<circle cx="16" cy="16" r="16" fill="#ADEBFF"/>
<mask id="mask0_139_2000" style="mask-type:alpha" maskUnits="userSpaceOnUse" x="6" y="6" width="20" height="20">
<rect x="6.3999" y="6.40002" width="19.2" height="19.2" fill="#D9D9D9"/>
</mask>
<g mask="url(#mask0_139_2000)">
<path d="M11.6 22.4C10.3866 22.4 9.35008 21.98 8.49035 21.14C7.63008 20.3 7.19995 19.2733 7.19995 18.06C7.19995 17.02 7.51328 16.0933 8.13995 15.28C8.76662 14.4666 9.58662 13.9466 10.6 13.72C10.9333 12.4933 11.6 11.5 12.6 10.74C13.6 9.97998 14.7333 9.59998 16 9.59998C17.56 9.59998 18.8832 10.1432 19.9696 11.2296C21.0565 12.3165 21.6 13.64 21.6 15.2C22.52 15.3066 23.2834 15.7032 23.8904 16.3896C24.4968 17.0765 24.8 17.88 24.8 18.8C24.8 19.8 24.4501 20.6501 23.7504 21.3504C23.0501 22.0501 22.2 22.4 21.2 22.4H16.8C16.36 22.4 15.9834 22.2434 15.6704 21.9304C15.3568 21.6168 15.2 21.24 15.2 20.8V16.68L13.92 17.92L12.8 16.8L16 13.6L19.2 16.8L18.08 17.92L16.8 16.68V20.8H21.2C21.76 20.8 22.2333 20.6066 22.62 20.22C23.0066 19.8333 23.2 19.36 23.2 18.8C23.2 18.24 23.0066 17.7666 22.62 17.38C22.2333 16.9933 21.76 16.8 21.2 16.8H20V15.2C20 14.0933 19.6101 13.1498 18.8304 12.3696C18.0501 11.5898 17.1066 11.2 16 11.2C14.8933 11.2 13.9501 11.5898 13.1704 12.3696C12.3901 13.1498 12 14.0933 12 15.2H11.6C10.8266 15.2 10.1666 15.4733 9.61995 16.02C9.07328 16.5666 8.79995 17.2266 8.79995 18C8.79995 18.7733 9.07328 19.4333 9.61995 19.98C10.1666 20.5266 10.8266 20.8 11.6 20.8H13.6V22.4H11.6Z" fill="#0071AF"/>
</g>
</svg>
