<svg width="54" height="54" fill="none" xmlns="http://www.w3.org/2000/svg"><circle cx="27" cy="27" r="27" fill="#ADEBFF"/><path d="M34.5 22h-1.25v-2.5c0-3.45-2.8-6.25-6.25-6.25s-6.25 2.8-6.25 6.25V22H19.5a2.507 2.507 0 0 0-2.5 2.5V37c0 1.375 1.125 2.5 2.5 2.5h15c1.375 0 2.5-1.125 2.5-2.5V24.5c0-1.375-1.125-2.5-2.5-2.5zm-11.375-2.5A3.878 3.878 0 0 1 27 15.625a3.878 3.878 0 0 1 3.875 3.875V22h-7.75v-2.5zM34.5 37h-15V24.5h15V37zm-6.25-11.25h-2.5v3.75H22V32h3.75v3.75h2.5V32H32v-2.5h-3.75v-3.75z" fill="#0071AF"/></svg>