<svg width="54" height="54" viewBox="0 0 54 54" fill="none" xmlns="http://www.w3.org/2000/svg">
<circle cx="27" cy="27" r="27" fill="#ADEBFF"/>
<mask id="mask0_264_472" style="mask-type:alpha" maskUnits="userSpaceOnUse" x="11" y="11" width="32" height="32">
<rect x="11" y="11" width="32" height="32" fill="#D9D9D9"/>
</mask>
<g mask="url(#mask0_264_472)">
<path d="M15 39V36.3333L17.6667 33.6667V39H15ZM20.3333 39V31L23 28.3333V39H20.3333ZM25.6667 39V28.3333L28.3333 31.0333V39H25.6667ZM31 39V31.0333L33.6667 28.3667V39H31ZM36.3333 39V25.6667L39 23V39H36.3333ZM15 32.1V28.3333L24.3333 19L29.6667 24.3333L39 15V18.7667L29.6667 28.1L24.3333 22.7667L15 32.1Z" fill="#0071AF"/>
</g>
</svg>
