<svg width="32" height="32" viewBox="0 0 32 32" fill="none" xmlns="http://www.w3.org/2000/svg">
<circle cx="16" cy="16" r="16" fill="#ADEBFF"/>
<mask id="mask0_139_2164" style="mask-type:alpha" maskUnits="userSpaceOnUse" x="6" y="6" width="20" height="20">
<rect x="6.4" y="6.3999" width="19.2" height="19.2" fill="#D9D9D9"/>
</mask>
<g mask="url(#mask0_139_2164)">
<path d="M15.2 15.2H16.8V11.2H15.2V15.2ZM16 18.4C16.2267 18.4 16.4168 18.3232 16.5704 18.1696C16.7235 18.0165 16.8 17.8267 16.8 17.6C16.8 17.3733 16.7235 17.1832 16.5704 17.0296C16.4168 16.8765 16.2267 16.8 16 16.8C15.7733 16.8 15.5835 16.8765 15.4304 17.0296C15.2768 17.1832 15.2 17.3733 15.2 17.6C15.2 17.8267 15.2768 18.0165 15.4304 18.1696C15.5835 18.3232 15.7733 18.4 16 18.4ZM16 21.88C17.6267 20.3867 18.8333 19.0299 19.62 17.8096C20.4067 16.5899 20.8 15.5067 20.8 14.56C20.8 13.1067 20.3365 11.9165 19.4096 10.9896C18.4832 10.0632 17.3467 9.6 16 9.6C14.6533 9.6 13.5165 10.0632 12.5896 10.9896C11.6632 11.9165 11.2 13.1067 11.2 14.56C11.2 15.5067 11.5933 16.5899 12.38 17.8096C13.1667 19.0299 14.3733 20.3867 16 21.88ZM16 24C13.8533 22.1733 12.2501 20.4765 11.1904 18.9096C10.1301 17.3432 9.6 15.8933 9.6 14.56C9.6 12.56 10.2435 10.9667 11.5304 9.78C12.8168 8.59333 14.3067 8 16 8C17.6933 8 19.1832 8.59333 20.4696 9.78C21.7565 10.9667 22.4 12.56 22.4 14.56C22.4 15.8933 21.8701 17.3432 20.8104 18.9096C19.7501 20.4765 18.1467 22.1733 16 24Z" fill="#0071AF"/>
</g>
</svg>
