<svg width="32" height="32" viewBox="0 0 32 32" fill="none" xmlns="http://www.w3.org/2000/svg">
<circle cx="16" cy="16" r="16" fill="#ADEBFF"/>
<mask id="mask0_139_2074" style="mask-type:alpha" maskUnits="userSpaceOnUse" x="6" y="6" width="20" height="20">
<rect x="6.3999" y="6.40002" width="19.2" height="19.2" fill="#D9D9D9"/>
</mask>
<g mask="url(#mask0_139_2074)">
<path d="M15.9998 15.2C13.9998 15.2 12.2998 14.8867 10.8998 14.26C9.4998 13.6334 8.7998 12.88 8.7998 12C8.7998 11.12 9.4998 10.3667 10.8998 9.74005C12.2998 9.11338 13.9998 8.80005 15.9998 8.80005C17.9998 8.80005 19.6998 9.11338 21.0998 9.74005C22.4998 10.3667 23.1998 11.12 23.1998 12C23.1998 12.88 22.4998 13.6334 21.0998 14.26C19.6998 14.8867 17.9998 15.2 15.9998 15.2ZM15.9998 19.2C13.9998 19.2 12.2998 18.8867 10.8998 18.26C9.4998 17.6334 8.7998 16.88 8.7998 16V14C8.7998 14.5867 9.07314 15.0835 9.6198 15.4904C10.1665 15.8968 10.8198 16.2267 11.5798 16.48C12.3398 16.7334 13.1299 16.9166 13.9502 17.0296C14.7699 17.1432 15.4531 17.2 15.9998 17.2C16.5465 17.2 17.2297 17.1432 18.0494 17.0296C18.8697 16.9166 19.6598 16.7334 20.4198 16.48C21.1798 16.2267 21.8331 15.8968 22.3798 15.4904C22.9265 15.0835 23.1998 14.5867 23.1998 14V16C23.1998 16.88 22.4998 17.6334 21.0998 18.26C19.6998 18.8867 17.9998 19.2 15.9998 19.2ZM15.9998 23.2C13.9998 23.2 12.2998 22.8867 10.8998 22.26C9.4998 21.6334 8.7998 20.88 8.7998 20V18C8.7998 18.5867 9.07314 19.0835 9.6198 19.4904C10.1665 19.8968 10.8198 20.2267 11.5798 20.48C12.3398 20.7334 13.1299 20.9168 13.9502 21.0304C14.7699 21.1435 15.4531 21.2 15.9998 21.2C16.5465 21.2 17.2297 21.1435 18.0494 21.0304C18.8697 20.9168 19.6598 20.7334 20.4198 20.48C21.1798 20.2267 21.8331 19.8968 22.3798 19.4904C22.9265 19.0835 23.1998 18.5867 23.1998 18V20C23.1998 20.88 22.4998 21.6334 21.0998 22.26C19.6998 22.8867 17.9998 23.2 15.9998 23.2Z" fill="#0071AF"/>
</g>
</svg>
