<svg width="32" height="32" viewBox="0 0 32 32" fill="none" xmlns="http://www.w3.org/2000/svg">
<circle cx="16" cy="16" r="16" fill="#ADEBFF"/>
<mask id="mask0_139_2284" style="mask-type:alpha" maskUnits="userSpaceOnUse" x="6" y="6" width="20" height="20">
<rect x="6.39999" y="6.40002" width="19.2" height="19.2" fill="#D9D9D9"/>
</mask>
<g mask="url(#mask0_139_2284)">
<path d="M17.6 20H21.6V16H20V18.4H17.6V20ZM10.4 16H12V13.6H14.4V12H10.4V16ZM9.6 22.4C9.16 22.4 8.78347 22.2434 8.4704 21.9304C8.1568 21.6168 8 21.24 8 20.8V11.2C8 10.76 8.1568 10.3834 8.4704 10.0704C8.78347 9.75678 9.16 9.59998 9.6 9.59998H22.4C22.84 9.59998 23.2168 9.75678 23.5304 10.0704C23.8435 10.3834 24 10.76 24 11.2V20.8C24 21.24 23.8435 21.6168 23.5304 21.9304C23.2168 22.2434 22.84 22.4 22.4 22.4H9.6ZM9.6 20.8H22.4V11.2H9.6V20.8Z" fill="#0071AF"/>
</g>
</svg>
