<svg width="54" height="54" viewBox="0 0 54 54" fill="none" xmlns="http://www.w3.org/2000/svg">
<circle cx="27" cy="27" r="27" fill="#ADEBFF"/>
<mask id="mask0_263_1259" style="mask-type:alpha" maskUnits="userSpaceOnUse" x="11" y="11" width="32" height="32">
<rect x="11" y="11" width="32" height="32" fill="#D9D9D9"/>
</mask>
<g mask="url(#mask0_263_1259)">
<path d="M27 19C26.2667 19 25.6391 18.7386 25.1173 18.216C24.5947 17.6942 24.3333 17.0666 24.3333 16.3333C24.3333 15.6 24.5947 14.972 25.1173 14.4493C25.6391 13.9275 26.2667 13.6666 27 13.6666C27.7333 13.6666 28.3613 13.9275 28.884 14.4493C29.4058 14.972 29.6667 15.6 29.6667 16.3333C29.6667 17.0666 29.4058 17.6942 28.884 18.216C28.3613 18.7386 27.7333 19 27 19ZM37.6667 22C36.6 22.2444 35.5 22.4497 34.3667 22.616C33.2333 22.7831 32.1111 22.9111 31 23V39.0333C31 39.4111 30.8724 39.7222 30.6173 39.9666C30.3613 40.2111 30.0444 40.3333 29.6667 40.3333C29.2889 40.3333 28.9724 40.2053 28.7173 39.9493C28.4613 39.6942 28.3333 39.3777 28.3333 39V32.3333H25.6667V39.0333C25.6667 39.4111 25.5391 39.7222 25.284 39.9666C25.028 40.2111 24.7111 40.3333 24.3333 40.3333C23.9556 40.3333 23.6391 40.2053 23.384 39.9493C23.128 39.6942 23 39.3777 23 39V23C21.8889 22.9111 20.7667 22.7831 19.6333 22.616C18.5 22.4497 17.4 22.2444 16.3333 22C15.9555 21.9111 15.6667 21.7053 15.4667 21.3826C15.2667 21.0608 15.2222 20.7111 15.3333 20.3333C15.4222 19.9555 15.628 19.672 15.9507 19.4826C16.2724 19.2942 16.6222 19.2444 17 19.3333C18.6 19.6888 20.2502 19.9444 21.9507 20.1C23.6502 20.2555 25.3333 20.3333 27 20.3333C28.6667 20.3333 30.3498 20.2555 32.0493 20.1C33.7498 19.9444 35.4 19.6888 37 19.3333C37.3778 19.2444 37.7222 19.2942 38.0333 19.4826C38.3444 19.672 38.5556 19.9555 38.6667 20.3333C38.7556 20.7111 38.7058 21.0608 38.5173 21.3826C38.328 21.7053 38.0444 21.9111 37.6667 22Z" fill="#0071AF"/>
</g>
</svg>
