<svg width="32" height="32" viewBox="0 0 32 32" fill="none" xmlns="http://www.w3.org/2000/svg">
<circle cx="16" cy="16" r="16" fill="#ADEBFF"/>
<mask id="mask0_139_2265" style="mask-type:alpha" maskUnits="userSpaceOnUse" x="8" y="8" width="24" height="24">
<rect x="8" y="8" width="24" height="24" fill="#D9D9D9"/>
</mask>
<g mask="url(#mask0_139_2265)">
<path d="M18.64 19.76L15.2 16.32V12H16.8V15.68L19.76 18.64L18.64 19.76ZM8.68 19.26C8.50667 18.8734 8.36667 18.4734 8.26 18.06C8.15333 17.6467 8.08 17.2267 8.04 16.8H9.66C9.7 17.08 9.75653 17.36 9.8296 17.64C9.9032 17.92 9.99333 18.1934 10.1 18.46L8.68 19.26ZM8.04 15.2C8.08 14.7734 8.15333 14.3499 8.26 13.9296C8.36667 13.5099 8.51333 13.1067 8.7 12.72L10.1 13.52C9.99333 13.7867 9.9032 14.06 9.8296 14.34C9.75653 14.62 9.7 14.9067 9.66 15.2H8.04ZM11.34 22.52C10.98 22.2534 10.6467 21.9632 10.34 21.6496C10.0333 21.3366 9.74667 21 9.48 20.64L10.88 19.84C11.0667 20.08 11.2635 20.3032 11.4704 20.5096C11.6768 20.7166 11.9 20.9134 12.14 21.1L11.34 22.52ZM10.9 12.14L9.48 11.34C9.74667 10.98 10.0333 10.6467 10.34 10.34C10.6467 10.0334 10.98 9.74671 11.34 9.48004L12.14 10.9C11.9133 11.0867 11.6968 11.2832 11.4904 11.4896C11.2835 11.6966 11.0867 11.9134 10.9 12.14ZM15.2 23.96C14.7733 23.92 14.3501 23.8467 13.9304 23.74C13.5101 23.6334 13.1067 23.4867 12.72 23.3L13.52 21.9C13.7867 22.0067 14.06 22.0966 14.34 22.1696C14.62 22.2432 14.9067 22.3 15.2 22.34V23.96ZM13.52 10.1L12.72 8.70004C13.1067 8.51337 13.5101 8.36671 13.9304 8.26004C14.3501 8.15337 14.7733 8.08004 15.2 8.04004V9.66004C14.9067 9.70004 14.62 9.75657 14.34 9.82964C14.06 9.90324 13.7867 9.99337 13.52 10.1ZM16.8 23.96V22.34C17.0933 22.3 17.38 22.2432 17.66 22.1696C17.94 22.0966 18.2133 22.0067 18.48 21.9L19.28 23.3C18.8933 23.4867 18.4901 23.6334 18.0704 23.74C17.6501 23.8467 17.2267 23.92 16.8 23.96ZM18.48 10.1C18.2133 9.99337 17.94 9.90324 17.66 9.82964C17.38 9.75657 17.0933 9.70004 16.8 9.66004V8.04004C17.2267 8.08004 17.6501 8.15337 18.0704 8.26004C18.4901 8.36671 18.8933 8.51337 19.28 8.70004L18.48 10.1ZM20.66 22.52L19.86 21.1C20.0867 20.9134 20.3035 20.7166 20.5104 20.5096C20.7168 20.3032 20.9133 20.0867 21.1 19.86L22.52 20.66C22.2533 21.02 21.9667 21.3566 21.66 21.6696C21.3533 21.9832 21.02 22.2667 20.66 22.52ZM21.1 12.14C20.9133 11.9134 20.7168 11.6966 20.5104 11.4896C20.3035 11.2832 20.0867 11.0867 19.86 10.9L20.66 9.48004C21.02 9.73337 21.3533 10.0134 21.66 10.32C21.9667 10.6267 22.2467 10.96 22.5 11.32L21.1 12.14ZM22.34 15.2C22.3 14.9067 22.2435 14.62 22.1704 14.34C22.0968 14.06 22.0067 13.7867 21.9 13.52L23.3 12.7C23.4733 13.1 23.6168 13.5099 23.7304 13.9296C23.8435 14.3499 23.92 14.7734 23.96 15.2H22.34ZM23.3 19.28L21.9 18.48C22.0067 18.2134 22.0968 17.94 22.1704 17.66C22.2435 17.38 22.3 17.0934 22.34 16.8H23.96C23.92 17.2267 23.8467 17.6499 23.74 18.0696C23.6333 18.4899 23.4867 18.8934 23.3 19.28Z" fill="#0071AF"/>
</g>
</svg>
