<svg width="54" height="54" viewBox="0 0 54 54" fill="none" xmlns="http://www.w3.org/2000/svg">
<circle cx="27" cy="27" r="27" fill="#ADEBFF"/>
<path d="M21.6667 25.3001L20.5 22.8334L18.0333 21.6667L20.5 20.5001L21.6667 18.0334L22.8333 20.5001L25.3 21.6667L22.8333 22.8334L21.6667 25.3001ZM21.6667 38.6334L20.5 36.1667L18.0333 35.0001L20.5 33.8334L21.6667 31.3667L22.8333 33.8334L25.3 35.0001L22.8333 36.1667L21.6667 38.6334ZM17.4333 30.7667L16.6667 29.1001L15 28.3334L16.6667 27.5667L17.4333 25.9001L18.2 27.5667L19.8667 28.3334L18.2 29.1001L17.4333 30.7667ZM34.8 39.6001C32.5333 38.3112 30.7222 36.5112 29.3667 34.2001C28.0111 31.889 27.3333 29.489 27.3333 27.0001C27.3333 24.9779 27.8167 22.9667 28.7833 20.9667C29.75 18.9667 31.0667 17.2001 32.7333 15.6667H28.1333C27.8444 15.6667 27.6056 15.5723 27.4167 15.3834C27.2278 15.1945 27.1333 14.9556 27.1333 14.6667C27.1333 14.3779 27.2278 14.139 27.4167 13.9501C27.6056 13.7612 27.8444 13.6667 28.1333 13.6667H35.3333C35.6222 13.6667 35.8611 13.7612 36.05 13.9501C36.2389 14.139 36.3333 14.3779 36.3333 14.6667V21.8667C36.3333 22.1556 36.2389 22.3945 36.05 22.5834C35.8611 22.7723 35.6222 22.8667 35.3333 22.8667C35.0444 22.8667 34.8056 22.7723 34.6167 22.5834C34.4278 22.3945 34.3333 22.1556 34.3333 21.8667V16.9001C32.8 18.2779 31.5833 19.8723 30.6833 21.6834C29.7833 23.4945 29.3333 25.2667 29.3333 27.0001C29.3333 29.1556 29.9389 31.239 31.15 33.2501C32.3611 35.2612 33.9444 36.8112 35.9 37.9001C36.0111 37.9667 36.1111 38.0667 36.2 38.2001C36.2889 38.3334 36.3333 38.4667 36.3333 38.6001C36.3333 39.089 36.1778 39.439 35.8667 39.6501C35.5556 39.8612 35.2 39.8445 34.8 39.6001Z" fill="#0068AF"/>
</svg>
