<svg width="54" height="54" viewBox="0 0 54 54" fill="none" xmlns="http://www.w3.org/2000/svg">
<circle cx="27" cy="27" r="27" fill="#ADEBFF"/>
<mask id="mask0_263_1243" style="mask-type:alpha" maskUnits="userSpaceOnUse" x="11" y="11" width="32" height="32">
<rect x="11" y="11" width="32" height="32" fill="#D9D9D9"/>
</mask>
<g mask="url(#mask0_263_1243)">
<path d="M21.6667 33.6667C21.2889 33.6667 20.972 33.5387 20.716 33.2827C20.4609 33.0276 20.3333 32.7112 20.3333 32.3334C20.3333 31.9556 20.4609 31.6387 20.716 31.3827C20.972 31.1276 21.2889 31 21.6667 31H25.6667C25.3556 30.6223 25.1058 30.2112 24.9173 29.7667C24.728 29.3223 24.5778 28.8445 24.4667 28.3334H18.3333C17.9556 28.3334 17.6387 28.2054 17.3827 27.9494C17.1276 27.6943 17 27.3778 17 27C17 26.6223 17.1276 26.3054 17.3827 26.0494C17.6387 25.7943 17.9556 25.6667 18.3333 25.6667H24.4667C24.5778 25.1556 24.728 24.6778 24.9173 24.2334C25.1058 23.7889 25.3556 23.3778 25.6667 23H17.6667C17.2889 23 16.972 22.872 16.716 22.616C16.4609 22.3609 16.3333 22.0445 16.3333 21.6667C16.3333 21.2889 16.4609 20.972 16.716 20.716C16.972 20.4609 17.2889 20.3334 17.6667 20.3334H31C32.8444 20.3334 34.4169 20.9832 35.7173 22.2827C37.0169 23.5832 37.6667 25.1556 37.6667 27C37.6667 28.8445 37.0169 30.4165 35.7173 31.716C34.4169 33.0165 32.8444 33.6667 31 33.6667H21.6667ZM31 31C32.1111 31 33.0556 30.6112 33.8333 29.8334C34.6111 29.0556 35 28.1112 35 27C35 25.8889 34.6111 24.9445 33.8333 24.1667C33.0556 23.3889 32.1111 23 31 23C29.8889 23 28.9444 23.3889 28.1667 24.1667C27.3889 24.9445 27 25.8889 27 27C27 28.1112 27.3889 29.0556 28.1667 29.8334C28.9444 30.6112 29.8889 31 31 31ZM17.6667 33.6667C17.2889 33.6667 16.972 33.5387 16.716 33.2827C16.4609 33.0276 16.3333 32.7112 16.3333 32.3334C16.3333 31.9556 16.4609 31.6387 16.716 31.3827C16.972 31.1276 17.2889 31 17.6667 31C18.0444 31 18.3613 31.1276 18.6173 31.3827C18.8724 31.6387 19 31.9556 19 32.3334C19 32.7112 18.8724 33.0276 18.6173 33.2827C18.3613 33.5387 18.0444 33.6667 17.6667 33.6667Z" fill="#0071AF"/>
</g>
</svg>
