<svg width="32" height="32" viewBox="0 0 32 32" fill="none" xmlns="http://www.w3.org/2000/svg">
<circle cx="16" cy="16" r="16" fill="#ADEBFF"/>
<mask id="mask0_139_2291" style="mask-type:alpha" maskUnits="userSpaceOnUse" x="6" y="6" width="20" height="20">
<rect x="6.39999" y="6.40002" width="19.2" height="19.2" fill="#D9D9D9"/>
</mask>
<g mask="url(#mask0_139_2291)">
<path d="M10.4 24C9.95999 24 9.58319 23.8435 9.26959 23.5304C8.95652 23.2168 8.79999 22.84 8.79999 22.4V11.2H10.4V22.4H19.2V24H10.4ZM13.6 20.8C13.16 20.8 12.7835 20.6435 12.4704 20.3304C12.1568 20.0168 12 19.64 12 19.2V9.6C12 9.16 12.1568 8.7832 12.4704 8.4696C12.7835 8.15653 13.16 8 13.6 8H20.8C21.24 8 21.6168 8.15653 21.9304 8.4696C22.2435 8.7832 22.4 9.16 22.4 9.6V19.2C22.4 19.64 22.2435 20.0168 21.9304 20.3304C21.6168 20.6435 21.24 20.8 20.8 20.8H13.6ZM13.6 19.2H20.8V9.6H13.6V19.2Z" fill="#0071AF"/>
</g>
</svg>
