<svg width="32" height="32" viewBox="0 0 32 32" fill="none" xmlns="http://www.w3.org/2000/svg">
<circle cx="16" cy="16" r="16" fill="#ADEBFF"/>
<mask id="mask0_139_2115" style="mask-type:alpha" maskUnits="userSpaceOnUse" x="6" y="6" width="20" height="20">
<rect x="6.39999" y="6.3999" width="19.2" height="19.2" fill="#D9D9D9"/>
</mask>
<g mask="url(#mask0_139_2115)">
<path d="M16 19.1999C17 19.1999 17.8501 18.85 18.5504 18.1503C19.2501 17.45 19.6 16.5999 19.6 15.5999C19.6 14.5999 19.2501 13.7497 18.5504 13.0495C17.8501 12.3497 17 11.9999 16 11.9999C15 11.9999 14.1498 12.3497 13.4496 13.0495C12.7498 13.7497 12.4 14.5999 12.4 15.5999C12.4 16.5999 12.7498 17.45 13.4496 18.1503C14.1498 18.85 15 19.1999 16 19.1999ZM16 17.7599C15.4 17.7599 14.8901 17.5497 14.4704 17.1295C14.0501 16.7097 13.84 16.1999 13.84 15.5999C13.84 14.9999 14.0501 14.4897 14.4704 14.0695C14.8901 13.6497 15.4 13.4399 16 13.4399C16.6 13.4399 17.1101 13.6497 17.5304 14.0695C17.9501 14.4897 18.16 14.9999 18.16 15.5999C18.16 16.1999 17.9501 16.7097 17.5304 17.1295C17.1101 17.5497 16.6 17.7599 16 17.7599ZM16 21.5999C14.0533 21.5999 12.28 21.0564 10.68 19.9695C9.07998 18.8831 7.91998 17.4265 7.19998 15.5999C7.91998 13.7732 9.07998 12.3164 10.68 11.2295C12.28 10.1431 14.0533 9.59985 16 9.59985C17.9466 9.59985 19.72 10.1431 21.32 11.2295C22.92 12.3164 24.08 13.7732 24.8 15.5999C24.08 17.4265 22.92 18.8831 21.32 19.9695C19.72 21.0564 17.9466 21.5999 16 21.5999ZM16 19.9999C17.5066 19.9999 18.8901 19.6031 20.1504 18.8095C21.4101 18.0164 22.3733 16.9465 23.04 15.5999C22.3733 14.2532 21.4101 13.1831 20.1504 12.3895C18.8901 11.5964 17.5066 11.1999 16 11.1999C14.4933 11.1999 13.1098 11.5964 11.8496 12.3895C10.5898 13.1831 9.62665 14.2532 8.95998 15.5999C9.62665 16.9465 10.5898 18.0164 11.8496 18.8095C13.1098 19.6031 14.4933 19.9999 16 19.9999Z" fill="#0071AF"/>
</g>
</svg>
