<svg width="32" height="32" viewBox="0 0 32 32" fill="none" xmlns="http://www.w3.org/2000/svg">
<circle cx="16" cy="16" r="16" fill="#ADEBFF"/>
<mask id="mask0_139_2319" style="mask-type:alpha" maskUnits="userSpaceOnUse" x="6" y="6" width="20" height="20">
<rect x="6.4" y="6.40002" width="19.2" height="19.2" fill="#D9D9D9"/>
</mask>
<g mask="url(#mask0_139_2319)">
<path d="M8 22.4V20H9.6V11.2C9.6 10.76 9.7568 10.3834 10.0704 10.0704C10.3835 9.75678 10.76 9.59998 11.2 9.59998H23.2V11.2H11.2V20H16V22.4H8ZM18.4 22.4C18.1733 22.4 17.9835 22.3232 17.8304 22.1696C17.6768 22.0165 17.6 21.8266 17.6 21.6V13.6C17.6 13.3733 17.6768 13.1832 17.8304 13.0296C17.9835 12.8765 18.1733 12.8 18.4 12.8H23.2C23.4267 12.8 23.6165 12.8765 23.7696 13.0296C23.9232 13.1832 24 13.3733 24 13.6V21.6C24 21.8266 23.9232 22.0165 23.7696 22.1696C23.6165 22.3232 23.4267 22.4 23.2 22.4H18.4ZM19.2 20H22.4V14.4H19.2V20Z" fill="#0071AF"/>
</g>
</svg>
