<svg width="54" height="54" viewBox="0 0 54 54" fill="none" xmlns="http://www.w3.org/2000/svg">
<circle cx="27" cy="27" r="27" fill="#ADEBFF"/>
<mask id="mask0_126_1214" style="mask-type:alpha" maskUnits="userSpaceOnUse" x="12" y="12" width="30" height="30">
<rect x="12" y="12" width="30" height="30" fill="#D9D9D9"/>
</mask>
<g mask="url(#mask0_126_1214)">
<path d="M17 37C16.3125 37 15.7242 36.7554 15.235 36.2663C14.745 35.7763 14.5 35.1875 14.5 34.5V19.5C14.5 18.8125 14.745 18.2242 15.235 17.735C15.7242 17.245 16.3125 17 17 17H37C37.6875 17 38.2763 17.245 38.7663 17.735C39.2554 18.2242 39.5 18.8125 39.5 19.5V24.5H37V22L27 28.25L17 22V34.5H32V37H17ZM27 25.75L37 19.5H17L27 25.75ZM35.75 37C35.3958 37 35.0992 36.88 34.86 36.64C34.62 36.4008 34.5 36.1042 34.5 35.75V32C34.5 31.6458 34.62 31.3487 34.86 31.1087C35.0992 30.8696 35.3958 30.75 35.75 30.75V29.5C35.75 28.8125 35.9946 28.2238 36.4837 27.7337C36.9737 27.2446 37.5625 27 38.25 27C38.9375 27 39.5263 27.2446 40.0163 27.7337C40.5054 28.2238 40.75 28.8125 40.75 29.5V30.75C41.1042 30.75 41.4008 30.8696 41.64 31.1087C41.88 31.3487 42 31.6458 42 32V35.75C42 36.1042 41.88 36.4008 41.64 36.64C41.4008 36.88 41.1042 37 40.75 37H35.75ZM37 30.75H39.5V29.5C39.5 29.1458 39.38 28.8487 39.14 28.6087C38.9008 28.3696 38.6042 28.25 38.25 28.25C37.8958 28.25 37.5992 28.3696 37.36 28.6087C37.12 28.8487 37 29.1458 37 29.5V30.75Z" fill="#0071AF"/>
</g>
</svg>
