<svg width="32" height="32" viewBox="0 0 32 32" fill="none" xmlns="http://www.w3.org/2000/svg">
<circle cx="16" cy="16" r="16" fill="#ADEBFF"/>
<mask id="mask0_139_2087" style="mask-type:alpha" maskUnits="userSpaceOnUse" x="6" y="6" width="20" height="20">
<rect x="6.3999" y="6.40002" width="19.2" height="19.2" fill="#D9D9D9"/>
</mask>
<g mask="url(#mask0_139_2087)">
<path d="M15.2 23.96C14.1867 23.8534 13.2435 23.5768 12.3704 23.1304C11.4968 22.6835 10.7368 22.1032 10.0904 21.3896C9.44347 20.6766 8.93333 19.86 8.56 18.94C8.18667 18.02 8 17.04 8 16C8 14.7867 8.24347 13.6667 8.7304 12.64C9.2168 11.6134 9.88 10.7334 10.72 10H8.8V8.40004H13.6V13.2H12V11.02C11.2667 11.6067 10.6832 12.3302 10.2496 13.1904C9.81653 14.0502 9.6 14.9867 9.6 16C9.6 17.64 10.1368 19.0566 11.2104 20.2496C12.2835 21.4432 13.6133 22.14 15.2 22.34V23.96ZM14.86 19.68L11.48 16.28L12.6 15.16L14.86 17.42L19.4 12.88L20.52 14.02L14.86 19.68ZM18.4 23.6V18.8H20V20.98C20.7333 20.38 21.3168 19.6534 21.7504 18.8C22.1835 17.9467 22.4 17.0134 22.4 16C22.4 14.36 21.8635 12.9432 20.7904 11.7496C19.7168 10.5566 18.3867 9.86004 16.8 9.66004V8.04004C18.8267 8.24004 20.5333 9.09337 21.92 10.6C23.3067 12.1067 24 13.9067 24 16C24 17.2134 23.7565 18.3334 23.2696 19.36C22.7832 20.3867 22.12 21.2667 21.28 22H23.2V23.6H18.4Z" fill="#0071AF"/>
</g>
</svg>
