<svg fill="none" height="54" width="54" xmlns="http://www.w3.org/2000/svg"><circle cx="27" cy="27" fill="#adebff" r="27"/><path d="m31.88 28.313-2.652 2.652 7.495 7.495 2.652-2.651zm1.995-3.813a4.38 4.38 0 0 0 4.375-4.375c0-.725-.2-1.4-.513-2l-3.375 3.375-1.862-1.863 3.375-3.375a4.319 4.319 0 0 0 -2-.512 4.38 4.38 0 0 0 -4.375 4.375c0 .512.1 1 .262 1.45l-2.312 2.313-2.225-2.226.887-.887-1.762-1.762 2.65-2.65a3.75 3.75 0 0 0 -5.3 0l-4.425 4.425 1.763 1.762h-3.526l-.887.887 4.425 4.425.887-.887v-3.538l1.763 1.763.887-.887 2.226 2.225-9.263 9.262 2.65 2.65 14.225-14.213c.45.163.938.263 1.45.263z" fill="#0071af"/></svg>