<svg fill="none" height="24" viewBox="0 0 132 24" width="132" xmlns="http://www.w3.org/2000/svg"><path d="m8.15602 0h-8.15602v7.99993h8.15602z" fill="#23376b"/><path d="m16.3123 0h-8.15605v7.99993h8.15605z" fill="#0071af"/><path d="m24.4686 15.9998h-8.1561v7.9999h8.1561z" fill="#5b185e"/><path d="m16.3123 15.9998h-8.15605v7.9999h8.15605z" fill="#ff574c"/><path d="m16.3125 0v7.99993 7.99997l8.1561-7.99997v-7.99993z" fill="#3cf"/><path d="m0 16.0002v7.9999h8.15602v-7.9999-7.99996z" fill="#ffbf25"/><path d="m51.4792 12.117c0-1.611-1.0253-3.00741-2.8244-3.00741-1.7999 0-2.8023 1.39641-2.8023 3.00741 0 1.6318 1.0024 3.0279 2.8023 3.0279 1.7991 0 2.8244-1.3961 2.8244-3.0279zm50.6178 0c0-1.611-1.026-3.00741-2.8248-3.00741-1.7998 0-2.8019 1.39641-2.8019 3.00741 0 1.6318 1.0021 3.0279 2.8019 3.0279 1.7988 0 2.8248-1.3961 2.8248-3.0279zm-38.0628 0c0-1.611-1.0253-3.00741-2.8245-3.00741-1.7998 0-2.8022 1.39641-2.8022 3.00741 0 1.6318 1.0024 3.0279 2.8022 3.0279 1.7992 0 2.8245-1.3961 2.8245-3.0279zm-21.1879 0c0-2.94232 2.1863-5.43395 5.8085-5.43395 3.644 0 5.8314 2.49163 5.8314 5.43395 0 2.9634-2.1874 5.4544-5.8314 5.4544-3.6222 0-5.8085-2.491-5.8085-5.4544zm12.555 0c0-2.94232 2.1866-5.43395 5.8084-5.43395 3.6444 0 5.8313 2.49163 5.8313 5.43395 0 2.9634-2.1869 5.4544-5.8313 5.4544-3.6218 0-5.8084-2.491-5.8084-5.4544zm26.6099 5.1971v-6.5501c0-.96666-.4559-1.65441-1.6396-1.65441-1.0257 0-1.8682.64491-2.2779 1.20311v7.0014h-2.9156v-6.5501c0-.96666-.4565-1.65441-1.6402-1.65441-1.0025 0-1.8454.64491-2.2779 1.22401v6.9805h-2.8935v-10.37369h2.8935v1.35359c.4554-.62334 1.9132-1.61095 3.599-1.61095 1.6174 0 2.6419.70867 3.0524 1.89023.6377-.94511 2.0956-1.89023 3.7813-1.89023 2.0271 0 3.2341 1.00954 3.2341 3.13588v7.49517zm5.4348 0v-10.93192c0-2.25519 1.5492-3.60777 3.7132-3.60777.8199 0 1.5712.17204 2.0949.4294l-.5916 1.93272c-.2508-.15043-.5922-.21486-.9342-.21486-.8199 0-1.3666.51573-1.3666 1.50402v.76702h2.2325v2.3837h-2.2325v7.73769zm6.017-5.1971c0-2.94232 2.1874-5.43395 5.8092-5.43395 3.6448 0 5.8318 2.49163 5.8318 5.43395 0 2.9634-2.187 5.4544-5.8318 5.4544-3.6218 0-5.8092-2.491-5.8092-5.4544zm13.092 5.1971v-10.37369h2.893v1.41801c.774-.92353 2.142-1.67537 3.508-1.67537v2.66298c-.205-.0425-.479-.06442-.797-.06442-.957 0-2.233.51574-2.711 1.18159v6.8509zm7.926-2.577v-10.63102h2.916v2.83433h2.232v2.38403h-2.232v4.68236c0 .6443.365 1.1381 1.003 1.1381.432 0 .842-.1505 1.002-.3009l.615 2.0623c-.434.3653-1.208.6651-2.415.6651-2.027 0-3.121-.9876-3.121-2.8343zm14.626 2.577v-6.3142c0-1.43901-.797-1.89031-2.05-1.89031-1.117 0-2.005.60174-2.506 1.22401v6.9805h-2.893v-14.32516h2.893v5.30506c.706-.79468 2.073-1.61095 3.872-1.61095 2.415 0 3.577 1.24599 3.577 3.26473v7.36632zm-96.107-.0011v-2.048l4.9856-5.97327h-4.9856v-2.39315h8.9191v1.984l-5.0539 6.03732h5.1455v2.3931z" fill="#fff"/></svg>