<svg width="166" height="42" viewBox="0 0 166 42" fill="none" xmlns="http://www.w3.org/2000/svg">
<g clip-path="url(#clip0_868_1980)">
<path d="M142.92 0C134.296 0 127.195 7.33333 127.195 16.5333C127.195 25.6 134.17 33.0667 142.92 33.0667C151.543 33.0667 158.645 25.7333 158.645 16.5333C158.645 7.33333 151.543 0 142.92 0ZM155.094 7.33333C154.333 7.86667 153.445 8.4 152.558 8.93333C152.05 7.86667 151.416 6.8 150.655 5.86667C151.29 5.46667 151.924 4.93333 152.431 4.53333C153.572 5.2 154.46 6.26667 155.094 7.33333ZM148.5 1.86667C149.768 2.4 150.909 3.06667 152.05 4C151.543 4.53333 150.909 4.93333 150.275 5.33333C149.514 4.4 148.626 3.6 147.739 2.8C147.992 2.4 148.246 2.13333 148.5 1.86667ZM149.768 5.6C148.88 6.13333 147.992 6.4 147.105 6.8C146.724 5.86667 146.344 4.93333 145.837 4.13333C146.344 3.86667 146.851 3.6 147.231 3.2C148.119 3.86667 149.007 4.66667 149.768 5.6ZM147.866 1.6C147.612 1.86667 147.358 2.13333 147.231 2.4C146.344 1.86667 145.583 1.33333 144.568 0.933333C145.71 0.933333 146.851 1.2 147.866 1.6ZM146.724 2.8C146.344 3.06667 145.963 3.33333 145.583 3.46667C145.076 2.66667 144.568 2 144.061 1.2C144.949 1.6 145.837 2.13333 146.724 2.8ZM143.173 1.33333C143.807 2 144.315 2.8 144.822 3.73333C144.315 3.86667 143.807 4 143.173 4V1.33333ZM143.173 4.66667C143.807 4.66667 144.568 4.53333 145.202 4.26667C145.71 5.06667 146.09 6 146.471 6.93333C145.456 7.2 144.315 7.33333 143.173 7.46667V4.66667ZM142.539 1.33333V4C142.032 4 141.525 3.86667 140.891 3.73333C141.525 2.93333 142.032 2.13333 142.539 1.33333ZM140.383 3.46667C140.003 3.33333 139.496 3.06667 139.242 2.8C140.13 2.26667 141.018 1.73333 141.905 1.33333C141.271 2 140.764 2.66667 140.383 3.46667ZM141.271 0.8C140.384 1.2 139.496 1.73333 138.608 2.26667C138.354 2 138.101 1.73333 137.974 1.46667C138.989 1.2 140.13 0.933333 141.271 0.8ZM152.05 29.0667C150.021 27.8667 149.895 26.1333 150.021 25.6C150.148 24.9333 150.529 25.2 150.782 25.2C152.177 25.2 153.572 24.8 155.348 22.8C157.377 20.6667 158.011 15.8667 154.84 12.8C151.543 9.46667 147.992 10 145.71 13.0667C145.202 13.7333 144.061 14.1333 143.173 14.1333C141.652 14.1333 142.666 15.3333 142.666 15.6C142.666 15.8667 142.413 16 142.286 16C141.778 15.8667 142.032 16.6667 142.032 16.8C142.032 16.9333 141.778 17.2 141.778 17.2C141.144 17.2 141.271 17.7333 141.398 18C141.398 18.1333 141.398 18.4 141.144 18.5333C140.891 18.6667 140.764 19.2 140.764 19.6C140.764 20.2667 141.398 20.8 142.413 21.6C143.427 22.4 143.554 23.2 143.554 23.7333C143.554 24.2667 143.681 25.2 143.807 25.7333C144.061 26.4 144.061 27.7333 142.666 27.7333C140.891 27.8667 137.847 29.2 137.594 29.3333C136.579 29.7333 135.311 29.8667 134.296 29.6C133.789 29.2 133.282 28.8 132.775 28.2667C132.521 27.6 132.901 26.8 133.282 26.2667C133.916 26.9333 134.677 26.8 135.184 26.8C135.691 26.8 137.974 26.4 138.354 26.2667C138.735 26.1333 138.862 26.1333 138.989 26.2667C139.876 26.6667 141.144 26.6667 141.652 24.9333C142.159 23.0667 141.018 23.6 140.764 23.7333C140.637 23.8667 140.384 23.7333 140.51 23.6C140.764 23.2 140.383 23.2 140.257 23.2C139.749 23.2 139.115 23.7333 138.989 23.8667C138.735 24 138.608 24 138.481 24C137.847 23.6 135.945 24.1333 135.311 23.0667C135.311 22.8 134.804 18.4 134.55 17.6C134.55 17.4667 134.423 17.2 134.677 16.9333C135.184 16.1333 136.452 16.9333 137.213 16.9333C138.101 16.9333 138.228 16.5333 138.481 16.2667C138.735 16 138.862 16.1333 138.989 16C139.115 15.8667 138.989 15.7333 138.989 15.6C138.989 15.4667 139.115 15.6 139.242 15.4667C139.369 15.3333 139.242 15.0667 139.242 14.9333C139.496 14.5333 140.003 14.8 139.749 14C139.623 13.4667 139.876 12.9333 140.13 12.6667C140.51 12.1333 142.159 9.73333 139.369 7.2C136.706 4.8 133.916 5.06667 132.141 7.06667C130.365 9.06667 131.253 12 131.38 12.8C131.507 13.6 130.999 14.2667 130.365 14.5333C129.858 14.8 128.717 15.6 127.956 16.2667C128.083 9.86667 131.76 4.26667 137.34 2C137.594 2.26667 137.847 2.66667 138.101 2.93333C137.467 3.46667 136.072 4.66667 136.072 4.66667C136.072 4.66667 136.199 4.66667 136.452 4.8C136.579 4.8 136.833 4.93333 136.833 4.93333C136.833 4.93333 137.974 3.86667 138.608 3.46667C138.989 3.86667 139.496 4.13333 140.003 4.4C139.749 4.93333 138.989 6.26667 138.989 6.26667C138.989 6.26667 139.115 6.4 139.242 6.4C139.369 6.53333 139.496 6.53333 139.496 6.53333C139.496 6.53333 140.257 5.06667 140.51 4.53333C141.144 4.8 141.778 4.93333 142.413 4.93333V7.6C142.032 7.6 141.144 7.6 140.764 7.46667H140.51L140.637 7.73333C140.764 7.86667 140.764 8 140.891 8.13333C141.144 8.13333 142.032 8.13333 142.413 8.13333V13.0667H143.047V11.8667C144.061 11.8667 144.822 11.7333 145.71 11.6L146.597 10.8H146.09C145.076 10.9333 144.188 11.0667 143.427 11.0667C143.427 11.0667 143.173 11.0667 143.047 11.0667V8C144.188 8 145.456 7.86667 146.597 7.46667C146.851 8.26667 147.485 10.2667 147.485 10.2667L148.119 10C148.119 10 147.485 8 147.231 7.2C148.246 6.93333 149.134 6.4 150.021 6C150.782 6.93333 151.416 8 151.924 9.06667C151.416 9.33333 150.655 9.6 150.655 9.6C151.29 9.73333 151.797 9.86667 151.797 9.86667C151.797 9.86667 152.05 9.73333 152.177 9.73333C152.177 9.86667 152.304 10.1333 152.304 10.1333L153.192 10.5333L153.065 10.2667C153.065 10.2667 152.811 9.6 152.684 9.46667C153.572 9.06667 154.46 8.53333 155.348 7.86667C156.996 10.4 157.757 13.4667 157.757 16.5333C158.011 21.6 155.601 26.1333 152.05 29.0667Z" fill="#00AEEF"/>
<path d="M125.8 4.4L125.546 4.66666C124.659 5.46666 122.503 7.73333 122.883 10.2667V10.4L123.01 10.9333L123.264 10.6667C124.532 9.46666 125.546 7.33333 125.927 4.93333L126.053 4.26666L125.8 4.4Z" fill="#00AEEF"/>
<path d="M121.488 8.66666L121.361 8.93332C121.235 9.33332 120.981 10.2667 120.854 11.3333C120.6 12.9333 120.727 15.3333 121.995 17.0667L122.122 17.3333L122.249 17.6L122.503 16.5333C122.756 14.6667 122.376 10.8 121.742 9.06666L121.488 8.53333V8.66666Z" fill="#00AEEF"/>
<path d="M119.966 15.3333V15.6C119.84 17.2 119.966 21.3333 123.137 23.6L123.517 23.8667V23.3333C123.517 21.7333 121.742 17.0667 120.474 15.4667L120.093 14.9333L119.966 15.3333Z" fill="#00AEEF"/>
<path d="M120.474 22.6667V22.9334C120.981 25.3334 123.01 29.0667 126.307 30.2667L126.814 30.4L126.688 29.8667C126.053 28.1334 122.883 24 120.854 22.6667L120.474 22.4V22.6667Z" fill="#00AEEF"/>
<path d="M127.195 7.99997L126.814 8.1333C124.405 9.7333 123.264 11.6 123.264 14V14.5333L123.644 14.2666C124.912 13.0666 126.688 10.1333 127.068 8.5333L127.195 7.86664V7.99997Z" fill="#00AEEF"/>
<path d="M125.673 13.0667L125.546 13.3334C124.912 14 122.883 16.2667 123.01 19.0667C123.01 19.4667 123.137 20 123.264 20.4L123.39 20.8L123.644 20.4C124.659 18.9334 125.927 15.2 125.8 13.4667V12.9333L125.673 13.0667Z" fill="#00AEEF"/>
<path d="M125.8 18L125.673 18.2666C124.659 19.8666 124.151 21.4666 124.151 23.0666C124.151 24.1333 124.532 25.2 125.166 26.2666L125.419 26.6666L125.546 26.2666C125.927 25.3333 126.307 22.5333 126.307 20.2666C126.307 19.4666 126.18 18.8 126.053 18.4L125.927 17.8666L125.8 18Z" fill="#00AEEF"/>
<path d="M126.941 23.2L126.814 23.4667C126.561 24.5333 126.307 25.4667 126.434 26.5333C126.434 28.6667 127.448 30.4 129.224 31.6L129.477 31.7333L129.604 31.3333V30.9333C129.604 29.2 128.336 24.6667 127.322 23.3333L127.068 22.9333L126.941 23.2Z" fill="#00AEEF"/>
<path d="M123.517 30.1333L123.644 30.4C124.912 32.6667 127.195 35.7333 131.38 34.9333H131.76L131.507 34.6667C130.746 33.4667 125.673 30.4 123.898 30.1333L123.39 30L123.517 30.1333Z" fill="#00AEEF"/>
<path d="M129.731 36L129.097 36.1333L129.731 36.4C132.394 37.6 135.691 37.8666 137.72 37.2C138.481 36.9333 138.862 36.5333 139.369 36C142.793 36.4 145.963 39.3333 147.866 41.7333L147.992 41.8666H148.119C148.373 41.7333 148.626 41.4667 148.753 41.3333L148.88 41.2L148.753 41.0666C146.851 38.4 143.808 36.8 143.681 36.6666C140.891 35.3333 136.072 34.2666 129.731 36Z" fill="#00AEEF"/>
<path d="M129.858 28.5334V28.8C130.238 31.4667 131.253 34.9334 135.565 34.5334H135.818L135.691 34.2667C135.438 33.0667 131.507 29.6 130.112 28.6667L129.731 28.4L129.858 28.5334Z" fill="#00AEEF"/>
<path d="M159.786 4.13336L159.913 4.80003C160.293 7.20003 161.308 9.33336 162.576 10.5334L162.83 10.8L162.956 10.2667V10.1334C163.337 7.60003 161.181 5.33336 160.293 4.53336L160.04 4.2667L159.786 4.13336Z" fill="#00AEEF"/>
<path d="M164.225 8.40002L163.971 8.93336C163.337 10.6667 163.083 14.5334 163.21 16.4L163.464 17.4667L163.591 17.3334L163.717 17.0667C165.112 15.3334 165.112 13.0667 164.859 11.3334C164.732 10.1334 164.478 9.33336 164.351 8.93336L164.225 8.66669V8.40002Z" fill="#00AEEF"/>
<path d="M165.873 15.0667L165.493 15.6C164.225 17.3333 162.449 21.8667 162.449 23.4667V24L162.83 23.7333C166 21.6 166.127 17.4667 166 15.7333V15.4667L165.873 15.0667Z" fill="#00AEEF"/>
<path d="M165.366 22.4L164.859 22.6667C162.83 24 159.659 28.1334 159.025 29.8667L158.898 30.4L159.406 30.2667C162.703 29.2 164.859 25.3334 165.239 22.9334V22.6667L165.366 22.4Z" fill="#00AEEF"/>
<path d="M158.645 7.73334L158.772 8.4C159.279 10.1333 160.801 13.0667 162.196 14.2667L162.576 14.5333V14C162.703 11.6 161.561 9.73334 159.152 8.13334L158.898 8L158.645 7.73334Z" fill="#00AEEF"/>
<path d="M160.04 12.9333V13.4667C159.913 15.2 161.308 19.0667 162.196 20.4L162.449 20.8L162.576 20.4C162.703 19.8667 162.83 19.4667 162.83 19.0667C162.956 16.2667 160.927 14 160.293 13.3334L160.167 13.2L160.04 12.9333Z" fill="#00AEEF"/>
<path d="M159.913 17.7333L159.786 18.2667C159.659 18.6667 159.532 19.3333 159.532 20.1333C159.532 22.4 159.786 25.2 160.293 26.1333L160.42 26.5333L160.674 26.1333C161.308 25.2 161.688 24.1333 161.688 22.9333C161.688 21.4667 161.181 19.7333 160.167 18.1333L160.04 17.8667L159.913 17.7333Z" fill="#00AEEF"/>
<path d="M158.772 22.9333L158.518 23.3333C157.503 24.6667 156.235 29.2 156.235 30.9333C156.235 30.9333 156.235 31.2 156.235 31.3333L156.362 31.7333L156.616 31.6C158.391 30.4 159.279 28.6667 159.406 26.5333C159.406 25.6 159.279 24.5333 159.025 23.4667L158.898 23.2L158.772 22.9333Z" fill="#00AEEF"/>
<path d="M162.449 29.8666L161.942 30C160.167 30.2666 155.094 33.3333 154.333 34.5333L154.079 34.8H154.46C158.645 35.6 160.927 32.5333 162.196 30.2666L162.322 30L162.449 29.8666Z" fill="#00AEEF"/>
<path d="M142.286 36.6666C142.159 36.6666 139.115 38.4 137.213 41.0666L137.086 41.2L137.213 41.3333C137.34 41.4667 137.72 41.7333 137.847 41.8666H137.974L138.101 41.7333C140.003 39.3333 143.173 36.2666 146.597 36C147.105 36.5333 147.612 36.9333 148.246 37.2C150.148 37.8666 153.572 37.6 156.235 36.4L156.869 36.1333L156.235 36C149.768 34.2666 144.949 35.3333 142.286 36.6666Z" fill="#00AEEF"/>
<path d="M155.982 28.2667L155.601 28.5333C154.206 29.4667 150.402 32.9333 150.021 34.1333L149.895 34.4H150.148C154.333 34.8 155.348 31.3333 155.855 28.6667V28.4L155.982 28.2667Z" fill="#00AEEF"/>
<path d="M48.9503 1.59998H54.2765V6.66664H48.9503V1.59998ZM49.4576 12.5333H53.8961V37.3333H49.4576V12.5333Z" fill="#00AEEF"/>
<path d="M15.8518 12.5333H20.2903V37.3333H15.9786V33.7333H15.8518C14.0764 36.8 11.0328 38.1333 7.73568 38.1333C2.78992 38.1333 0 34.1333 0 29.2V12.5333H4.4385V27.2C4.4385 31.4667 5.3262 34.6667 9.63789 34.6667C11.4133 34.6667 13.9496 33.7333 14.8373 31.0667C15.725 28.8 15.725 25.8667 15.725 25.2V12.5333H15.8518Z" fill="#00AEEF"/>
<path d="M29.1673 16.1333C30.8159 13.0667 33.9863 11.7333 36.3957 11.7333C38.0443 11.7333 45.2727 12.1333 45.2727 20.1333V37.2H40.8342V21.6C40.8342 17.4667 39.1856 15.3333 35.3812 15.3333C35.3812 15.3333 32.9717 15.2 31.0695 17.2C30.4354 17.8667 29.1673 18.9333 29.1673 23.8667V37.3333H24.7288V12.5333H29.1673V16.1333Z" fill="#00AEEF"/>
<path d="M72.5378 20.4C72.2842 17.3333 70.8892 15.2 67.7189 15.2C63.534 15.2 61.8854 19.0667 61.8854 24.8C61.8854 30.5333 63.534 34.4 67.7189 34.4C70.6356 34.4 72.411 32.4 72.6646 28.8H77.1031C76.7227 34.4 72.7914 37.7333 67.5921 37.7333C60.11 37.7333 57.0665 32.1333 57.0665 24.9333C57.0665 17.7333 60.4905 11.7333 67.9725 11.7333C72.9183 11.7333 76.5959 15.0667 76.8495 20.4H72.5378V20.4Z" fill="#00AEEF"/>
<path d="M83.6975 25.7333C83.317 30 85.0924 34.5333 89.5309 34.5333C92.9549 34.5333 94.7303 33.0666 95.2376 29.4666H99.9297C99.1688 35.0666 95.1108 37.8666 89.5309 37.8666C82.0489 37.8666 79.0053 32.2666 79.0053 25.0666C79.0053 17.8666 82.4293 11.8666 89.9114 11.8666C96.8862 12 100.183 16.6666 100.183 23.4666V25.7333H83.6975ZM95.618 22.5333C95.7448 18.4 93.9694 15.2 89.6577 15.2C85.9801 15.2 83.8243 18.5333 83.8243 22.5333H95.618Z" fill="#00AEEF"/>
<path d="M105.256 37.0667V15.7334H101.198V12.5334H105.256V7.20002C105.383 1.86669 109.314 0.400024 112.611 0.400024C113.626 0.400024 114.767 0.666691 115.782 0.933358V4.80002C115.021 4.80002 114.26 4.66669 113.499 4.66669C110.963 4.66669 109.568 5.33336 109.694 8.00002V12.5334H115.147V15.7334H109.694V37.0667H105.256Z" fill="#00AEEF"/>
</g>
<defs>
<clipPath id="clip0_868_1980">
<rect width="166" height="42" fill="white"/>
</clipPath>
</defs>
</svg>
