<svg width="163" height="73" viewBox="0 0 163 73" fill="none" xmlns="http://www.w3.org/2000/svg">
<path d="M28.75 58.3765C29.375 58.0065 30.8 57.2665 30.975 57.1432C31.25 56.9705 31.4 56.9952 31.425 57.0938C31.45 57.4145 31.45 58.0805 31.875 58.2285C32 58.2778 32.3 58.1298 32.35 58.2038C32.5 58.4258 32.5 58.3765 32.55 58.4505C32.6 58.5245 32.8 58.4752 32.85 58.5245C32.975 58.6232 32.85 58.7712 32.9 58.8452C33 58.9685 33.2 58.7712 33.3 58.7958C33.475 58.8205 33.525 59.0425 33.5 59.1659C33.45 59.3879 33.575 59.5359 33.95 59.2645C34.125 59.1165 34.15 59.1905 34.3 59.1165C34.4 59.0672 34.55 59.0672 34.625 59.1412C34.7 59.2152 34.8 59.3139 34.9 59.3632C35.05 59.4125 35.2 59.3632 35.3 59.3879C35.45 59.4372 35.45 59.6345 35.575 59.6592C35.7 59.6839 35.825 59.4372 35.9 59.5112C36.125 59.7085 35.725 60.0539 36 60.1279C36.15 60.1772 36.2 60.0539 36.325 60.0292C36.45 60.0045 36.5 59.8812 36.625 59.8812C36.725 59.8812 36.8 60.0045 36.925 59.9305C37.025 59.8812 37.125 59.8319 37.225 59.7825C37.375 59.7085 37.525 59.7332 37.6 59.6838C37.7 59.6098 37.625 59.3878 37.925 59.4372C38.225 59.4865 37.875 59.7825 38 59.8812C38.1 59.9799 38.35 59.8812 38.45 59.8565C38.625 59.8072 38.775 59.6098 38.825 59.4618C38.9 59.2892 39.15 58.7465 39.25 58.5985C39.35 58.4505 39.6 57.8585 39.75 57.6612C39.875 57.4638 40.425 56.6005 40.475 56.4772C40.525 56.3538 40.725 56.1565 40.775 56.0578C40.825 55.9592 40.925 55.6138 41.075 55.3425C41.2 55.0711 41.575 54.5285 41.625 54.4298C41.65 54.3311 41.95 53.6651 42.05 53.4678C42.15 53.2705 42.5 52.8018 42.6 52.5798C42.675 52.3578 42.925 51.8891 42.925 51.8891L43.175 51.4698C43.175 51.4698 43.25 51.2971 43.375 51.0258C43.5 50.7791 43.85 50.2364 43.95 50.0391C44.05 49.8664 44.35 49.4718 44.35 49.4718L44.575 48.9784L44.75 48.6084C44.75 48.6084 44.875 48.1644 44.95 48.0658C45.025 47.9424 45.25 47.6711 45.325 47.5231C45.4 47.3751 45.6 46.7091 45.7 46.4871C45.8 46.2897 46.3 45.4017 46.35 45.2537C46.4 45.0811 46.9 44.1684 46.95 43.9957C47 43.7984 47.025 43.5517 47.075 43.4284C47.15 43.305 47.35 43.009 47.375 42.935C47.4 42.861 47.75 42.047 47.8 41.9237C47.85 41.8004 47.875 41.5784 48.025 41.5784C48.15 41.5784 48.25 41.7264 48.35 41.8497C48.45 41.9977 48.65 41.973 48.775 42.0964C48.9 42.2197 49.275 42.639 49.3 42.713C49.325 42.787 49.525 42.787 49.575 42.861C49.625 42.935 49.65 43.1077 49.725 43.1324C49.8 43.157 50.125 43.4037 50.2 43.5024C50.275 43.601 50.35 43.7984 50.45 43.8724C50.525 43.9464 50.925 44.1684 50.975 44.267C51.025 44.3657 51.6 45.0317 51.65 45.1551C51.725 45.2784 51.775 45.4757 51.825 45.5497C51.875 45.6237 52.075 45.7471 52.1 45.8457C52.125 45.9197 52.125 46.2404 52.175 46.3144C52.225 46.3884 52.45 46.4871 52.5 46.5857C52.525 46.6597 52.625 46.9804 52.7 47.0297C52.75 47.0791 52.85 47.1531 52.875 47.2024C52.9 47.2764 52.95 47.6464 53 47.6958C53.05 47.7698 53.225 48.0411 53.275 48.1644C53.325 48.2878 53.5 48.5098 53.525 48.5838C53.55 48.6578 53.575 49.0031 53.6 49.1264C53.625 49.2498 53.775 49.4964 53.8 49.5704C53.825 49.6444 53.85 49.8418 53.85 49.8418L53.975 50.1624C53.975 50.1624 54.125 50.4831 54.125 50.6064C54.125 50.7298 54.15 50.8531 54.175 50.9518C54.2 51.0258 54.325 51.2478 54.325 51.3218C54.325 51.3958 54.5 51.7658 54.5 51.7658C54.5 51.7658 54.475 52.1111 54.5 52.1851C54.525 52.2591 54.675 52.5058 54.675 52.5798C54.675 52.6538 54.625 52.8758 54.625 52.8758L54.7 52.9991C54.7 52.9991 54.65 53.1718 54.675 53.2458C54.7 53.3198 54.65 53.4678 54.7 53.5171C54.75 53.5665 54.875 53.9118 54.875 53.9118C54.775 54.0351 47.675 57.2665 44.625 58.6725C40.25 60.6952 31.125 65.2092 30.15 65.7519C29.175 66.2946 28.575 66.6152 28.325 66.5166C27.775 66.2452 26.9 65.4806 26.3 63.8279C25.8 62.4465 25.8 61.2872 25.825 60.6952C25.85 60.2512 25.825 59.9305 26.5 59.5359C26.875 59.4372 28.125 58.7465 28.75 58.3765ZM16.125 33.5616C16.1 33.4876 16.05 33.3643 16.15 33.2656C16.25 33.167 16.4 33.0436 16.5 33.019C16.6 32.9943 16.55 32.8216 16.875 32.7723C17.125 32.7476 17.275 32.427 17.4 32.2296C17.475 32.1063 17.975 31.7609 18.425 31.4896C19.3 30.9469 21.45 29.7629 25.45 27.7156C30.75 25.0022 39.425 21.1049 46.7 18.4162C54.525 15.5055 65.15 12.4714 67.475 11.8548C67.725 11.8054 67.95 11.6574 68.15 11.6328C68.35 11.6081 68.55 11.7068 69.025 11.6081C69.5 11.5094 69.575 11.3861 69.75 11.3368C69.925 11.3121 70.15 11.3614 70.25 11.4108C70.35 11.4354 70.65 11.4354 70.75 11.5094C70.85 11.5834 70.875 11.6821 70.875 11.8054C70.875 11.9288 71.075 12.0768 71.075 12.0768C71.075 12.0768 71.25 12.1508 71.275 12.2741C71.3 12.3974 71.25 12.7181 71.25 12.7181C71.25 12.7181 71.4 12.7181 71.45 12.8414C71.5 12.9894 71.45 13.0635 71.45 13.0635C71.45 13.0635 71.65 13.1868 71.725 13.3595C71.8 13.5321 71.725 14.0255 71.8 14.1981C71.875 14.3708 72.25 14.5681 72.3 14.7655C72.375 14.9875 72.325 15.2588 72.325 15.2588C72.325 15.2588 72.575 15.2835 72.525 15.5301C72.5 15.7768 72.175 16.2948 72.175 16.4428C72.175 16.5661 72.375 16.9362 72.3 17.2075C72.225 17.4788 72.1 17.5035 72.025 17.5528C71.95 17.6022 71.275 17.7008 70.975 17.7748C68.125 18.4655 53.175 22.2642 44.525 25.5696C38.975 27.6909 32.925 29.6889 25.25 33.3396C25.05 33.4383 24.55 33.685 24.55 33.685C24.55 33.685 23.925 34.0056 23.675 34.1043C23.425 34.203 22.875 34.573 22.875 34.573C22.875 34.573 22.425 34.8443 22.375 34.5483C22.35 34.351 22.15 34.4496 21.95 34.3756C21.8 34.3263 21.7 34.1783 21.65 34.129C21.55 34.0303 21.225 34.203 21.05 34.277C20.875 34.351 20.975 34.5236 20.725 34.5483C20.475 34.573 20.35 34.9676 20.125 35.017C19.875 35.0663 19.375 35.3376 19.1 35.461C18.95 35.5103 18.7 35.8063 18.525 35.9543C18.35 36.1023 17.825 36.275 17.675 36.201C17.5 36.127 17.675 35.2143 17.475 34.869C17.4 34.7456 17.475 34.573 17.45 34.4743C17.425 34.3756 17.275 34.4003 17.175 34.351C17.075 34.3263 17.05 34.1536 16.975 34.055C16.9 33.9563 16.925 33.833 16.825 33.759C16.8 33.7343 16.7 33.759 16.625 33.759C16.55 33.759 16.45 33.6356 16.375 33.6356C16.325 33.6356 16.175 33.6356 16.125 33.5616ZM49.2 28.8749C48.85 28.6776 48.975 28.4802 49.375 28.3076C51.9 27.2469 58.3 24.9776 61.975 23.8429C65.1 22.8562 73.75 20.0935 76.175 19.4028C76.75 19.2302 76.975 19.2548 77.25 19.5015C77.9 20.1922 78.525 21.1049 79.125 22.2395C79.675 23.3002 80.15 24.8295 80.35 25.7916C80.475 26.4822 80.15 26.6056 79.775 26.7782C77.1 27.9622 70.5 30.8236 67.75 32.0816C65.075 33.3396 60.15 35.6583 58.5 36.497C57.8 36.8423 57.925 36.9903 57.45 36.4477C57.3 36.275 57.075 35.905 57 35.8063C56.925 35.7076 56 34.8936 55.9 34.795C55.8 34.6963 55.3 34.0796 55.15 33.981C55 33.8823 54.575 33.2656 54.425 33.2163C54.3 33.1423 54.05 33.0436 53.95 32.945C53.85 32.8463 53.675 32.6243 53.575 32.5749C53.475 32.5009 53.25 32.279 53.25 32.279L52.925 31.9829L52.65 31.6869C52.65 31.6869 52.4 31.3909 52.25 31.3169C52.075 31.2429 51.85 30.9716 51.775 30.8729C51.7 30.7743 51.15 30.1083 50.9 29.9356C50.55 29.7136 50.175 29.4916 49.825 29.2449C49.675 29.1709 49.5 29.0476 49.2 28.8749ZM58.925 38.0757C58.65 37.829 59 37.7797 59.3 37.6563C60.425 37.237 67.075 35.165 72.875 33.6603C78.65 32.1556 87.025 30.4536 88.25 30.2069C88.775 30.1083 88.975 30.1823 89.25 30.6016C89.55 31.0949 90.2 32.7229 90.45 34.0303C90.75 35.683 90.475 37.385 90.325 37.8043C90.2 38.1497 89.725 38.1743 88.6 38.4703C87.925 38.643 85.05 39.383 83.85 39.7283C82.5 40.123 78.875 41.159 77.55 41.603C75.9 42.1457 73.75 42.861 73.75 42.861L62.275 43.0584C62.275 43.0584 62.1 42.2937 62 42.2197C61.9 42.1457 61.725 41.7757 61.625 41.677C61.525 41.5784 61.375 41.2084 61.375 41.2084C61.375 41.2084 61.275 40.8137 61.175 40.7397C61.075 40.6657 60.825 40.0984 60.725 40.0243C60.625 39.9503 60.4 39.6543 60.3 39.531C60.2 39.4077 60.15 39.235 59.975 39.087C59.8 38.9637 59.6 38.6923 59.45 38.6183C59.3 38.5443 59.2 38.347 58.925 38.0757ZM45.05 16.2701C44.725 16.2701 44.45 16.2701 44.35 16.1715C44.3 16.1221 44.35 16.0235 44.275 15.9495C44.2 15.8755 44.025 15.9001 43.975 15.9495C43.925 15.9741 43.95 15.9741 43.825 16.0235C43.7 16.0728 43.275 15.9001 43.125 15.9495C42.975 15.9988 42.65 16.0235 42.55 15.9741C42.45 15.9248 42.425 15.6288 42.225 15.5548C42.125 15.5055 41.8 15.3328 41.7 15.1601C41.6 14.9875 41.325 14.7161 41.275 14.5928C41.225 14.4695 41.125 14.2721 41.1 14.1735C41.05 14.0748 40.95 13.8528 40.9 13.7788C40.825 13.7048 40.75 13.6308 40.675 13.5568C40.6 13.4828 40.55 13.2361 40.475 13.1375C40.45 13.0881 40.375 12.9895 40.325 12.8908C40.275 12.8168 40.3 12.7181 40.25 12.6194C40.2 12.5208 40.1 12.3974 40.075 12.2988C40.05 12.2001 40 11.6081 40.025 11.1641C40.05 10.7201 40.025 10.3008 40.075 10.1281C40.125 9.95542 40.225 9.78275 40.25 9.58542C40.3 9.38808 40.525 8.77141 40.6 8.50008C40.65 8.20407 40.825 7.6614 40.9 7.48873C40.975 7.2914 41.175 6.79806 41.275 6.62539C41.375 6.45272 41.75 5.88539 41.9 5.71272C42.05 5.51538 42.75 4.82471 42.925 4.70138C43.375 4.35604 43.85 4.03537 44.325 3.7147C44.45 3.6407 44.625 3.6407 44.625 3.6407L44.8 3.46803C44.8 3.46803 44.9 3.36936 44.975 3.29536C45.075 3.24603 45.275 3.24603 45.275 3.24603C45.275 3.24603 45.525 3.04869 45.775 3.09803C45.9 3.1227 45.975 2.92536 46.075 2.9007C46.175 2.87603 46.55 2.82669 46.6 2.87603C46.65 2.92536 46.725 2.99936 46.925 3.02403C47.125 3.0487 47.3 3.02403 47.375 3.02403C47.475 3.0487 47.6 3.1967 47.675 3.22136C47.75 3.24603 48.675 4.08471 48.8 4.30671C48.85 4.38071 48.85 4.52871 48.875 4.55338C48.9 4.62738 49.075 4.72604 49.125 4.94804C49.175 5.12071 49.35 5.19471 49.375 5.44138C49.375 5.58938 49.675 5.73738 49.775 6.05805C49.8 6.13205 49.825 6.45272 49.85 6.50206C49.875 6.55139 49.95 6.57606 49.975 6.67473C50 6.79806 50.05 6.94606 50.025 7.09407C50 7.24207 50.275 7.76007 50.25 8.05607C50.225 8.35208 50.175 8.64808 50.075 8.94408C50 9.19075 50.05 9.63475 50 9.83209C49.95 10.0294 49.8 10.4734 49.775 10.6214C49.75 10.7694 49.35 11.7068 49.3 11.8054C49.225 11.9041 49 12.3481 48.9 12.4714C48.8 12.5948 48 13.6801 47.875 13.8281C47.725 13.9761 47.375 14.2228 47.325 14.3215C47.225 14.4695 47.15 14.6421 47.05 14.7901C46.9 15.0368 46.675 14.8641 46.575 15.0368C46.425 15.2835 46.175 15.3328 46.125 15.4808C46.05 15.7028 45.875 15.8755 45.8 15.9495C45.65 16.1468 45.25 16.2455 45.05 16.2701ZM22.125 49.4471C22.125 49.4471 18.775 50.5571 17.425 51.0258C16.15 51.4698 14.775 51.9631 13.825 52.3331C12.7 52.7771 10.675 53.5911 10.2 53.7638C9.45003 54.0351 9.12503 53.8625 8.92503 53.4431C8.72503 52.9991 8.25003 52.0865 7.97503 51.0258C7.70003 49.9404 7.60003 49.0524 7.60003 48.7318C7.57503 48.4111 7.85003 47.8191 8.27503 47.5971C8.67503 47.3751 9.65003 46.7831 10.45 46.3391C11.95 45.5004 17.1 42.787 20.175 41.2084C23.425 39.5557 28.55 37.089 31.325 35.757C34.075 34.425 38.6 32.3036 39.15 32.0569C39.7 31.8103 40.275 31.5636 40.55 31.5636C40.825 31.5636 40.725 31.6869 40.725 31.8103C40.725 31.9336 40.625 31.9583 40.6 32.1556C40.575 32.353 40.6 32.5749 40.525 32.7969C40.45 32.9943 40.275 33.1916 40.25 33.315C40.225 33.4383 40.2 33.9316 40.05 34.1043C39.925 34.277 39.425 35.2143 39.325 35.6336C39.225 36.0776 39 36.793 38.9 36.941C38.8 37.1137 38.475 37.7303 38.45 37.9523C38.425 38.1497 38.2 38.643 38.125 38.8403C38.05 39.0377 37.65 39.7777 37.575 39.9257C37.5 40.049 37.225 40.9617 37.175 41.085C37.1 41.2084 36.825 41.6277 36.825 41.6277L36.7 42.195C36.7 42.195 36.325 42.7377 36.325 42.8364C36.325 42.935 36.05 43.8477 35.925 44.045C35.8 44.2424 35.15 45.6977 35 46.1911C34.875 46.6844 34.625 47.4244 34.55 47.5971C34.475 47.7697 34.1 48.3618 34.05 48.5591C33.975 48.7564 33.675 49.7678 33.575 49.9651C33.475 50.1624 33.2 50.7298 33.2 50.9271C33.2 51.1244 33 51.5684 32.825 51.9384C32.65 52.3085 32.45 52.9498 32.35 53.1718C32.25 53.3938 32.1 53.5665 32.075 53.7145C32.05 53.8378 32 54.2325 31.975 54.3311C31.95 54.4298 31.9 54.5038 31.875 54.6025C31.7 54.6765 22.55 58.5738 21.25 59.1659C19.95 59.7579 10.675 64.1239 10.075 64.3952C9.50003 64.6666 8.72503 65.2586 8.17503 64.8639C7.45003 64.3706 6.75003 63.3345 6.27503 62.4219C5.87503 61.6572 5.45003 60.3745 5.40003 59.4618C5.32503 58.3025 5.80003 58.0805 7.52503 57.1185C8.37503 56.6252 15.05 53.1471 17.2 52.0618C17.725 51.7164 22.125 49.4471 22.125 49.4471Z" fill="#EE0000"/>
<path d="M73.25 56.1072H75.25L73.025 64.6913H70.35L68.925 59.2153H68.9L67.475 64.6913H65.475L67.7 56.1072H70.4L71.75 61.6819H71.775L73.25 56.1072ZM78.1 58.4259C77.825 59.5359 80.225 60.6213 79.8 62.6193C79.55 63.7786 78.8 64.864 76.425 64.8393C75.675 64.8393 74.75 64.642 74.1 64.42L74.575 62.4219C75.125 62.718 75.725 62.9153 76.375 62.9153C76.75 62.9153 77.425 62.8906 77.6 62.1999C77.85 61.2873 75.45 60.1773 75.825 58.1792C76.025 57.1679 77.075 55.9592 79.125 55.9592C79.7 55.9592 80.475 56.0579 81.2 56.4526C81.2 56.5266 80.75 58.2286 80.75 58.2286C80.3 57.9572 79.925 57.7846 79.225 57.7846C78.9 57.8092 78.225 57.9572 78.1 58.4259ZM54.875 58.4259C54.575 59.5606 57 60.6213 56.575 62.6193C56.325 63.7786 55.575 64.864 53.175 64.8393C52.425 64.8393 51.5 64.642 50.85 64.42L51.325 62.4219C51.85 62.718 52.475 62.9153 53.1 62.9153C53.475 62.9153 54.15 62.8906 54.325 62.1999C54.575 61.2873 52.175 60.1773 52.55 58.1792C52.75 57.1679 53.8 55.9592 55.85 55.9592C56.425 55.9592 57.275 56.0332 58.05 56.5266C58.05 56.6006 57.475 58.2532 57.475 58.2532C57.025 57.9819 56.625 57.8092 55.95 57.8092C55.65 57.8092 54.975 57.9572 54.875 58.4259ZM113.775 61.7066L115.225 56.1319H117.225L115 64.6913H112.325L110.925 59.2153H110.9L109.475 64.6913H107.475L109.7 56.1319H112.4L113.775 61.7066ZM88.25 57.9572L87.875 59.4619H90.65L90.175 61.2873H87.4L86.525 64.6666H84.225L86.45 56.1072H92.05L91.575 57.9572C91.55 57.9572 88.25 57.9572 88.25 57.9572ZM124.5 56.1072L124.025 57.9326H121.95L120.2 64.6666H117.9L119.65 57.9326H117.55L118.025 56.1072H124.5ZM125.3 56.1072H127.6L125.375 64.6913H123.075L125.3 56.1072ZM132.775 61.2873H129.9L129.5 62.8413H133.125L132.65 64.6913H126.75L128.975 56.1072H134.9L134.425 57.9326H130.8L130.4 59.4373H133.25L132.775 61.2873ZM147.45 61.2873H144.525L144.125 62.8413H147.75L147.275 64.6913H141.35L143.575 56.1319H149.475L149 57.9572H145.375L144.975 59.4619H147.9L147.45 61.2873ZM152.225 58.4259C151.9 59.5113 154.35 60.6213 153.925 62.6193C153.675 63.8033 152.925 64.864 150.525 64.8393C149.775 64.8393 148.85 64.642 148.2 64.42L148.675 62.4219C149.2 62.718 149.825 62.9153 150.45 62.9153C150.825 62.9153 151.5 62.8906 151.675 62.1999C151.925 61.2873 149.525 60.1773 149.9 58.1792C150.1 57.1679 151.15 55.9592 153.2 55.9592C153.775 55.9592 154.55 56.0579 155.275 56.4526C155.275 56.5266 154.825 58.2286 154.825 58.2286C154.4 57.9572 154 57.7846 153.325 57.7846C153 57.8092 152.35 57.9819 152.225 58.4259ZM96.575 60.9173C96.6 61.0899 97.4 64.6913 97.4 64.6913H94.925L94.125 59.9306H94.875H94.925C95.925 59.9553 96.475 59.5113 96.65 58.8206C96.875 57.9079 96.175 57.9079 95.85 57.9079H94.75L93 64.6913H90.8L93.025 56.1072H96.9C98.825 56.1072 99.325 57.0199 98.875 58.7219C98.625 59.6839 97.725 60.7199 96.575 60.9173ZM139.6 60.9173C139.625 61.0899 140.425 64.6913 140.425 64.6913H137.95L137.15 59.9306H137.95C138.95 59.9553 139.5 59.4866 139.675 58.8206C139.9 57.9079 139.2 57.9079 138.875 57.9079H137.75L136 64.6913H133.8L136.025 56.1072H139.9C141.825 56.1072 142.325 57.0199 141.9 58.7219C141.65 59.6839 140.75 60.7199 139.6 60.9173ZM92.525 53.6405H86.625L88.85 45.0811H94.75L94.275 46.9311H90.65L90.25 48.4358H93.2L92.75 50.2365H89.8L89.4 51.7905H93L92.525 53.6405ZM77.2 53.6405H71.275L73.5 45.0565H79.4L78.925 46.8818H75.3L74.9 48.3865H77.825L77.35 50.2118H74.425L74.025 51.7659H77.65C77.675 51.7905 77.2 53.6405 77.2 53.6405ZM97.475 53.7639C94.85 53.7639 93.5 52.1605 94.225 49.3238C94.975 46.4871 97.175 44.8838 99.775 44.8838C100.425 44.8838 101.275 44.9825 101.825 45.1798L101.325 47.1038C100.8 46.9065 100.275 46.7585 99.675 46.7585C97.9 46.7585 96.825 48.1892 96.525 49.3238C96.175 50.6558 96.525 51.8892 97.95 51.8892C98.85 51.8892 99.55 51.7165 100.225 51.5438L99.675 53.5172C99.05 53.6405 97.9 53.7639 97.475 53.7639ZM103.125 53.6405H100.825L103.05 45.0811H105.35L103.125 53.6405ZM64.6 47.4985L63.025 53.6159H61.075L63.3 45.0565H66.5L66.35 50.4338H66.375L69.075 45.0565H72.125L69.9 53.6159H67.95L69.525 47.4738H69.5L66.4 53.6159H64.45L64.6 47.4985ZM106.5 53.6405H104.5L106.725 45.0811H109.425L110.775 50.6558H110.8L112.25 45.0811H114.25L112.025 53.6405H109.35L107.95 48.1645H107.925L106.5 53.6405ZM117.1 47.3751C116.8 48.5098 119.225 49.5705 118.8 51.5685C118.55 52.7279 117.8 53.7885 115.4 53.7885C114.65 53.7885 113.725 53.5912 113.075 53.3692L113.55 51.3712C114.075 51.6672 114.7 51.8645 115.325 51.8645C115.7 51.8645 116.375 51.8399 116.55 51.1492C116.8 50.2365 114.4 49.1265 114.775 47.1285C114.975 46.1171 116.025 44.9085 118.075 44.9085C118.65 44.9085 119.425 45.0071 120.15 45.4018C120.15 45.4758 119.7 47.1778 119.7 47.1778C119.275 46.9065 118.875 46.7338 118.175 46.7338C117.875 46.7585 117.2 46.9311 117.1 47.3751Z" fill="black"/>
<path fill-rule="evenodd" clip-rule="evenodd" d="M64.4 56.1072H61.65C61.1407 56.8809 60.6349 57.6563 60.1299 58.4307C58.751 60.5449 57.3773 62.6511 55.95 64.6913H58.45L59.95 62.2246H62.625L62.775 64.6913H65.2C65.1181 63.8391 65.0296 62.9826 64.941 62.1256C64.7321 60.1049 64.5229 58.0817 64.4 56.1072ZM62.475 57.9572L60.95 60.4239H62.65L62.5 57.9572H62.475Z" fill="black"/>
<path fill-rule="evenodd" clip-rule="evenodd" d="M107.675 60.6705C108.5 57.6365 107.075 55.9838 104.5 55.9838C101.925 55.9838 99.75 57.5872 99.025 60.4239C98.275 63.2606 99.625 64.8639 102.225 64.8639C104.65 64.8639 106.875 63.4579 107.675 60.6705ZM102.7 62.9893C104.025 62.9893 105.075 61.7806 105.45 60.4239C105.75 59.0426 105.35 57.8586 104.025 57.8586C102.65 57.8586 101.65 59.0919 101.3 60.4239C100.95 61.7559 101.325 62.9893 102.7 62.9893Z" fill="black"/>
<path fill-rule="evenodd" clip-rule="evenodd" d="M82.05 53.6405C84.575 53.6405 86.225 51.8398 86.875 49.3485C87.8 45.7224 85.825 45.0564 84.75 45.0811H80.65L78.425 53.6405H82.05ZM82.075 51.8152C83.35 51.8152 84.25 50.6065 84.575 49.3485C84.975 47.7451 84.7 46.9065 83.5 46.9065H82.35L81.075 51.8152H82.075Z" fill="black"/>
</svg>
