<svg fill="none" height="25" width="125" xmlns="http://www.w3.org/2000/svg"><g fill="#ff492c"><path clip-rule="evenodd" d="m12.739 25c7.035 0 12.739-5.596 12.739-12.5s-5.704-12.5-12.74-12.5c-7.034 0-12.738 5.596-12.738 12.5s5.703 12.5 12.739 12.5zm5.514-15.425h-2.176c.059-.335.27-.522.698-.735l.4-.2c.716-.36 1.098-.768 1.098-1.433 0-.417-.165-.747-.494-.984-.329-.238-.716-.356-1.17-.356a1.83 1.83 0 0 0 -.99.278 1.64 1.64 0 0 0 -.658.703l.63.62c.244-.486.598-.723 1.064-.723.395 0 .637.2.637.478 0 .232-.117.425-.57.65l-.258.122c-.558.278-.945.595-1.17.955-.223.36-.333.813-.333 1.36v.15h3.292zm-.29 1.905h-3.603l-1.801 3.06h3.602l1.801 3.063 1.802-3.063-1.802-3.06zm-9.256 1.02c0 2.25 1.868 4.082 4.16 4.082.996 0 1.958-.351 2.712-.99l1.574 2.68a7.326 7.326 0 0 1 -4.285 1.37c-4.02 0-7.28-3.197-7.28-7.142s3.26-7.143 7.28-7.143c.478 0 .955.046 1.424.138l-1.424 2.922c-2.293 0-4.16 1.833-4.16 4.083z" fill-rule="evenodd"/><path d="m41.245 5.992c.303-.914 1.596-.914 1.9 0l.968 2.925a1 1 0 0 0 .95.686h3.093c.973 0 1.373 1.25.58 1.814l-2.47 1.761a1 1 0 0 0 -.369 1.129l.952 2.873c.304.918-.743 1.69-1.53 1.128l-2.544-1.813a1 1 0 0 0 -1.16 0l-2.544 1.813c-.788.561-1.834-.21-1.53-1.128l.951-2.873a1 1 0 0 0 -.369-1.129l-2.47-1.76c-.792-.566-.393-1.815.58-1.815h3.095a1 1 0 0 0 .949-.686zm18.708.137c.295-.93 1.611-.93 1.906 0l.881 2.776a1 1 0 0 0 .953.698h2.901c.963 0 1.37 1.228.597 1.802l-2.387 1.776a1 1 0 0 0 -.356 1.105l.902 2.843c.294.925-.771 1.684-1.55 1.105l-2.297-1.709a1 1 0 0 0 -1.194 0l-2.297 1.709c-.779.58-1.843-.18-1.55-1.105l.902-2.843a1 1 0 0 0 -.356-1.105l-2.387-1.776c-.773-.574-.366-1.802.597-1.802h2.9a1 1 0 0 0 .954-.698l.88-2.776zm18.714-.137c.303-.914 1.596-.914 1.899 0l.969 2.925a1 1 0 0 0 .949.686h3.094c.973 0 1.373 1.25.58 1.814l-2.47 1.761a1 1 0 0 0 -.369 1.129l.951 2.873c.305.918-.742 1.69-1.53 1.128l-2.543-1.813a1 1 0 0 0 -1.16 0l-2.544 1.813c-.788.561-1.834-.21-1.53-1.128l.951-2.873a1 1 0 0 0 -.369-1.129l-2.47-1.76c-.793-.566-.393-1.815.58-1.815h3.094a1 1 0 0 0 .95-.686zm18.708.136c.295-.93 1.611-.93 1.906 0l.881 2.777a1 1 0 0 0 .953.698h2.901c.963 0 1.37 1.227.597 1.802l-2.387 1.776a1 1 0 0 0 -.356 1.105l.902 2.843c.293.925-.771 1.684-1.55 1.104l-2.297-1.708a1 1 0 0 0 -1.194 0l-2.297 1.709c-.779.579-1.844-.18-1.55-1.105l.902-2.843a1 1 0 0 0 -.356-1.105l-2.387-1.776c-.773-.575-.366-1.802.597-1.802h2.9a1 1 0 0 0 .954-.698l.88-2.777z"/><path clip-rule="evenodd" d="m116.242 3.125-1.841 5.58a1 1 0 0 1 -.949.686h-2.852c-.972 0-1.372 1.248-.582 1.814l2.281 1.631a1 1 0 0 1 .368 1.127l-.878 2.659c-.303.918.745 1.69 1.532 1.126l2.921-2.09z" fill-rule="evenodd"/></g></svg>