<svg width="58" height="72" viewBox="0 0 58 72" fill="none" xmlns="http://www.w3.org/2000/svg">
<path d="M52.2957 71.4678L6.41427 59.1739C4.22483 58.5872 2.56443 57.3141 1.43306 55.3545C0.301691 53.3949 0.0293359 51.3204 0.615992 49.1309L12.9099 3.24948C13.3413 1.6396 14.3838 0.711115 16.0374 0.464021C17.691 0.216926 18.9185 0.7874 19.7199 2.17544L25.0232 11.361L19.7827 14.305L21.4798 17.2444L26.6496 14.1779L33.3671 25.813L28.1007 28.8536L29.8236 31.6964L34.9934 28.6299L41.7558 40.4841L36.6118 43.4539L38.2123 46.3674L43.4787 43.3269L50.1962 54.9619L44.9557 57.9059L46.6528 60.8453L51.8226 57.7789L56.605 66.2037C57.4064 67.5918 57.2908 68.9246 56.2583 70.2022C55.2265 71.4773 53.9056 71.8991 52.2957 71.4678ZM17.9867 18.6896L9.70449 49.5992C9.61821 49.9212 9.65804 50.2258 9.82398 50.5133C9.98803 50.7974 10.231 50.9826 10.553 51.0689L41.4626 59.3511L17.9867 18.6896Z" fill="#EF5B5B"/>
</svg>
