<svg width="76" height="79" viewBox="0 0 76 79" fill="none" xmlns="http://www.w3.org/2000/svg">
<path d="M9.57324 75.2902L7.32268 74.8965C5.11222 74.5276 3.40518 73.3892 2.20154 71.4813C0.997899 69.5734 0.612977 67.5065 1.04677 65.2808L3.92404 51.3477L9.57324 75.2902ZM28.3508 78.6684C26.2096 79.1736 24.1972 78.8429 22.3137 77.6763C20.4281 76.5128 19.2327 74.8605 18.7275 72.7193L14.1347 53.2538L28.9217 75.8623C29.2235 76.2706 29.5217 76.6633 29.8161 77.0404C30.11 77.4149 30.4651 77.7586 30.8813 78.0713L28.3508 78.6684ZM45.5078 72.5653C44.0884 73.5167 42.5575 73.7752 40.9151 73.3407C39.2702 72.9069 37.9396 71.9879 36.9233 70.5837L8.39252 27.1755C7.44113 25.7561 7.14624 24.216 7.50786 22.5552C7.86948 20.8944 8.76001 19.5884 10.1795 18.637L37.0463 0.995763C38.4658 0.0443707 39.9811 -0.210419 41.5923 0.231392C43.2035 0.673204 44.5172 1.59618 45.5335 3.00033L74.0413 46.3112C74.9927 47.7307 75.3085 49.2836 74.9885 50.9702C74.6654 52.6547 73.7941 53.9727 72.3747 54.9241L45.5078 72.5653ZM27.3013 29.8035C28.4044 29.5432 29.2415 28.9512 29.8126 28.0273C30.3817 27.1067 30.5361 26.0949 30.2759 24.9918C30.0156 23.8888 29.4249 23.0514 28.5036 22.4797C27.5804 21.9112 26.5673 21.757 25.4642 22.0173C24.3612 22.2776 23.5251 22.868 22.956 23.7886C22.3848 24.7125 22.2294 25.7259 22.4897 26.829C22.7499 27.932 23.3417 28.7678 24.2649 29.3363C25.1862 29.908 26.1983 30.0638 27.3013 29.8035ZM42.132 67.4026L68.9989 49.7614L40.4221 6.15851L13.5553 23.7997L42.132 67.4026Z" fill="#5B185E"/>
</svg>
