<svg width="238" height="25" viewBox="0 0 238 25" fill="none" xmlns="http://www.w3.org/2000/svg">
<path d="M163.746 14.062C163.746 15.8513 163.863 17.164 164.098 18H162.206C162.089 17.472 162.03 17.0467 162.03 16.724C162.03 16.4307 162.096 15.8807 162.228 15.074H162.096C161.891 16.174 161.509 16.988 160.952 17.516C160.395 18.044 159.617 18.308 158.62 18.308C157.637 18.308 156.86 18.0367 156.288 17.494C155.716 16.9513 155.43 16.2033 155.43 15.25C155.43 14.2673 155.745 13.512 156.376 12.984C157.021 12.4413 158.011 12.0747 159.346 11.884L161.942 11.51V10.894C161.942 9.91133 161.759 9.20733 161.392 8.782C161.04 8.342 160.475 8.122 159.698 8.122C158.965 8.122 158.385 8.32733 157.96 8.738C157.549 9.134 157.322 9.71333 157.278 10.476L155.54 10.124C155.628 8.99467 156.024 8.144 156.728 7.572C157.447 6.98533 158.451 6.692 159.742 6.692C162.411 6.692 163.746 7.99733 163.746 10.608V14.062ZM159.214 16.856C160.079 16.856 160.747 16.5773 161.216 16.02C161.7 15.448 161.942 14.6047 161.942 13.49V12.94L159.5 13.358C158.767 13.4753 158.217 13.6733 157.85 13.952C157.498 14.216 157.322 14.6267 157.322 15.184C157.322 15.7267 157.483 16.1447 157.806 16.438C158.143 16.7167 158.613 16.856 159.214 16.856ZM171.296 18.308C169.741 18.308 168.575 17.8093 167.798 16.812C167.021 15.8 166.632 14.3847 166.632 12.566C166.632 11.378 166.823 10.344 167.204 9.464C167.6 8.56933 168.15 7.88733 168.854 7.418C169.573 6.934 170.409 6.692 171.362 6.692C172.579 6.692 173.533 7 174.222 7.616C174.926 8.232 175.315 9.08267 175.388 10.168L173.606 10.498C173.533 9.77933 173.305 9.222 172.924 8.826C172.557 8.41533 172.037 8.21 171.362 8.21C170.511 8.21 169.822 8.59867 169.294 9.376C168.781 10.1387 168.524 11.1727 168.524 12.478C168.524 13.8127 168.766 14.8613 169.25 15.624C169.734 16.372 170.416 16.746 171.296 16.746C171.927 16.746 172.433 16.5553 172.814 16.174C173.195 15.7927 173.445 15.25 173.562 14.546L175.322 15.052C175.102 16.0933 174.655 16.9 173.98 17.472C173.32 18.0293 172.425 18.308 171.296 18.308ZM185.575 14.062C185.575 15.8513 185.692 17.164 185.927 18H184.035C183.918 17.472 183.859 17.0467 183.859 16.724C183.859 16.4307 183.925 15.8807 184.057 15.074H183.925C183.72 16.174 183.338 16.988 182.781 17.516C182.224 18.044 181.446 18.308 180.449 18.308C179.466 18.308 178.689 18.0367 178.117 17.494C177.545 16.9513 177.259 16.2033 177.259 15.25C177.259 14.2673 177.574 13.512 178.205 12.984C178.85 12.4413 179.84 12.0747 181.175 11.884L183.771 11.51V10.894C183.771 9.91133 183.588 9.20733 183.221 8.782C182.869 8.342 182.304 8.122 181.527 8.122C180.794 8.122 180.214 8.32733 179.789 8.738C179.378 9.134 179.151 9.71333 179.107 10.476L177.369 10.124C177.457 8.99467 177.853 8.144 178.557 7.572C179.276 6.98533 180.28 6.692 181.571 6.692C184.24 6.692 185.575 7.99733 185.575 10.608V14.062ZM181.043 16.856C181.908 16.856 182.576 16.5773 183.045 16.02C183.529 15.448 183.771 14.6047 183.771 13.49V12.94L181.329 13.358C180.596 13.4753 180.046 13.6733 179.679 13.952C179.327 14.216 179.151 14.6267 179.151 15.184C179.151 15.7267 179.312 16.1447 179.635 16.438C179.972 16.7167 180.442 16.856 181.043 16.856ZM192.553 18.308C191.746 18.308 191.028 18.0733 190.397 17.604C189.781 17.1347 189.304 16.46 188.967 15.58C188.63 14.7 188.461 13.666 188.461 12.478C188.461 11.3047 188.622 10.2853 188.945 9.42C189.282 8.54 189.752 7.86533 190.353 7.396C190.969 6.92667 191.68 6.692 192.487 6.692C193.411 6.692 194.144 6.96333 194.687 7.506C195.244 8.034 195.662 8.84067 195.941 9.926H196.073C195.926 9.33933 195.816 8.79667 195.743 8.298C195.684 7.79933 195.655 7.24933 195.655 6.648V2.248H197.459V18H195.655V17.604C195.655 16.9 195.78 16.1007 196.029 15.206H195.897C195.618 16.2473 195.222 17.0247 194.709 17.538C194.196 18.0513 193.477 18.308 192.553 18.308ZM193.125 16.878C194.02 16.878 194.702 16.504 195.171 15.756C195.64 14.9933 195.875 13.9007 195.875 12.478C195.875 11.07 195.64 9.992 195.171 9.244C194.702 8.496 194.02 8.122 193.125 8.122C192.23 8.122 191.541 8.496 191.057 9.244C190.588 9.992 190.353 11.0627 190.353 12.456C190.353 13.864 190.588 14.9567 191.057 15.734C191.541 16.4967 192.23 16.878 193.125 16.878ZM209.239 11.73C209.239 12.0967 209.217 12.5147 209.173 12.984H202.265C202.324 14.2453 202.588 15.1913 203.057 15.822C203.526 16.438 204.208 16.746 205.103 16.746C205.792 16.746 206.32 16.5847 206.687 16.262C207.054 15.9393 207.318 15.4113 207.479 14.678L209.129 15.206C208.938 16.2033 208.491 16.9733 207.787 17.516C207.098 18.044 206.188 18.308 205.059 18.308C203.607 18.308 202.47 17.7947 201.649 16.768C200.842 15.7413 200.439 14.3187 200.439 12.5C200.439 10.6813 200.842 9.25867 201.649 8.232C202.47 7.20533 203.6 6.692 205.037 6.692C206.372 6.692 207.406 7.132 208.139 8.012C208.872 8.892 209.239 10.1313 209.239 11.73ZM207.369 11.576C207.369 9.27333 206.592 8.122 205.037 8.122C204.186 8.122 203.519 8.43 203.035 9.046C202.551 9.64733 202.294 10.4907 202.265 11.576H207.369ZM218.051 10.938C218.051 9.97 217.912 9.25867 217.633 8.804C217.354 8.34933 216.9 8.122 216.269 8.122C214.744 8.122 213.981 9.52267 213.981 12.324V18H212.177V7H213.915V7.33C213.915 8.122 213.798 9.18533 213.563 10.52H213.695C213.9 9.156 214.238 8.18067 214.707 7.594C215.176 6.99267 215.88 6.692 216.819 6.692C217.684 6.692 218.352 7.022 218.821 7.682C219.305 8.32733 219.532 9.27333 219.503 10.52H219.635C219.767 9.22933 220.082 8.26867 220.581 7.638C221.08 7.00733 221.835 6.692 222.847 6.692C223.859 6.692 224.592 7.03667 225.047 7.726C225.516 8.40067 225.751 9.43467 225.751 10.828V18H223.947V10.96C223.947 9.992 223.793 9.28067 223.485 8.826C223.192 8.35667 222.73 8.122 222.099 8.122C221.336 8.122 220.772 8.496 220.405 9.244C220.038 9.992 219.855 11.0993 219.855 12.566V18H218.051V10.938ZM229.083 22.708C228.746 22.708 228.394 22.664 228.027 22.576C227.661 22.488 227.345 22.3633 227.081 22.202L227.719 20.706C228.189 20.9847 228.643 21.124 229.083 21.124C229.494 21.124 229.831 20.9993 230.095 20.75C230.374 20.5153 230.601 20.134 230.777 19.606L231.261 18.22L227.411 7H229.369L231.635 13.798C231.826 14.3553 231.958 14.832 232.031 15.228C232.119 15.6093 232.171 16.108 232.185 16.724H232.317C232.347 16.0933 232.391 15.5947 232.449 15.228C232.523 14.8467 232.655 14.3773 232.845 13.82L235.155 7H236.783L232.163 20.244C231.899 21.0213 231.503 21.6227 230.975 22.048C230.462 22.488 229.831 22.708 229.083 22.708Z" fill="#3D3E43"/>
<g clip-path="url(#clip0_908_623)">
<path d="M8.156 0.689941H0V8.68994H8.156V0.689941Z" fill="#23376B"/>
<path d="M16.3118 0.689941H8.15576V8.68994H16.3118V0.689941Z" fill="#0071AF"/>
<path d="M24.468 16.6899H16.312V24.6899H24.468V16.6899Z" fill="#5B185E"/>
<path d="M16.3118 16.6899H8.15576V24.6899H16.3118V16.6899Z" fill="#FF574C"/>
<path d="M16.312 0.689941V16.6899L24.468 8.68994V0.689941H16.312Z" fill="#33CCFF"/>
<path d="M0 16.6899V24.6899H8.156V8.68994L0 16.6899Z" fill="#FFBF25"/>
<path d="M51.48 12.8069C51.48 11.1959 50.454 9.79987 48.655 9.79987C46.855 9.79987 45.852 11.1959 45.852 12.8069C45.852 14.4389 46.855 15.8349 48.655 15.8349C50.454 15.8349 51.479 14.4389 51.479 12.8069H51.48ZM102.097 12.8069C102.097 11.1959 101.071 9.79987 99.272 9.79987C97.472 9.79987 96.47 11.1959 96.47 12.8069C96.47 14.4389 97.472 15.8349 99.272 15.8349C101.071 15.8349 102.097 14.4389 102.097 12.8069ZM64.034 12.8069C64.034 11.1959 63.009 9.79987 61.21 9.79987C59.41 9.79987 58.407 11.1959 58.407 12.8069C58.407 14.4389 59.41 15.8349 61.21 15.8349C63.009 15.8349 64.034 14.4389 64.034 12.8069ZM42.846 12.8069C42.846 9.86487 45.033 7.37287 48.655 7.37287C52.299 7.37287 54.486 9.86487 54.486 12.8069C54.486 15.7699 52.299 18.2609 48.655 18.2609C45.033 18.2609 42.846 15.7709 42.846 12.8069ZM55.401 12.8069C55.401 9.86487 57.588 7.37287 61.21 7.37287C64.854 7.37287 67.041 9.86487 67.041 12.8069C67.041 15.7699 64.854 18.2609 61.21 18.2609C57.588 18.2609 55.401 15.7709 55.401 12.8069V12.8069ZM82.011 18.0039V11.4539C82.011 10.4869 81.555 9.79987 80.371 9.79987C79.346 9.79987 78.503 10.4449 78.094 11.0029V18.0039H75.178V11.4539C75.178 10.4869 74.722 9.79987 73.538 9.79987C72.535 9.79987 71.692 10.4449 71.26 11.0239V18.0039H68.366V7.62987H71.26V8.98387C71.715 8.36087 73.173 7.37287 74.859 7.37287C76.476 7.37287 77.501 8.08187 77.911 9.26287C78.549 8.31787 80.007 7.37287 81.693 7.37287C83.72 7.37287 84.927 8.38287 84.927 10.5089V18.0039H82.01H82.011ZM87.446 18.0039V7.07187C87.446 4.81687 88.996 3.46387 91.159 3.46387C91.979 3.46387 92.73 3.63587 93.254 3.89387L92.662 5.82687C92.412 5.67687 92.07 5.61187 91.728 5.61187C90.908 5.61187 90.362 6.12687 90.362 7.11587V7.88287H92.594V10.2659H90.362V18.0039H87.446ZM93.463 12.8069C93.463 9.86487 95.65 7.37287 99.273 7.37287C102.917 7.37287 105.104 9.86487 105.104 12.8069C105.104 15.7699 102.917 18.2609 99.272 18.2609C95.65 18.2609 93.463 15.7709 93.463 12.8069V12.8069ZM106.555 18.0039V7.62987H109.448V9.04787C110.222 8.12487 111.59 7.37287 112.956 7.37287V10.0359C112.693 9.98866 112.426 9.96723 112.159 9.97187C111.202 9.97187 109.926 10.4869 109.448 11.1529V18.0039H106.555ZM114.481 15.4269V4.79687H117.397V7.62987H119.629V10.0139H117.397V14.6969C117.397 15.3409 117.762 15.8349 118.4 15.8349C118.832 15.8349 119.242 15.6849 119.402 15.5339L120.017 17.5959C119.583 17.9619 118.809 18.2609 117.602 18.2609C115.575 18.2609 114.481 17.2739 114.481 15.4269V15.4269ZM129.107 18.0039V11.6899C129.107 10.2499 128.31 9.79987 127.057 9.79987C125.94 9.79987 125.052 10.4009 124.551 11.0239V18.0039H121.658V3.67987H124.551V8.98487C125.257 8.18987 126.624 7.37387 128.423 7.37387C130.838 7.37387 132 8.61987 132 10.6389V18.0049H129.107V18.0039ZM33 18.0029V15.9549L37.986 9.98187H33V7.58887H41.92V9.57287L36.865 15.6099H42.011V18.0029H33Z" fill="#23376B"/>
</g>
<rect opacity="0.3" x="143" y="0.689941" width="1" height="24" fill="#777777"/>
<defs>
<clipPath id="clip0_908_623">
<rect width="132" height="24" fill="white" transform="translate(0 0.689941)"/>
</clipPath>
</defs>
</svg>
