<svg width="195" height="25" viewBox="0 0 195 25" fill="none" xmlns="http://www.w3.org/2000/svg">
<path d="M160.996 18.308C160.072 18.308 159.353 18.0513 158.84 17.538C158.327 17.0247 157.931 16.2473 157.652 15.206H157.52C157.769 16.1007 157.894 16.9 157.894 17.604V18H156.09V2.248H157.894V6.648C157.894 7.24933 157.857 7.79933 157.784 8.298C157.725 8.79667 157.623 9.33933 157.476 9.926H157.608C157.887 8.84067 158.297 8.034 158.84 7.506C159.397 6.96333 160.138 6.692 161.062 6.692C161.869 6.692 162.573 6.92667 163.174 7.396C163.79 7.86533 164.259 8.54 164.582 9.42C164.919 10.2853 165.088 11.3047 165.088 12.478C165.088 13.666 164.919 14.7 164.582 15.58C164.245 16.46 163.761 17.1347 163.13 17.604C162.514 18.0733 161.803 18.308 160.996 18.308ZM160.424 16.878C161.319 16.878 162.001 16.4967 162.47 15.734C162.954 14.9567 163.196 13.864 163.196 12.456C163.196 11.0627 162.954 9.992 162.47 9.244C162.001 8.496 161.319 8.122 160.424 8.122C159.529 8.122 158.847 8.496 158.378 9.244C157.909 9.992 157.674 11.07 157.674 12.478C157.674 13.9007 157.909 14.9933 158.378 15.756C158.847 16.504 159.529 16.878 160.424 16.878ZM168.068 18V2.248H169.872V18H168.068ZM177.495 18.308C175.999 18.308 174.847 17.8093 174.041 16.812C173.234 15.8 172.831 14.3627 172.831 12.5C172.831 10.6373 173.234 9.20733 174.041 8.21C174.847 7.198 175.999 6.692 177.495 6.692C179.005 6.692 180.164 7.198 180.971 8.21C181.777 9.20733 182.181 10.6373 182.181 12.5C182.181 14.3627 181.777 15.8 180.971 16.812C180.164 17.8093 179.005 18.308 177.495 18.308ZM177.495 16.878C178.389 16.878 179.079 16.504 179.563 15.756C180.047 14.9933 180.289 13.908 180.289 12.5C180.289 11.092 180.047 10.014 179.563 9.266C179.079 8.50333 178.389 8.122 177.495 8.122C176.6 8.122 175.911 8.50333 175.427 9.266C174.957 10.014 174.723 11.092 174.723 12.5C174.723 13.8933 174.957 14.9713 175.427 15.734C175.911 16.4967 176.6 16.878 177.495 16.878ZM190.715 16.24C193.106 16.284 194.301 17.2447 194.301 19.122C194.301 20.3247 193.817 21.2193 192.849 21.806C191.896 22.4073 190.554 22.708 188.823 22.708C187.224 22.708 186.022 22.466 185.215 21.982C184.423 21.498 184.027 20.8013 184.027 19.892C184.027 19.2173 184.262 18.682 184.731 18.286C185.215 17.89 185.853 17.6553 186.645 17.582L187.459 17.516V17.384H186.601C185.926 17.384 185.384 17.23 184.973 16.922C184.562 16.614 184.357 16.1667 184.357 15.58C184.357 14.568 184.958 13.9447 186.161 13.71V13.578C185.677 13.2407 185.296 12.808 185.017 12.28C184.738 11.752 184.599 11.1653 184.599 10.52C184.599 9.78667 184.775 9.12667 185.127 8.54C185.494 7.95333 185.992 7.49867 186.623 7.176C187.254 6.85333 187.972 6.692 188.779 6.692C189.85 6.692 190.759 6.97067 191.507 7.528L191.573 7.484C191.47 7.23467 191.419 6.912 191.419 6.516C191.419 6.076 191.558 5.70933 191.837 5.416C192.13 5.12267 192.519 4.976 193.003 4.976C193.311 4.976 193.641 5.042 193.993 5.174L193.641 6.912C193.362 6.76533 193.076 6.692 192.783 6.692C192.475 6.692 192.24 6.76533 192.079 6.912C191.932 7.05867 191.859 7.24933 191.859 7.484C191.859 7.64533 191.896 7.792 191.969 7.924C192.644 8.628 192.981 9.49333 192.981 10.52C192.981 11.2533 192.798 11.9133 192.431 12.5C192.079 13.0867 191.58 13.5413 190.935 13.864C190.304 14.1867 189.586 14.348 188.779 14.348C188.031 14.348 187.356 14.2087 186.755 13.93C186.447 14.0767 186.227 14.2453 186.095 14.436C185.963 14.6267 185.897 14.854 185.897 15.118C185.897 15.4847 186.029 15.756 186.293 15.932C186.572 16.0933 187.019 16.1813 187.635 16.196L190.715 16.24ZM188.779 8.012C188.06 8.012 187.488 8.23933 187.063 8.694C186.652 9.14867 186.447 9.75733 186.447 10.52C186.447 11.268 186.652 11.8693 187.063 12.324C187.488 12.7787 188.06 13.006 188.779 13.006C189.498 13.006 190.07 12.7787 190.495 12.324C190.92 11.8693 191.133 11.268 191.133 10.52C191.133 9.75733 190.92 9.14867 190.495 8.694C190.07 8.23933 189.498 8.012 188.779 8.012ZM188.933 21.19C190.106 21.19 190.979 21.0507 191.551 20.772C192.123 20.508 192.409 20.046 192.409 19.386C192.409 18.946 192.262 18.6013 191.969 18.352C191.676 18.1027 191.25 17.9707 190.693 17.956L187.393 17.912C186.792 18.0587 186.374 18.264 186.139 18.528C185.904 18.792 185.787 19.1293 185.787 19.54C185.787 20.112 186.029 20.53 186.513 20.794C186.997 21.058 187.804 21.19 188.933 21.19Z" fill="#3D3E43"/>
<g clip-path="url(#clip0_916_676)">
<path d="M8.156 0.689941H0V8.68994H8.156V0.689941Z" fill="#23376B"/>
<path d="M16.3118 0.689941H8.15576V8.68994H16.3118V0.689941Z" fill="#0071AF"/>
<path d="M24.468 16.6899H16.312V24.6899H24.468V16.6899Z" fill="#5B185E"/>
<path d="M16.3118 16.6899H8.15576V24.6899H16.3118V16.6899Z" fill="#FF574C"/>
<path d="M16.312 0.689941V16.6899L24.468 8.68994V0.689941H16.312Z" fill="#33CCFF"/>
<path d="M0 16.6899V24.6899H8.156V8.68994L0 16.6899Z" fill="#FFBF25"/>
<path d="M51.48 12.8069C51.48 11.1959 50.454 9.79987 48.655 9.79987C46.855 9.79987 45.852 11.1959 45.852 12.8069C45.852 14.4389 46.855 15.8349 48.655 15.8349C50.454 15.8349 51.479 14.4389 51.479 12.8069H51.48ZM102.097 12.8069C102.097 11.1959 101.071 9.79987 99.272 9.79987C97.472 9.79987 96.47 11.1959 96.47 12.8069C96.47 14.4389 97.472 15.8349 99.272 15.8349C101.071 15.8349 102.097 14.4389 102.097 12.8069ZM64.034 12.8069C64.034 11.1959 63.009 9.79987 61.21 9.79987C59.41 9.79987 58.407 11.1959 58.407 12.8069C58.407 14.4389 59.41 15.8349 61.21 15.8349C63.009 15.8349 64.034 14.4389 64.034 12.8069ZM42.846 12.8069C42.846 9.86487 45.033 7.37287 48.655 7.37287C52.299 7.37287 54.486 9.86487 54.486 12.8069C54.486 15.7699 52.299 18.2609 48.655 18.2609C45.033 18.2609 42.846 15.7709 42.846 12.8069ZM55.401 12.8069C55.401 9.86487 57.588 7.37287 61.21 7.37287C64.854 7.37287 67.041 9.86487 67.041 12.8069C67.041 15.7699 64.854 18.2609 61.21 18.2609C57.588 18.2609 55.401 15.7709 55.401 12.8069V12.8069ZM82.011 18.0039V11.4539C82.011 10.4869 81.555 9.79987 80.371 9.79987C79.346 9.79987 78.503 10.4449 78.094 11.0029V18.0039H75.178V11.4539C75.178 10.4869 74.722 9.79987 73.538 9.79987C72.535 9.79987 71.692 10.4449 71.26 11.0239V18.0039H68.366V7.62987H71.26V8.98387C71.715 8.36087 73.173 7.37287 74.859 7.37287C76.476 7.37287 77.501 8.08187 77.911 9.26287C78.549 8.31787 80.007 7.37287 81.693 7.37287C83.72 7.37287 84.927 8.38287 84.927 10.5089V18.0039H82.01H82.011ZM87.446 18.0039V7.07187C87.446 4.81687 88.996 3.46387 91.159 3.46387C91.979 3.46387 92.73 3.63587 93.254 3.89387L92.662 5.82687C92.412 5.67687 92.07 5.61187 91.728 5.61187C90.908 5.61187 90.362 6.12687 90.362 7.11587V7.88287H92.594V10.2659H90.362V18.0039H87.446ZM93.463 12.8069C93.463 9.86487 95.65 7.37287 99.273 7.37287C102.917 7.37287 105.104 9.86487 105.104 12.8069C105.104 15.7699 102.917 18.2609 99.272 18.2609C95.65 18.2609 93.463 15.7709 93.463 12.8069V12.8069ZM106.555 18.0039V7.62987H109.448V9.04787C110.222 8.12487 111.59 7.37287 112.956 7.37287V10.0359C112.693 9.98866 112.426 9.96723 112.159 9.97187C111.202 9.97187 109.926 10.4869 109.448 11.1529V18.0039H106.555ZM114.481 15.4269V4.79687H117.397V7.62987H119.629V10.0139H117.397V14.6969C117.397 15.3409 117.762 15.8349 118.4 15.8349C118.832 15.8349 119.242 15.6849 119.402 15.5339L120.017 17.5959C119.583 17.9619 118.809 18.2609 117.602 18.2609C115.575 18.2609 114.481 17.2739 114.481 15.4269V15.4269ZM129.107 18.0039V11.6899C129.107 10.2499 128.31 9.79987 127.057 9.79987C125.94 9.79987 125.052 10.4009 124.551 11.0239V18.0039H121.658V3.67987H124.551V8.98487C125.257 8.18987 126.624 7.37387 128.423 7.37387C130.838 7.37387 132 8.61987 132 10.6389V18.0049H129.107V18.0039ZM33 18.0029V15.9549L37.986 9.98187H33V7.58887H41.92V9.57287L36.865 15.6099H42.011V18.0029H33Z" fill="#23376B"/>
</g>
<rect opacity="0.3" x="143" y="0.689941" width="1" height="24" fill="#777777"/>
<defs>
<clipPath id="clip0_916_676">
<rect width="132" height="24" fill="white" transform="translate(0 0.689941)"/>
</clipPath>
</defs>
</svg>
